<?xml version="1.0" standalone="no"?>
<!DOCTYPE svg PUBLIC "-//W3C//DTD SVG 1.1//EN" "http://www.w3.org/Graphics/SVG/1.1/DTD/svg11.dtd" >
<svg xmlns="http://www.w3.org/2000/svg" xmlns:xlink="http://www.w3.org/1999/xlink" version="1.1">
<metadata>
Created by FontForge 20161003 at Fri Dec 28 07:15:04 2018
 By www-data
Copyright (c) 2018 by Amarlettering_kamaruddin. All rights reserved.
</metadata>
<defs>
<font id="Astereiska" horiz-adv-x="171" >
  <font-face 
    font-family="Astereiska"
    font-weight="400"
    font-stretch="normal"
    units-per-em="1000"
    panose-1="2 0 5 6 0 0 0 2 0 2"
    ascent="800"
    descent="-200"
    x-height="239.5"
    cap-height="549"
    bbox="-483.725 -302.492 790.725 765.846"
    underline-thickness="50"
    underline-position="-150"
    unicode-range="U+000D-FB02"
  />
<missing-glyph horiz-adv-x="250" 
 />
    <glyph glyph-name="d_b" unicode="db" horiz-adv-x="518" 
d="M277 56q-2 -4 -8 -5t-12.5 -0.5t-11.5 3.5t-4 8q3 19 8 42.5t12 50.5q-12 -21 -27 -46t-31 -50.5t-32 -50t-30 -43.5q-7 -9 -18 -21.5t-22 -18.5t-19.5 0t-11.5 33q-3 30 2.5 62.5t14 63t17 56t13.5 41.5q-6 -7 -18 -20.5t-27 -28.5t-31 -29t-28 -23t-23.5 -13.5
t-20.5 -3t-14.5 9.5t-3.5 24q3 20 12.5 43t24.5 45t33.5 40t38.5 29q24 13 45.5 14t38.5 -13q22 60 46 121t49 106q22 40 43 61t38 29q21 10 33.5 5.5t17.5 -16t5 -27.5t-4 -30q-8 -29 -31 -63t-51.5 -67t-58 -62.5t-50.5 -49.5q-11 -28 -26.5 -70.5t-30 -88t-25 -87.5
t-10.5 -68q0 -13 4.5 -15t10.5 2t13 12.5t13 16.5q40 57 76.5 113.5t65.5 119.5q15 55 36 114t46 112t54 94.5t61 60.5q18 10 32.5 9.5t23 -9.5t9.5 -24.5t-6 -34.5q-11 -27 -34 -60.5t-51 -65.5t-57 -60t-52 -46q-6 -18 -13 -44t-14.5 -54.5t-14 -57t-10.5 -50.5
q11 16 18.5 28t15.5 23q18 25 41 53t47 48q25 19 43.5 16t14.5 -37q-2 -25 -15 -52.5t-28 -49.5q28 10 51.5 29.5t47.5 56.5q3 5 7 2.5t2 -7.5q-29 -44 -57 -64.5t-61 -29.5q-15 -21 -36 -39t-45 -25q-19 -6 -30.5 -2.5t-15 11.5t1.5 18.5t20 19.5q17 9 38 13.5t37 8.5
q18 23 32 51t19 56q1 7 1 12.5t-2 8.5t-7 2t-13 -7q-23 -19 -45.5 -47t-39.5 -51q-14 -20 -24.5 -37.5t-22.5 -33.5zM188 283q21 21 49.5 49t55 59.5t46.5 64t26 62.5q2 12 1.5 23.5t-4.5 18.5t-12.5 7t-21.5 -11q-14 -12 -27 -28.5t-23.5 -34.5t-19.5 -36.5t-16 -34.5
q-14 -32 -27.5 -68t-26.5 -71zM340 304q21 16 47.5 42.5t52.5 57t47 62t31 56.5q7 17 6.5 29t-6.5 17t-16 3.5t-23 -11.5q-23 -18 -44 -50.5t-39 -69t-32.5 -73t-23.5 -63.5zM78 241q-14 -9 -27 -22.5t-24 -29t-20 -32t-14 -30.5q-4 -10 -7.5 -21.5t-2.5 -18.5t7 -8t21 10
q32 25 59 53.5t53 54.5q4 11 8 22.5t9 23.5q-6 7 -14 9.5t-16.5 1t-16.5 -5t-15 -7.5zM368 88q-14 -2 -31 -6t-30 -12q-10 -6 -13.5 -13t-1.5 -11.5t9.5 -4.5t21.5 9t27 21t18 17z" />
    <glyph glyph-name="d_h" unicode="dh" horiz-adv-x="532" 
d="M89 -52q0 -13 4.5 -15t10.5 2t13 12.5t13 16.5q38 55 74 110.5t65 115.5q15 55 35 116t45.5 115t55 96t62.5 61q19 11 33.5 10t23 -10t9.5 -24.5t-6 -34.5q-11 -28 -34 -61t-51 -65.5t-57.5 -60t-51.5 -45.5q-6 -19 -13.5 -46.5t-15 -56.5t-14 -57.5t-10.5 -50.5
q27 39 54.5 81.5t64.5 73.5q10 9 22 12t21 0.5t14.5 -10.5t4.5 -22q-3 -33 -18.5 -67.5t-33.5 -69.5t-34.5 -70t-22.5 -68q-2 -14 4.5 -15t22.5 19q21 25 42 57.5t40.5 67t37.5 69t33 63.5q3 5 7.5 3t2.5 -7q-15 -29 -33.5 -64t-39 -70.5t-42 -69t-42.5 -58.5
q-13 -15 -25 -20t-20 -1.5t-12 15.5t0 31q6 31 22 66.5t33 70t30 65t15 51.5q0 12 -5 18.5t-19 -4.5q-13 -10 -30 -30.5t-34.5 -44.5t-33 -47.5t-26.5 -39.5q-4 -9 -8 -10t-10 -1t-11 1.5t-8 4t-2 6.5q3 18 7.5 41t10.5 49q-12 -21 -26.5 -45.5t-30.5 -49.5t-32 -49t-29 -43
q-7 -9 -18 -21.5t-22 -18.5t-19.5 0t-11.5 33q-3 30 2.5 62.5t14 63t17 56t13.5 41.5q-6 -7 -18 -20.5t-27 -28.5t-31 -29t-28 -23t-23.5 -13.5t-20.5 -3t-14.5 9.5t-3.5 24q3 20 12.5 43t24.5 45t33.5 40t38.5 29q24 13 45.5 14t38.5 -13q22 60 46 121t49 106q22 40 43 61
t38 29q21 10 33.5 5.5t17.5 -16t5 -27.5t-4 -30q-8 -29 -31 -63t-51.5 -67t-58 -62.5t-50.5 -49.5q-11 -28 -26.5 -70.5t-30 -88t-25 -87.5t-10.5 -68zM188 283q21 21 49.5 49t55 59.5t46.5 64t26 62.5q2 12 1.5 23.5t-4.5 18.5t-12.5 7t-21.5 -11q-14 -12 -27 -28.5
t-23.5 -34.5t-19.5 -36.5t-16 -34.5q-14 -32 -27.5 -68t-26.5 -71zM339 304q22 17 48.5 43.5t52 56.5t46.5 61t32 57q14 34 0 46t-41 -8q-23 -18 -44 -50.5t-39 -69t-32 -73t-23 -63.5zM78 241q-14 -9 -27 -22.5t-24 -29t-20 -32t-14 -30.5q-4 -10 -7.5 -21.5t-2.5 -18.5
t7 -8t21 10q32 25 59 53.5t53 54.5q4 11 8 22.5t9 23.5q-6 7 -14 9.5t-16.5 1t-16.5 -5t-15 -7.5z" />
    <glyph glyph-name="d_k" unicode="dk" horiz-adv-x="513" 
d="M90 -52q0 -13 4.5 -15t10.5 2t13 12.5t13 16.5q38 54 73 108.5t64 114.5q15 55 35.5 116t46 115t55 96.5t62.5 61.5q19 11 33.5 10.5t22.5 -9.5t9.5 -24.5t-5.5 -34.5q-11 -28 -34.5 -61t-51.5 -65t-57.5 -60t-51.5 -46q-5 -16 -11 -38t-12 -46t-12 -49t-11 -47
q23 40 51.5 80t60.5 68q8 6 17.5 11.5t17.5 6t13 -4.5t4 -19q-5 -31 -29 -57t-50 -43q-13 -8 -19.5 -31t-8 -50t0.5 -52t6 -37q5 -17 12.5 -19.5t18.5 5.5q19 13 39 43.5t38 65.5t32.5 69t22.5 55q2 5 7 4t3 -6q-9 -23 -24.5 -60t-35 -74.5t-41.5 -69t-45 -42.5
q-14 -5 -26 -2t-22 20q-8 13 -12.5 40.5t-3.5 57t9 55.5t25 37q22 14 42 35.5t27 46.5q5 16 1.5 15t-13.5 -9q-17 -14 -34.5 -34.5t-34 -44.5t-31.5 -49t-26 -47l-2 -15q0 -4 -6 -5.5t-13 -0.5t-12.5 4t-4.5 8q3 17 7.5 39t10.5 47q-12 -21 -26.5 -45t-30 -48t-31 -47
t-28.5 -42q-7 -9 -18 -21.5t-22 -18.5t-19.5 0t-11.5 33q-3 30 2.5 62.5t14 63t17 56t13.5 41.5q-6 -7 -18 -20.5t-27 -28.5t-31 -29t-28 -23t-23.5 -13.5t-20.5 -3t-14.5 9.5t-3.5 24q3 20 12.5 43t24.5 45t33.5 40t38.5 29q24 13 45.5 14t38.5 -13q22 60 46 121t49 106
q22 40 43 61t38 29q21 10 33.5 5.5t17.5 -16t5 -27.5t-4 -30q-8 -29 -31 -63t-51.5 -67t-58 -62.5t-50.5 -49.5q-11 -28 -26.5 -70.5t-30 -88t-25 -87.5t-10.5 -68zM189 283q21 21 49.5 49t55 59.5t46.5 64t26 62.5q2 12 1.5 23.5t-4.5 18.5t-12.5 7t-21.5 -11
q-14 -12 -27 -28.5t-23.5 -34.5t-19.5 -36.5t-16 -34.5q-14 -32 -27.5 -68t-26.5 -71zM338 303q20 16 46.5 42.5t52.5 57t47.5 62t32.5 56.5q14 34 0 46t-40 -9q-23 -18 -44.5 -50t-39.5 -69t-32 -73t-23 -63zM79 241q-14 -9 -27 -22.5t-24 -29t-20 -32t-14 -30.5
q-4 -10 -7.5 -21.5t-2.5 -18.5t7 -8t21 10q32 25 59 53.5t53 54.5q4 11 8 22.5t9 23.5q-6 7 -14 9.5t-16.5 1t-16.5 -5t-15 -7.5z" />
    <glyph glyph-name="d_l" unicode="dl" horiz-adv-x="448" 
d="M89 -52q0 -13 4.5 -15t10.5 2t13 12.5t13 16.5q38 54 73 108t64 114q16 59 39 119t49.5 112.5t56.5 92.5t61 59q15 10 32 10t25 -16q7 -14 4.5 -36.5t-16.5 -50.5q-13 -26 -36 -55.5t-50.5 -59t-55 -56.5t-49.5 -47q-11 -28 -22.5 -63.5t-21 -72.5t-16.5 -73t-8 -64
q-3 -57 11.5 -58.5t47.5 46.5q26 38 60 98t70 126q2 5 6.5 3t1.5 -7q-37 -70 -72.5 -132.5t-61.5 -99.5q-26 -36 -44.5 -46t-29.5 -0.5t-15.5 34.5t-1.5 60q3 29 9.5 64t15.5 73q-12 -21 -26.5 -45t-29.5 -48t-30.5 -47t-28.5 -41q-7 -9 -18 -21.5t-22 -18.5t-19.5 0
t-11.5 33q-3 30 2.5 62.5t14 63t17 56t13.5 41.5q-6 -7 -18 -20.5t-27 -28.5t-31 -29t-28 -23t-23.5 -13.5t-20.5 -3t-14.5 9.5t-3.5 24q3 20 12.5 43t24.5 45t33.5 40t38.5 29q24 13 45.5 14t38.5 -13q22 60 46 121t49 106q22 40 43 61t38 29q21 10 33.5 5.5t17.5 -16
t5 -27.5t-4 -30q-8 -29 -31 -63t-51.5 -67t-58 -62.5t-50.5 -49.5q-11 -28 -26.5 -70.5t-30 -88t-25 -87.5t-10.5 -68zM481 550q-25 -24 -47 -58t-41 -71.5t-34 -75.5t-27 -68q20 19 45.5 44.5t51 52.5t47 54.5t33.5 50.5q13 26 15 46.5t-3 31.5q-7 13 -19 7t-21 -14z
M188 283q21 21 49.5 49t55 59.5t46.5 64t26 62.5q2 12 1.5 23.5t-4.5 18.5t-12.5 7t-21.5 -11q-14 -12 -27 -28.5t-23.5 -34.5t-19.5 -36.5t-16 -34.5q-14 -32 -27.5 -68t-26.5 -71zM78 241q-14 -9 -27 -22.5t-24 -29t-20 -32t-14 -30.5q-4 -10 -7.5 -21.5t-2.5 -18.5t7 -8
t21 10q32 25 59 53.5t53 54.5q4 11 8 22.5t9 23.5q-6 7 -14 9.5t-16.5 1t-16.5 -5t-15 -7.5z" />
    <glyph glyph-name="r_r" unicode="rr" horiz-adv-x="398" 
d="M213 204q14 -13 33 -16t36 -4q5 0 5 -5l-11 -28q-4 -9 -10 -27l-13.5 -40.5t-15 -48t-13 -49t-8 -43t0.5 -30.5q4 -18 15.5 -14t22.5 15q12 12 30.5 43t38.5 70.5t39.5 84t35.5 85.5q2 4 6.5 2t2.5 -5q-16 -41 -36 -86t-40 -85.5t-39 -71.5t-32 -44q-18 -17 -35.5 -19.5
t-27.5 23.5q-8 21 -3.5 58t15 77t23 76t20.5 55q-27 1 -47 11q-16 -40 -33.5 -76t-34.5 -66t-33.5 -52.5t-29.5 -35.5q-18 -17 -37 -19.5t-29 23.5q-8 21 -5 50.5t11.5 59.5t19.5 58t19 47q-33 1 -59 18q-21 14 -22.5 35t7.5 41q5 10 14.5 18.5t18.5 11t15 -3.5t5 -24
q-2 -21 -7.5 -36.5t-15.5 -30.5q14 -13 35 -17t38 -5q5 0 5 -5l-11 -28q-5 -14 -15 -38.5t-18.5 -52t-14 -53.5t-1.5 -43q4 -18 17 -14t24 15q12 12 27.5 34.5t33 52t35 65t33.5 75.5l-4 3q-15 10 -21 26t-4 32t11 30t23 22q13 7 24 3t9 -26q-3 -22 -9.5 -41.5t-13.5 -36.5z
M205 209q7 18 13.5 38t8.5 35q2 14 -4.5 13t-13.5 -7q-17 -17 -16 -39.5t12 -39.5zM3 213q11 15 15.5 31t5.5 33q0 11 -2.5 12.5t-6 -2.5t-7.5 -10t-5 -9q-8 -19 -7 -32.5t7 -22.5z" />
    <glyph glyph-name="s_s" unicode="ss" horiz-adv-x="366" 
d="M272 242q2 -5 -1 -7.5t-6 2.5q-14 13 -26 4.5t-19 -22.5q-9 -17 -9.5 -35.5t3.5 -36.5t10 -35.5t10 -33.5q32 21 69 49t63 69q3 5 7 2t1 -7q-26 -42 -64.5 -71.5t-73.5 -52.5q4 -16 4.5 -36t-4 -39.5t-14 -35.5t-26.5 -24q-23 -11 -42 0t-21 34q-2 16 5 30t18 26t24.5 22
t24.5 17q-5 26 -14 54.5t-12 56.5q-26 -35 -57.5 -60t-62.5 -45q4 -16 3 -34t-7 -34.5t-17 -30.5t-28 -22t-30.5 -6.5t-21 10.5t-8 22.5t9.5 29.5q13 19 33 34t35 25q-4 21 -13 43t-15 44t-5 44t16 43q7 10 18 16t22 7.5t21 -2.5t16 -13q4 -5 0.5 -8t-6.5 2q-14 13 -26 4.5
t-19 -22.5q-9 -17 -8.5 -35.5t5.5 -36.5t12 -35.5t11 -33.5q31 20 63 46t58 64q0 25 16 47q7 10 18 16t22 7t21 -3t17 -13zM207 51q-11 -8 -22.5 -17t-21 -19.5t-15.5 -22t-5 -24.5q2 -17 16 -25.5t30 6.5q8 8 12.5 21t6 27t1 28.5t-1.5 25.5zM29 50q-14 -9 -33.5 -24.5
t-29.5 -33.5q-6 -11 -5.5 -21t6.5 -15t15.5 -4t20.5 12q17 16 22.5 40t3.5 46z" />
    <glyph glyph-name="a_r" unicode="ar" horiz-adv-x="438" 
d="M254 203q14 -13 36.5 -15.5t39.5 -3.5q5 0 5 -5l-11 -28q-5 -14 -15 -38.5t-18.5 -52t-14 -53.5t-1.5 -43q4 -18 17 -14t24 15q12 12 28.5 35t34 53t35 66.5t33.5 77.5q2 4 6.5 2t2.5 -5q-16 -41 -34 -78t-35.5 -68t-34.5 -54t-30 -36q-18 -17 -37 -19.5t-29 23.5
q-8 21 -5 50.5t11.5 59.5t19.5 58t19 47q-15 1 -28.5 3t-25.5 8q-8 -19 -21 -43t-28 -50t-30.5 -52t-28.5 -47q-5 -8 -14 -20.5t-19 -21t-20.5 -8t-17.5 18.5q-7 21 -2.5 49t14 57.5t20.5 58t18 51.5q-6 -5 -18.5 -18t-26.5 -29t-29 -31t-25 -23q-5 -4 -12.5 -8.5t-16 -7
t-16.5 -1.5t-13 8q-6 10 -5 26q2 20 11 43t22.5 44.5t31 39t37.5 28.5q8 4 20 8t24.5 5t23.5 -2t17 -12q2 -5 -2 -8t-7 2q-4 6 -11.5 7.5t-16 0t-17 -5t-13.5 -6.5q-14 -9 -26.5 -22.5t-23 -29t-18.5 -32t-13 -30.5q-8 -24 -8 -36q0 -8 2 -11t5.5 -2.5t8.5 3.5t10 7
q31 24 53.5 53.5t51.5 52.5q16 11 28 5.5t7 -21.5q-6 -20 -16 -43t-20.5 -48.5t-18.5 -51.5t-10 -50q-1 -22 4.5 -23.5t13 6t15.5 20t13 19.5q29 45 57.5 93.5t46.5 93.5q-20 14 -22.5 34.5t6.5 40.5q5 10 14.5 19.5t18.5 13.5t15.5 -1t5.5 -23q0 -7 -2.5 -18t-6 -22.5
t-7 -21t-6.5 -13.5zM246 210q3 6 7 15.5t7 20t5.5 20t2.5 15.5q0 11 -3 11.5t-7 -4.5t-8 -12t-5 -10q-8 -19 -6.5 -33t7.5 -23z" />
    <glyph glyph-name="c_r" unicode="cr" horiz-adv-x="382" 
d="M191 204q14 -13 36 -16t39 -4q5 0 5 -5l-11 -28q-5 -14 -15 -38.5t-18.5 -52t-14 -53.5t-1.5 -43q4 -18 17 -14t24 15q12 12 28.5 35t34 53t35 66.5t33.5 77.5q2 4 6.5 2t2.5 -5q-16 -41 -34 -78t-35.5 -68t-34.5 -54t-30 -36q-18 -17 -37 -19.5t-29 23.5q-8 21 -5 50.5
t11.5 59.5t19.5 58t19 47q-16 1 -29 3t-26 9q-10 -19 -22.5 -42t-27.5 -45t-31 -41t-34 -31q-12 -9 -27 -14.5t-29.5 -6t-26.5 4.5t-19 18q-11 20 -7.5 53t16.5 66t32.5 59.5t41.5 34.5q19 7 39 2.5t30 -23.5q2 -5 -2.5 -7.5t-6.5 2.5q-8 14 -20.5 16.5t-25.5 -4.5
q-17 -9 -31 -30t-23.5 -46.5t-14.5 -51t-3 -43.5q1 -18 8 -26.5t17 -10t22 3t24 12.5q17 12 33 30.5t30.5 40t27 44l22.5 40.5q-20 14 -21 34.5t8 40.5q9 17 19.5 26t19 8t13 -11t0.5 -30q-1 -6 -3.5 -14t-6 -16.5t-6.5 -16t-6 -11.5zM184 213q3 4 6 11t6 14.5t5 14.5t3 11
q5 27 -1.5 28t-18.5 -26q-8 -19 -7 -31.5t7 -21.5z" />
    <glyph glyph-name="d_r" unicode="dr" horiz-adv-x="475" 
d="M90 -49q0 -13 4.5 -15.5t10.5 1t13 11.5t13 16q16 23 35.5 52.5t39 60.5t37 62t30.5 57q-20 14 -21 34.5t8 40.5q8 16 19 24.5t19.5 8.5t13 -9.5t0.5 -29.5q-3 -17 -8.5 -30t-13.5 -29q14 -13 35 -17t38 -5q5 0 5 -5l-11 -28q-5 -14 -15 -38.5t-18.5 -52t-14 -53.5
t-1.5 -43q4 -18 17 -14t24 15q12 12 28.5 35t34 53t35 66.5t33.5 77.5q2 4 6.5 2t2.5 -5q-16 -41 -34 -78t-35.5 -68t-34.5 -54t-30 -36q-18 -17 -37 -19.5t-29 23.5q-8 21 -5 50.5t11.5 59.5t19.5 58t19 47q-16 1 -28.5 3.5t-24.5 10.5q-9 -18 -25 -47t-35.5 -61t-40.5 -64
t-38 -56q-7 -9 -18 -21.5t-22 -18t-19.5 1t-11.5 33.5q-3 30 2.5 62.5t14 63t17 56t13.5 41.5q-6 -7 -18 -20.5t-27 -28.5t-31 -29t-28 -23t-23.5 -13.5t-20.5 -3t-14.5 9.5t-3.5 24q3 20 12.5 43t24.5 45t33.5 40t38.5 29q24 13 45.5 14t38.5 -13q22 60 46 121t49 106
q22 40 43 61t38 29q21 10 33.5 5.5t17.5 -16t5 -27.5t-4 -30q-8 -29 -31 -63t-51.5 -67t-58 -62.5t-50.5 -49.5q-11 -28 -26.5 -70t-30 -87t-25 -86.5t-10.5 -67.5zM189 283q21 21 49.5 49t55 59.5t46.5 64t26 62.5q2 12 1.5 23.5t-4.5 18.5t-12.5 7t-21.5 -11
q-14 -12 -27 -28.5t-23.5 -34.5t-19.5 -36.5t-16 -34.5q-14 -32 -27.5 -68t-26.5 -71zM79 241q-14 -9 -27 -22.5t-24 -29t-20 -32t-14 -30.5q-4 -10 -7.5 -21.5t-2.5 -18.5t7 -8t21 10q32 25 59 53.5t53 54.5q4 11 8 22.5t9 23.5q-6 7 -14 9.5t-16.5 1t-16.5 -5t-15 -7.5z
M283 213q5 10 11 25t9 29q5 26 -1.5 27t-18.5 -26q-8 -19 -7 -32.5t7 -22.5z" />
    <glyph glyph-name="e_r" unicode="er" horiz-adv-x="385" 
d="M193 204q14 -13 36 -16t39 -4q5 0 5 -5l-11 -28q-5 -14 -15 -38.5t-18.5 -52t-14 -53.5t-1.5 -43q4 -18 17 -14t24 15q12 12 28.5 35t34 53t35 66.5t33.5 77.5q2 4 6.5 2t2.5 -5q-16 -41 -34 -78t-35.5 -68t-34.5 -54t-30 -36q-18 -17 -37 -19.5t-29 23.5q-8 21 -5 50.5
t11.5 59.5t19.5 58t19 47q-16 1 -29.5 3t-26.5 9q-7 -12 -17.5 -28.5t-23.5 -34.5t-28 -36.5t-30 -33.5q-10 -11 -23 -20.5t-26.5 -14.5t-26 -4.5t-21.5 11.5q-10 11 -14 26t-4.5 31t2 32t5.5 29q4 15 11.5 32.5t17.5 33t23 28.5t29 19q26 10 37 -4t2 -37q-6 -15 -16 -29
t-22.5 -27t-26.5 -24.5t-27 -19.5q-3 -17 -4 -37t9 -35q6 -10 14.5 -11.5t17.5 2.5t18 11t17 15q15 15 30 33.5t28 36.5t23.5 34.5l17.5 27.5q-19 14 -20 34.5t8 39.5q10 21 22 29t20.5 4t11.5 -18t-4 -37q-7 -20 -20 -43zM7 133q22 14 45.5 39t34.5 51q5 14 1 22.5
t-21 -2.5q-13 -8 -22.5 -21t-17 -28t-12.5 -31t-8 -30zM185 211q11 19 19 42q4 13 5 23t-1.5 13.5t-8 -1.5t-13.5 -22q-8 -19 -7.5 -32.5t6.5 -22.5z" />
    <glyph glyph-name="i_r" unicode="ir" horiz-adv-x="319" 
d="M128 204q14 -13 36 -16t39 -4q5 0 5 -5l-11 -28q-5 -14 -15 -38.5t-18.5 -52t-14 -53.5t-1.5 -43q4 -18 17 -14t24 15q12 12 28.5 35t34 53t35 66.5t33.5 77.5q2 4 6.5 2t2.5 -5q-16 -41 -34 -78t-35.5 -68t-34.5 -54t-30 -36q-18 -17 -37 -19.5t-29 23.5q-8 21 -5 50.5
t11.5 59.5t19.5 58t19 47q-16 1 -29.5 3t-26.5 9q-11 -18 -25 -40.5t-28.5 -45t-29.5 -44.5t-28 -39q-12 -16 -24 -21.5t-21 -2.5t-13.5 14.5t-1.5 29.5q3 20 12.5 52.5t20.5 63t20.5 52.5t11.5 22q1 3 6.5 4t12 0t10.5 -4.5t2 -9.5q-8 -21 -19.5 -46.5t-22 -51.5
t-18.5 -51.5t-10 -46.5q-1 -12 1.5 -15t7 -0.5t9.5 7.5t9 10q12 16 27 37.5t29.5 44.5t28.5 46t25 41q-19 14 -20 34.5t8 39.5q10 19 21.5 27.5t20.5 6.5t13 -13.5t-1 -31.5q-4 -14 -10.5 -28t-13.5 -26zM121 211q7 12 12.5 25t8.5 24q7 26 -1 29.5t-20 -23.5
q-8 -19 -7 -32.5t7 -22.5zM45 278q17 0 15 -16q-2 -6 -7 -10.5t-13 -4.5q-7 0 -11 4.5t-3 10.5q1 7 7 11.5t12 4.5z" />
    <glyph glyph-name="t_t" unicode="tt" horiz-adv-x="342" 
d="M-140 323q17 20 41.5 28t48.5 10q16 2 43.5 1.5t61.5 -1.5q5 14 10.5 26.5t11.5 25.5q2 6 7.5 7.5t11 0t9.5 -5.5t2 -9l-17 -47q32 -1 65.5 -2t67.5 -3l12 30t13 29q2 6 7.5 7.5t11 0t9.5 -5.5t2 -9q-5 -14 -10 -27.5t-10 -26.5q49 -2 89.5 -2t63.5 2q58 6 73 30
q3 2 6.5 -0.5t1.5 -6.5q-12 -14 -32.5 -22t-46.5 -11t-68 -3t-91 2q-5 -15 -11 -29.5t-12 -30.5q-15 -39 -33.5 -90t-35.5 -102t-29 -95t-14 -70q-1 -18 3.5 -23t12 -3t16.5 9.5t15 14.5q23 26 48.5 62t49.5 74t44 74.5t34 64.5q2 5 7 3.5t2 -6.5q-14 -28 -34.5 -64.5
t-44.5 -75t-49.5 -74.5t-48.5 -63q-16 -18 -30.5 -26t-25.5 -5t-17 16.5t-4 38.5q2 32 15 80t30 102q-15 -26 -32.5 -54.5t-35.5 -55.5t-36 -52t-35 -44q-16 -18 -30.5 -26t-25.5 -5t-17 16.5t-4 38.5q2 28 12.5 70t25 88.5t31 93.5t30.5 86q7 17 13 35.5t13 35.5
q-32 2 -58 2t-43 -1q-25 -2 -46.5 -10t-37.5 -25q-2 -2 -5 1t-1 6zM60 281q-15 -39 -33.5 -90t-35.5 -102t-29 -95t-14 -70q-1 -18 3.5 -23t12 -3t16.5 9.5t15 14.5q21 24 43.5 55t44 65t41 67.5t34.5 62.5q10 29 19.5 56t18.5 51l23 64l-133 6z" />
    <glyph glyph-name=".notdef" horiz-adv-x="250" 
 />
    <glyph glyph-name=".null" horiz-adv-x="0" 
 />
    <glyph glyph-name="nonmarkingreturn" unicode="&#xd;" horiz-adv-x="250" 
 />
    <glyph glyph-name="NULL" horiz-adv-x="0" 
 />
    <glyph glyph-name="NULL" horiz-adv-x="0" 
 />
    <glyph glyph-name="space" unicode=" " horiz-adv-x="250" 
 />
    <glyph glyph-name="exclam" unicode="!" horiz-adv-x="277" 
d="M60 60q-2 -7 -10.5 -5t-5.5 10l177 484q1 3 7 4.5t13 1t12 -3t3 -7.5zM37 38q8 0 11 -5q6 -6 6 -12q0 -5 -6 -13q-4 -4 -11 -4q-5 0 -7.5 1t-4.5 3q-5 5 -5 13t5 12q5 5 12 5z" />
    <glyph glyph-name="quotedbl" unicode="&#x22;" horiz-adv-x="158" 
d="M63 321q8 -8 5 -16.5t-8 -15.5q-14 -13 -20.5 -17t-8.5 -2q-1 0 1 3t5 6.5t5.5 7.5t2.5 6q-8 4 -10.5 12.5t4.5 15.5q4 6 12 5.5t12 -5.5zM122 321q8 -8 5 -16.5t-8 -15.5q-14 -13 -20.5 -17t-8.5 -2q-1 0 1 3t5 6.5t5.5 7.5t2.5 6q-8 4 -10.5 12.5t4.5 15.5q4 6 12 5.5
t12 -5.5z" />
    <glyph glyph-name="numbersign" unicode="#" horiz-adv-x="333" 
d="M33 135q-6 0 -6 6q0 4 6 4h43l25 65h-43q-5 0 -5 4q0 6 5 6h47l48 124q0 4 5 2h16q6 0 4 -7l-46 -119h75l48 124q0 4 4 2h16q6 0 4 -7l-46 -119h65q5 0 5 -6q0 -4 -5 -4h-69l-25 -65h69q4 0 4 -5t-4 -5h-73l-53 -137q-3 -3 -6 -3h-16q-6 0 -4 6l52 134h-75l-53 -137
q-2 -3 -4 -3h-16q-2 0 -4 2t0 4l51 134h-39zM102 145h75l26 65h-75z" />
    <glyph glyph-name="dollar" unicode="$" horiz-adv-x="406" 
d="M384 478q-2 -12 -7.5 -23t-13.5 -21q-7 -9 -15.5 -6t-3.5 12q2 3 5 4t6.5 2.5t8 4.5t8.5 12q8 19 6 34.5t-11 27.5t-24 19t-31 9l-67 -214q16 -19 31.5 -39t27.5 -42t19.5 -46.5t7.5 -52.5q0 -62 -37.5 -103.5t-97.5 -57.5q-27 -8 -54 -6l-12 -41q-2 -6 -6 -8t-7.5 -1
t-6 4.5t-0.5 9.5l13 38q-24 5 -44.5 16.5t-34.5 32.5q-15 20 -20.5 44t-0.5 48q5 23 17.5 42.5t30.5 32.5q8 7 15 2t0 -13q-3 -3 -6.5 -2.5t-7 0t-8 -3t-10.5 -9.5q-26 -32 -26 -70.5t22 -67.5q14 -19 33.5 -29.5t42.5 -14.5q24 75 48.5 153t47.5 153q-19 20 -33 39.5
t-21 48.5q-8 34 -2.5 65t23 53.5t44.5 35.5t62 12l13 46q3 11 13 8.5t7 -13.5l-13 -43q15 -2 29 -9t24 -17.5t14.5 -25t1.5 -30.5zM293 166q-5 38 -21 71t-38 58q-22 -72 -46 -147t-44 -147q13 0 26 1.5t26 6.5q26 9 45.5 25t32 37t17.5 45t2 50zM234 353q15 49 29 99.5
t29 101.5q-40 -1 -62 -23t-28.5 -53.5t2.5 -65.5t30 -59z" />
    <glyph glyph-name="percent" unicode="%" horiz-adv-x="359" 
d="M322 576q7 3 11.5 -2t0.5 -13q-33 -62 -59 -111t-48.5 -91.5t-43 -81.5t-42 -81t-46 -90t-55.5 -108q-3 -5 -7 -6.5t-7.5 -0.5t-5 4t1.5 8q32 60 58 108.5t48.5 90.5t43 81.5t42 82t46.5 91t56 109.5l-18 -10t-19.5 -10t-23.5 -11t-31 -13q-2 -28 -11.5 -55t-29.5 -51
q-10 -11 -23.5 -19.5t-30.5 -6.5q-17 1 -26.5 11.5t-13.5 25.5t-3.5 31.5t3.5 29.5q3 12 7.5 26t12 26.5t17.5 22t23 13.5q9 12 25.5 18t30.5 -5q12 -10 16 -26t3 -34q17 6 29.5 12t23 12t21 11.5t24.5 11.5zM274 190q9 -7 13.5 -19.5t5 -26.5t-1 -28.5t-4.5 -24.5
q-10 -43 -35 -73q-11 -11 -24.5 -20t-29.5 -8q-17 2 -26.5 13t-13 26t-3.5 31.5t2 28.5q3 12 7.5 26t12 26.5t18 22.5t23.5 14q9 13 25.5 18t30.5 -6zM273 98q1 7 2.5 19.5t1.5 25.5t-2.5 24.5t-7.5 17.5q-8 8 -17 4.5t-14 -9.5h6q2 0 2 -3.5t-3 -3.5q-8 0 -12 -1
q-3 -4 -5.5 -10t-4 -13t-1 -14t4.5 -11q3 -5 8 -5.5t10 1.5q7 3 4.5 8t2.5 8q5 2 8.5 -1.5t-1.5 -9.5q-6 -9 -16.5 -11t-19 2.5t-13 15.5t1.5 28q-14 -14 -21 -36t-11 -42q-2 -8 -2.5 -21.5t1.5 -27t7.5 -24t16.5 -12.5q16 -2 29.5 10t20.5 24q10 16 15.5 34.5t8.5 32.5z
M207 518q-14 -4 -27.5 -4t-24 5t-15.5 14.5t-1 25.5q-15 -15 -22.5 -36t-10.5 -41q-1 -8 -1.5 -21.5t1.5 -27t7.5 -24.5t16.5 -13q16 -2 29.5 10t20.5 24q9 16 15.5 36.5t11.5 51.5zM207 524q0 17 -1 34.5t-9 25.5q-7 8 -17 3.5t-15 -9.5h6q3 0 3 -2.5t-3 -2.5q-5 0 -13 -2
q-9 -16 -8.5 -26.5t8 -16.5t20.5 -7t29 3z" />
    <glyph glyph-name="ampersand" unicode="&#x26;" horiz-adv-x="505" 
d="M320 87q19 -24 52 -44t72 -20q10 0 14.5 2t7.5 4.5t4.5 5t5.5 2.5q10 1 8.5 -7.5t-12.5 -10.5q-44 -9 -86 10.5t-70 51.5q-16 -29 -38.5 -49t-48.5 -31t-54 -12.5t-55 7.5q-29 9 -49.5 27t-32.5 41t-16 50.5t1 54.5q7 37 22.5 66t37.5 52t48.5 41.5t54.5 34.5
q-3 24 -5.5 54.5t1.5 60.5t16 56t39 41q24 14 49.5 7.5t37.5 -32.5t6 -59t-22 -59q-21 -33 -52 -57.5t-57 -44.5q5 -30 16.5 -62t27 -63.5t34 -60.5t38.5 -52q19 32 29.5 76t6.5 83q-1 9 -3.5 13t-5.5 6t-5.5 4t-2.5 6q-1 10 8.5 10t11.5 -11q10 -50 -0.5 -100t-33.5 -92z
M311 86q-20 23 -38.5 52.5t-34.5 61t-27.5 64t-17.5 62.5q-22 -16 -43.5 -33t-39 -36.5t-30 -42t-17.5 -49.5q-5 -24 -2.5 -48.5t11.5 -45.5t24.5 -38t37.5 -26t47 -8t49 11.5t45 30t36 45.5zM193 367q24 13 47.5 32t40.5 42t24.5 49.5t-0.5 55.5q-7 23 -25 28.5t-38 -5.5
q-24 -14 -36 -38t-16 -52.5t-2 -58t5 -53.5z" />
    <glyph glyph-name="quotesingle" unicode="'" horiz-adv-x="99" 
d="M63 318q8 -8 5 -16.5t-8 -15.5q-14 -13 -20.5 -17t-8.5 -2q-1 0 1 3t5 6.5t5.5 7.5t2.5 6q-8 4 -10.5 12.5t4.5 15.5q4 6 12 5.5t12 -5.5z" />
    <glyph glyph-name="parenleft" unicode="(" horiz-adv-x="294" 
d="M93 293q-11 -30 -23 -70.5t-20 -83t-9 -82.5t11 -67q2 -5 -2.5 -7t-6.5 2q-15 33 -19.5 72.5t-1 80.5t13.5 82t24 79q15 40 34.5 79.5t45 75t57 64t70.5 45.5q5 2 7 -2.5t-3 -6.5q-30 -14 -57 -45.5t-50 -69.5t-41 -77t-30 -69z" />
    <glyph glyph-name="parenright" unicode=")" horiz-adv-x="294" 
d="M201 253q11 30 23 70.5t20 83t9 82.5t-11 67q-2 5 2.5 7t6.5 -3q16 -30 20.5 -69t1 -80.5t-14 -84t-23.5 -80.5q-15 -39 -34 -78.5t-44.5 -74.5t-57.5 -63.5t-72 -46.5q-4 -2 -6 2.5t3 6.5q30 14 57 45t50 69t41 77.5t29 69.5z" />
    <glyph glyph-name="asterisk" unicode="*" horiz-adv-x="141" 
d="M74 501q5 8 14 6q3 -2 5 -5.5t0 -7.5l-6 -19l21 6q8 2 12 -8q2 -9 -8 -11l-23 -7l13 -19q8 -8 -1 -13q-3 -3 -7.5 -2.5t-6.5 3.5l-11 15l-8 -23q-1 -4 -5 -6t-8 0q-8 2 -6 13l8 23l-24 -7q-3 -1 -6.5 1t-5.5 7q-2 9 8 11l26 8l-15 20q-5 7 1 13q8 8 14 -1l13 -16z" />
    <glyph glyph-name="plus" unicode="+" horiz-adv-x="254" 
d="M26 131q-6 0 -6 4q0 6 6 6h73l31 92q2 8 12 6t5 -12l-26 -86l71 1q6 0 6 -5t-5 -5l-76 -1l-32 -97q-4 -11 -12 -7q-5 1 -7 4.5t0 6.5l30 93h-70z" />
    <glyph glyph-name="comma" unicode="," horiz-adv-x="119" 
d="M53 38q8 -8 5 -16.5t-8 -15.5q-14 -13 -20.5 -17t-8.5 -2q-1 0 1 3t5 6.5t5.5 7.5t2.5 6q-8 4 -10.5 12.5t4.5 15.5q4 6 12 5.5t12 -5.5z" />
    <glyph glyph-name="hyphen" unicode="-" horiz-adv-x="300" 
d="M28 105q-8 0 -7.5 7t7.5 7h185q8 0 8 -7t-8 -7q-38 0 -65.5 -0.5t-48.5 -0.5t-38 0.5t-33 0.5z" />
    <glyph glyph-name="period" unicode="." horiz-adv-x="114" 
d="M36 43q7 0 12 -5q2 -3 4 -5.5t2 -7.5q0 -7 -6 -11q-5 -5 -12 -5q-6 0 -11 5q-6 3 -6 11q0 7 6 13q5 5 11 5z" />
    <glyph glyph-name="slash" unicode="/" horiz-adv-x="266" 
d="M241 565q4 0 4 -3q0 -1 -8 -23.5t-21 -59.5t-30.5 -84t-36 -97.5t-36.5 -100t-33.5 -90.5t-26 -70.5t-14.5 -39.5q-3 -3 -6 -3h-7q-7 0 -5 7l207 562q3 3 4 3z" />
    <glyph glyph-name="zero" unicode="0" horiz-adv-x="340" 
d="M328 331q-2 -5 -6.5 -4.5t-4.5 5.5q4 42 -1.5 71t-16.5 48q-20 32 -46.5 31t-55.5 -21q-34 -24 -60.5 -63t-45.5 -84t-30 -92t-13 -86q-1 -55 15 -88q20 -40 49.5 -37t58.5 34q26 29 47 66t36.5 76.5t25.5 79t15 73.5q1 5 6.5 4.5t4.5 -6.5q-11 -80 -43.5 -161
t-84.5 -140q-18 -17 -38 -27.5t-40 -12t-38 7.5t-32 32q-20 38 -19 99q3 45 17 100.5t39 107.5t60.5 92.5t81.5 55.5q29 9 55.5 0.5t43.5 -36.5q12 -20 17.5 -50.5t2.5 -74.5z" />
    <glyph glyph-name="one" unicode="1" horiz-adv-x="311" 
d="M16 -17q-6 0 -5.5 5t5.5 5h54q6 17 20.5 55t34.5 87q17 44 35.5 92.5t36 94.5t32.5 86t24 67q-16 -13 -33 -28t-31.5 -30.5t-24.5 -29.5t-10 -25q0 -5 -5.5 -5t-5.5 5q1 16 17.5 37.5t39 43t46 39.5t37.5 27q5 4 11.5 5.5t6.5 -7.5q-2 -11 -16 -50.5t-34.5 -93.5
t-44.5 -115.5t-45 -116.5q-19 -46 -33 -82.5t-21 -55.5q20 1 37 2t25 3q5 2 6.5 -3t-3.5 -7q-11 -3 -31.5 -4.5t-43.5 -1.5t-45.5 0.5t-35.5 0.5z" />
    <glyph glyph-name="two" unicode="2" horiz-adv-x="473" 
d="M433 485q17 -21 23.5 -46.5t5 -52t-10 -52t-21.5 -46.5q-28 -47 -75 -88t-99.5 -76t-105.5 -62.5t-93 -45.5q15 -1 43.5 -2.5t63 -2t70.5 1.5t66.5 7.5t51.5 16t25 26.5q2 5 7 3.5t4 -6.5q-5 -20 -29.5 -32t-60.5 -18t-78 -8t-82 -1t-73 3.5t-50 4.5q-3 0 -4.5 3.5
t2.5 5.5q2 2 16 7q17 8 48.5 24t71 38t81.5 50t79.5 60.5t67 69t41.5 76.5q10 31 7 69t-25 64q-24 29 -57 32t-65.5 -10t-60.5 -36t-41 -46q-9 -16 -15 -35t-6.5 -38t6 -37t22.5 -31q4 -3 1 -7t-8 -2q-17 15 -24.5 34.5t-7.5 41t6 42.5t16 38q19 30 53 55.5t72.5 37.5
t76.5 7t65 -37z" />
    <glyph glyph-name="three" unicode="3" horiz-adv-x="465" 
d="M437 492q18 -17 17 -37t-14.5 -40.5t-36 -40.5t-46 -37t-45 -30.5t-33.5 -19.5q29 -17 55.5 -40t35.5 -49q17 -46 3 -94t-44 -80q-25 -27 -62 -44.5t-85 -20.5q-69 -2 -114.5 34.5t-56.5 105.5q-1 5 4.5 5.5t6.5 -4.5q5 -32 19 -58t36 -43.5t50.5 -24t61.5 -0.5t60 21.5
t47 37.5q15 16 26 36t16 42t4 44t-9 42q-9 25 -29 46.5t-50 37.5q-5 2 -4.5 4.5t4.5 4.5q17 10 46.5 30.5t57 45.5t45.5 52t11 50q-7 24 -29 28t-48.5 -3t-51 -19.5t-36.5 -21.5q-5 -2 -7.5 2t1.5 7q16 12 42 24t53.5 19t54 5.5t44.5 -17.5z" />
    <glyph glyph-name="four" unicode="4" horiz-adv-x="396" 
d="M369 482q-34 -48 -78.5 -107.5t-89.5 -117.5q-42 -55 -79.5 -101.5t-59.5 -72.5q56 6 113.5 5.5t114.5 4.5q15 41 30.5 79.5t29.5 74.5q1 3 7 3.5t13 0t11.5 -3t3.5 -6.5l-57 -145l19 4q6 2 7 -3.5t-4 -6.5l-25 -5l-53 -139q-10 -25 -19 -49t-17 -44q-1 -2 -7.5 -3.5
t-13.5 -1.5t-12 2.5t-3 7.5l28 73q14 36 28.5 74t28.5 77q-32 -2 -66.5 -2.5t-69.5 -1t-68.5 -3.5t-62.5 -10q-2 -1 -6 1t1 7q7 8 21.5 25t33.5 40.5t42 52t47 60.5q46 60 93 122.5t83 113.5l6.5 1.5t14 1.5t13 -1.5t2.5 -6.5z" />
    <glyph glyph-name="five" unicode="5" horiz-adv-x="386" 
d="M186 -6q32 19 57.5 51.5t41.5 70t19.5 76t-9.5 70.5q-13 34 -50 44q-21 5 -44 1t-45.5 -12.5t-43 -19t-37.5 -17.5q-5 -2 -8.5 -3.5t-7.5 -3.5q-2 -1 -5 1t-2 6l71 168q7 16 12.5 31t12.5 29q0 2 5 2q42 -1 85 -1h86h47q5 0 5 -5.5t-5 -5.5h-47h-70t-73 1
q-6 -14 -14 -32.5t-16 -39.5q-14 -30 -28 -63t-25 -61q41 20 86.5 32.5t90.5 2.5q31 -9 47 -33q24 -35 20.5 -83t-25 -95t-58 -85t-78.5 -51q-49 -14 -93 2t-77 51q-2 4 1.5 7.5t7.5 -0.5q17 -19 37 -32t41.5 -18t44 -2t43.5 17z" />
    <glyph glyph-name="six" unicode="6" horiz-adv-x="357" 
d="M343 489q5 -1 4 -5.5t-7 -3.5q-30 6 -61 -3t-59.5 -26.5t-53 -40.5t-40.5 -46q-39 -51 -61 -122q59 18 103 6q50 -12 78 -43.5t35.5 -71t-2.5 -80.5t-34.5 -70.5t-61.5 -41.5t-84 6q-24 10 -41 29t-27.5 41.5t-15.5 47.5t-5 48q0 85 29 161.5t86 134.5q21 22 46 39.5
t53 28.5t58 14.5t61 -2.5zM242 27q11 26 12.5 55.5t-7 56.5t-26.5 49.5t-45 34.5q-23 9 -51 11.5t-64 -5.5q-8 -28 -12 -56.5t-4 -59.5q2 -22 6.5 -43.5t12 -41t19 -35.5t28.5 -26q22 -15 41.5 -15.5t36.5 9.5t30.5 28t22.5 38z" />
    <glyph glyph-name="seven" unicode="7" horiz-adv-x="392" 
d="M20 399q-2 -5 -6.5 -2.5t-2.5 7.5q15 26 40 41.5t56.5 24t66 12t68.5 6.5q16 0 34.5 2t36.5 5t34 5.5t28 4.5q7 0 7 -6q0 -8 -17 -30.5t-45 -57.5q-19 -25 -42.5 -54.5t-47.5 -62.5q10 0 26.5 -1.5t33.5 -2.5t31.5 -2.5t21.5 -1.5q5 0 5.5 -4.5t-4.5 -5.5q4 1 -28.5 2
t-92.5 6q-32 -43 -62 -88.5t-54 -90.5t-38.5 -87t-14.5 -77q0 -3 -5.5 -4.5t-12.5 -2t-12.5 0.5t-5.5 5q1 36 16 78.5t38.5 88t53 91.5t60.5 89h-27q-39 0 -68.5 -6t-29.5 -24q0 -5 -5.5 -5t-5.5 5q0 12 9 20t24 12.5t34.5 6.5t41.5 2h17t17 -1q29 38 55 72.5t48 61.5
q17 21 28.5 36t17.5 22q-22 -5 -47 -7.5t-52 -4.5q-33 -2 -66.5 -5.5t-64 -11.5t-55 -22.5t-37.5 -38.5z" />
    <glyph glyph-name="eight" unicode="8" horiz-adv-x="369" 
d="M291 478q4 -3 0 -6t-8 0q-14 20 -37 27.5t-43 -5.5q-24 -16 -31 -49t-4 -70.5t12 -73t17 -56.5l44 28q35 25 61 56t37 67q23 65 -12 136q-2 5 2.5 7.5t7.5 -2.5q19 -38 21.5 -75t-9.5 -70q-12 -38 -39 -69.5t-63 -57.5q-11 -8 -23 -15.5t-24 -15.5q12 -29 21.5 -60
t12.5 -61.5t-2 -58t-22 -48.5q-20 -25 -47 -36t-54.5 -11t-51.5 11.5t-36 32t-9.5 49.5t28.5 65t57.5 59.5t69.5 48.5q-11 27 -21.5 65t-14 77t3.5 74.5t31 57.5q14 11 31.5 14.5t35 0.5t33 -12.5t25.5 -23.5zM170 214q-37 -24 -66.5 -47t-55.5 -57q-26 -35 -27.5 -62
t12 -44.5t38 -25.5t50 -4.5t47.5 19.5t31 46q6 19 4.5 40.5t-6.5 44t-12.5 45.5t-14.5 45z" />
    <glyph glyph-name="nine" unicode="9" horiz-adv-x="359" 
d="M-4 -26q-5 1 -3.5 6t6.5 3q29 -6 60.5 3t61 27t55.5 41t44 46q42 51 68 121q-30 -9 -56 -10t-47 4q-50 12 -75 44t-30.5 71.5t7 80t38.5 70t64 41.5t84 -6q24 -11 39.5 -29t25 -40.5t12.5 -47.5t2 -49q-4 -82 -39 -159.5t-93 -136.5q-23 -21 -49.5 -39t-55 -29t-59 -14.5
t-60.5 2.5zM126 437q-14 -27 -17.5 -56.5t3.5 -56.5t23.5 -49.5t43.5 -34.5q22 -9 49.5 -11.5t64.5 5.5q20 57 23 116q0 47 -12.5 85t-42.5 62q-21 15 -41.5 15t-38 -10t-31.5 -27.5t-24 -37.5z" />
    <glyph glyph-name="colon" unicode=":" horiz-adv-x="183" 
d="M49 44q7 0 12 -6q4 -6 4 -12t-4 -12q-2 -2 -5.5 -3.5t-6.5 -1.5q-4 0 -7 1.5t-6 3.5q-4 4 -4 12t4 12q6 6 13 6zM96 175q5 0 11 -6q5 -3 5 -11q0 -7 -5 -12q-5 -6 -11 -6q-7 0 -13 6q-4 4 -4 12t4 11q8 6 13 6z" />
    <glyph glyph-name="semicolon" unicode=";" horiz-adv-x="179" 
d="M90 186q5 0 13 -6q4 -4 4 -11q0 -5 -1 -7.5t-3 -4.5q-6 -6 -13 -6q-8 0 -12 6q-4 4 -4 12t4 11q6 6 12 6zM53 38q8 -8 5 -16.5t-8 -15.5q-14 -13 -20.5 -17t-8.5 -2q-1 0 1 3t5 6.5t5.5 7.5t2.5 6q-8 4 -10.5 12.5t4.5 15.5q4 6 12 5.5t12 -5.5z" />
    <glyph glyph-name="less" unicode="&#x3c;" horiz-adv-x="261" 
d="M75 153l103 -148q2 -2 0.5 -5t-3.5 -1l-153 151q-4 4 1 7l186 121q3 2 4 -1t-1 -5z" />
    <glyph glyph-name="equal" unicode="=" horiz-adv-x="323" 
d="M76 140q-6 0 -6 7q0 8 6 8q33 -1 64.5 -0.5t63.5 0.5h59q6 0 6 -8q0 -7 -6 -7h-187zM26 65q-6 0 -6 8q0 7 6 7q33 -1 64 -1h63h60q6 0 6 -6q0 -8 -6 -8h-187z" />
    <glyph glyph-name="greater" unicode="&#x3e;" horiz-adv-x="234" 
d="M159 126l-103 148q-2 2 -0.5 5t3.5 1l153 -151q4 -4 -1 -7l-186 -121q-3 -2 -4 1t1 5z" />
    <glyph glyph-name="question" unicode="?" horiz-adv-x="311" 
d="M180 540q-29 -5 -55 -26.5t-36 -58.5q-2 -5 -6.5 -4t-3.5 6q11 40 39.5 63.5t60.5 29.5q33 7 64.5 -4t42.5 -44q10 -30 -0.5 -62t-32 -63t-48 -59t-47.5 -48q-29 -27 -46.5 -49t-28.5 -44.5t-18 -49t-16 -63.5q-2 -5 -9.5 -3.5t-6.5 6.5q9 43 17 73t19.5 55t30 49.5
t49.5 57.5q16 17 36.5 40.5t37 50t25.5 54.5t2 53q-6 23 -25.5 34t-44.5 6zM37 38q5 0 7.5 -1.5t5.5 -3.5q5 -5 3 -11q0 -7 -6 -13q-5 -5 -12 -5q-8 0 -11 5q-4 5 -4 13l2 6t3 5q7 5 12 5z" />
    <glyph glyph-name="at" unicode="@" horiz-adv-x="514" 
d="M273 210q6 17 11.5 32t9.5 29q-6 -5 -18.5 -18t-26.5 -29t-29 -31t-25 -23q-5 -4 -12.5 -8.5t-16 -7t-16.5 -1.5t-13 8q-6 10 -5 26q2 20 11 43t22.5 44.5t31 39t37.5 28.5q8 4 20 8t24.5 5t23.5 -2t17 -12q2 -5 -2 -8t-7 2q-4 6 -11.5 7.5t-16 0t-17 -5t-13.5 -6.5
q-14 -9 -26.5 -22.5t-23 -29t-18.5 -32t-13 -30.5q-8 -24 -8 -36q0 -8 2 -11t5.5 -2.5t8.5 3.5t10 7q31 24 53.5 53.5t51.5 52.5q16 11 28 5.5t7 -21.5q-5 -19 -15 -40.5t-18 -46.5q-5 -15 -10 -40.5t-4 -50t12 -43.5t38 -22q16 -2 32.5 14t30.5 42.5t23 61.5t9 72
q0 43 -10.5 80.5t-32.5 65t-54.5 43t-77.5 15.5q-53 -1 -94 -31t-66.5 -76t-33.5 -100.5t3.5 -104t45 -87.5t91.5 -50q26 -5 55 -4t58.5 8t57.5 20t52 32q-9 5 -5 14q3 10 14 6q3 -1 5.5 -4.5t0.5 -8.5q-2 -6 -9 -12q-39 -30 -84.5 -45.5t-94.5 -17.5q-55 -2 -95 17.5
t-66.5 52t-38.5 75t-11 87t15.5 87t41.5 76t66.5 54t91.5 20.5q58 0 96.5 -19.5t61.5 -50t32.5 -68.5t9.5 -74q0 -40 -10 -76.5t-26.5 -64t-39.5 -43t-48 -12.5q-35 3 -50.5 25t-19.5 51.5t1.5 61t13.5 53.5z" />
    <glyph glyph-name="A" unicode="A" horiz-adv-x="548" 
d="M-14 24q-3 4 1 7.5t6 -0.5q28 -31 59 -28t62 27t61 62.5t55.5 78.5t45 75.5t29.5 53.5q-17 -1 -33.5 -6t-36.5 -17q-3 -2 -6 2t2 7q20 14 40.5 19.5t38.5 5.5q14 26 33 63.5t40 76t41.5 71.5t38.5 50q11 11 21 12.5t17 -4t9.5 -17t-1.5 -25.5q-8 -28 -19.5 -68.5
t-24 -87.5t-24 -97t-19.5 -96.5t-10.5 -86t4.5 -65.5q4 -15 11 -19.5t18 4.5q12 9 27 32t29.5 50t27 52.5t19.5 40.5q3 4 7 1.5t2 -7.5q-8 -16 -21 -42.5t-28.5 -54t-32 -51.5t-29.5 -34q-19 -14 -34 -8t-23 26q-8 21 -8.5 54t2.5 68.5t8 68.5t10 54q-20 11 -41 19.5
t-44 9.5q-11 -20 -31.5 -58t-47.5 -79.5t-58 -81t-64 -63.5t-66 -26t-63 31zM321 311q22 -2 42.5 -10t39.5 -19q17 78 37 148l32 112q1 3 2.5 8.5t2 11t-1 7.5t-6.5 -3q-17 -17 -36.5 -49t-40 -69.5t-39 -74.5t-32.5 -62z" />
    <glyph glyph-name="B" unicode="B" horiz-adv-x="510" 
d="M109 476q-10 -20 -15.5 -42.5t-3.5 -46.5q1 -5 -3.5 -5t-4.5 5q-4 49 19 93q19 38 50.5 61t69.5 32q26 6 57.5 2.5t55.5 -13.5q3 4 9 10.5t12 12.5t11.5 10t7.5 4t5 -1t1 -5q-6 -8 -13.5 -19t-13.5 -22q30 -16 49 -43t26.5 -58.5t2 -65t-24.5 -62t-52 -50t-82 -28.5
q34 -8 61.5 -25.5t47 -41t29 -51t7.5 -54.5q-3 -29 -19 -52t-39.5 -36t-50.5 -14t-51 15q-14 9 -21.5 24t-7 32.5t9.5 36.5t28 36q4 3 7 -0.5t-1 -7.5q-17 -16 -25 -33t-8.5 -32.5t6.5 -28t19 -19.5q23 -12 44.5 -6.5t39 21t29 36.5t13.5 41q3 26 -6 49.5t-27 43t-43 34
t-54 22.5q-20 5 -20 11t21 10q60 9 94 43t44 76.5t-4 86.5t-51 73q-16 -27 -33.5 -70t-35 -93.5t-36 -104.5t-37.5 -103.5t-38 -90.5t-38 -64q-23 -29 -54.5 -37t-58.5 4q-5 2 -2.5 6.5t7.5 2.5q15 -6 29 -2.5t26 11.5t22 19.5t16 22.5q31 58 56 124.5t48.5 133.5t49.5 132
t59 122q-23 14 -49.5 16t-50.5 -1q-38 -7 -68 -30.5t-47 -56.5z" />
    <glyph glyph-name="C" unicode="C" horiz-adv-x="336" 
d="M45 555q2 5 6.5 2t1.5 -7q-32 -53 -20.5 -106t63.5 -88q14 25 34 53.5t43.5 55t51 48.5t56.5 34t50.5 9.5t34.5 -15.5t16 -35t-6 -49q-11 -35 -38 -65t-62 -48.5t-75 -23t-78 10.5q-15 -27 -33 -67.5t-30.5 -84.5t-14.5 -85.5t15 -70.5q11 -17 24 -23t28 -6q32 1 66 23.5
t64.5 54.5t55.5 66.5t38 59.5q3 4 7 1.5t1 -7.5q-17 -30 -42 -64t-55 -64.5t-64 -53t-71 -28.5q-27 -5 -49.5 4.5t-36.5 37.5q-17 31 -15 74.5t14 89.5t30.5 88.5t34.5 71.5q-27 18 -44 42t-23 51.5t-0.5 56.5t22.5 57zM128 339q35 -13 72.5 -8.5t70.5 22t58.5 45t36.5 59.5
q8 25 6.5 45t-11.5 30.5t-28.5 9.5t-44.5 -17q-24 -15 -47 -37.5t-44 -48t-39 -52t-30 -48.5z" />
    <glyph glyph-name="D" unicode="D" horiz-adv-x="553" 
d="M428 459q5 -2 3 -6.5t-7 -1.5q-27 14 -48 4t-39 -32q-16 -19 -31.5 -45.5t-30.5 -58t-29.5 -65.5t-28.5 -68q-17 -40 -32.5 -77t-31.5 -68q27 -2 52 -2t52 6q65 12 117.5 53t86 97t45 122t-6.5 129t-57 92.5t-90 29.5q-54 0 -104.5 -30t-82.5 -74q-25 -35 -34 -76.5
t7 -86.5q2 -5 -2.5 -6.5t-6.5 3.5q-18 51 -5.5 99.5t44.5 87.5q34 40 82.5 66.5t101.5 30.5q33 1 62.5 -7t54 -26.5t42 -46.5t25.5 -67q14 -69 -0.5 -138.5t-53 -126.5t-97 -95.5t-132.5 -44.5q-26 -2 -52.5 -1.5t-52.5 2.5q-6 -11 -13.5 -23.5t-17 -24.5t-20.5 -21t-23 -12
q-26 -7 -41.5 2t-20 24.5t3.5 32t30 25.5q14 5 33.5 7t39.5 1q14 27 27.5 59t27.5 67q14 34 29 69t31 68t33 62t36 50q11 14 25.5 26.5t31 19t34 6.5t34.5 -10zM114 33q-18 0 -35 -2t-29 -7q-17 -6 -23.5 -19t-4.5 -24.5t11 -18t24 -0.5q19 8 33.5 31t23.5 40z" />
    <glyph glyph-name="E" unicode="E" horiz-adv-x="379" 
d="M34 577q2 5 6.5 3.5t2.5 -6.5q-10 -35 -4 -66.5t23 -57t44.5 -43.5t60.5 -27q-3 34 7.5 69t31.5 63.5t51 46.5t66 19q42 1 58.5 -26t5.5 -65q-17 -65 -68 -97t-116 -27q4 -19 11 -39t21 -41q4 -5 0 -6.5t-7 -0.5q-21 10 -41.5 11t-40.5 -5q-14 -5 -27.5 -12.5
t-24.5 -17.5q-24 -22 -36 -51t-12 -59t12.5 -58t37.5 -48q54 -44 119 -24q30 9 55.5 28.5t46 45t36 54t26.5 57.5q2 5 7 3t3 -7q-9 -26 -25 -55t-38.5 -56t-50 -48t-58.5 -31q-34 -11 -71 -8.5t-68 22.5q-36 22 -52 62.5t-11.5 82.5t30 78.5t72.5 51.5q13 5 35.5 6t37.5 -2
q-11 19 -15 37.5t-7 35.5q-36 10 -65.5 29.5t-48.5 46.5t-25 60.5t5 71.5zM202 373q30 -2 58.5 4t51.5 21t40.5 37.5t25.5 53.5q9 34 -4.5 58t-47.5 18q-30 -6 -54.5 -25.5t-41.5 -46.5t-24.5 -58.5t-3.5 -61.5z" />
    <glyph glyph-name="F" unicode="F" horiz-adv-x="426" 
d="M130 432q0 -20 8.5 -28.5t18.5 -8.5t19 7.5t11 19.5q2 5 6 3.5t3 -4.5q-2 -17 -14.5 -27t-27 -10t-26.5 11.5t-12 36.5q0 21 9.5 40.5t24.5 35t34 26.5t38 17q43 13 92.5 14t90.5 2q30 0 58.5 0.5t53 3.5t44 9t31.5 17q3 5 7 1.5t1 -6.5q-21 -20 -45 -30t-50.5 -14.5
t-54 -4.5t-55.5 -1h-14t-14 -1q-30 -35 -55.5 -99.5t-48.5 -141.5q19 0 40 -0.5t42 0t41.5 3.5t38.5 10q5 2 6.5 -2.5t-2.5 -6.5q-19 -8 -40 -10.5t-43.5 -3t-44.5 0t-42 -0.5q-8 -25 -17.5 -60t-21.5 -74t-25.5 -79t-29.5 -74.5t-34 -61.5t-37 -39q-16 -10 -32 -11t-30 4.5
t-26 16t-19 24.5q-2 3 2 6.5t7 -1.5q19 -25 38.5 -33t41.5 12q24 21 45.5 68t40 102t33.5 109t26 90q-41 -3 -81 -18q-5 -2 -7 3t3 7q23 8 44.5 12t42.5 6q23 75 47.5 139t54.5 102q-34 -2 -64 -5.5t-56 -14.5q-14 -6 -27 -15t-23.5 -20.5t-17 -25t-7.5 -27.5z" />
    <glyph glyph-name="G" unicode="G" horiz-adv-x="441" 
d="M11 -178q-2 5 3 6t7 -4q8 -26 25.5 -45.5t40.5 -22.5q13 -2 25.5 1.5t27.5 14.5q33 26 58 69t45 92t34.5 98.5t26.5 88.5q4 11 7 21.5t6 21.5q-17 -22 -37 -46t-43 -46t-48.5 -40t-52.5 -28q-42 -17 -70.5 -2.5t-39.5 56.5q-11 40 -6.5 88t19 96.5t35.5 93t42 78.5
q-45 26 -72 67t-27 93q0 5 5 5t5 -5q0 -50 25.5 -88t67.5 -64q18 27 45 58t59.5 56.5t68.5 39.5t72 7q33 -7 49 -28.5t16.5 -48.5t-13.5 -54t-42 -44q-24 -15 -53.5 -21.5t-60 -7.5t-59.5 4t-52 14q-18 -31 -36.5 -73t-32 -87t-19.5 -89.5t2 -81.5q5 -27 22.5 -44.5
t48.5 -8.5q25 8 52.5 29.5t53.5 48t48.5 54t37.5 47.5q3 10 10.5 14.5t15 4.5t12 -5.5t1.5 -14.5q-5 -18 -10.5 -36t-10.5 -38q-12 -39 -28 -89.5t-36 -100t-46.5 -92.5t-59.5 -69q-23 -18 -46.5 -22.5t-45.5 1.5q-24 7 -43.5 27.5t-28.5 50.5zM156 404q22 -8 49.5 -12.5
t57 -3.5t57.5 7.5t51 20.5q23 15 36 38.5t14 47t-12.5 42t-43.5 22.5q-31 4 -62.5 -12.5t-59.5 -42.5t-51 -55.5t-36 -51.5z" />
    <glyph glyph-name="H" unicode="H" horiz-adv-x="574" 
d="M333 -35q3 34 13.5 77.5t24.5 90t29 91t27 80.5q-46 -22 -87.5 -41t-87.5 -41q-12 -33 -26 -73t-31.5 -78t-39 -69.5t-48.5 -47.5q-26 -14 -53.5 -7t-38.5 30q-8 18 -3 45t27 59t64.5 67t110.5 68q27 74 52 151.5t45 153.5q-50 -29 -85.5 -54.5t-59 -48.5t-36.5 -43
t-17 -37q-5 -19 0.5 -34t17.5 -23.5t28.5 -9t33.5 9.5q5 4 7 -0.5t-3 -6.5q-19 -12 -38 -11.5t-33.5 10.5t-21.5 27.5t-1 40.5q10 34 56 81.5t149 107.5q9 5 17 9.5t17 9.5q3 1 8.5 0t3.5 -6q-20 -78 -45.5 -155t-51.5 -153q45 21 87 40t87 42q20 57 45 112t70 93
q20 15 38 19.5t31 -1.5t18 -22t-2 -41q-5 -17 -16.5 -37t-32.5 -41q-22 -21 -50.5 -39.5t-61.5 -36.5q-12 -35 -30.5 -88t-36 -108.5t-29.5 -105t-12 -77.5q0 -27 12 -28t27 12q21 18 46 53t48.5 74.5t44 78t34.5 63.5q2 5 6.5 2.5t1.5 -7.5q-12 -22 -34 -62t-47.5 -82.5
t-52.5 -79.5t-49 -53q-19 -13 -32 -13t-21 8.5t-11 23t-2 31.5zM211 205q-64 -32 -103.5 -65.5t-60 -64.5t-24.5 -56t3 -39q10 -19 29.5 -21.5t38.5 14.5q22 20 39.5 50t31.5 62t25 64t21 56zM474 336q62 33 102 71q19 19 30 37t16 35q4 16 2.5 29t-8.5 19.5t-19 5
t-28 -15.5q-18 -17 -32 -38.5t-25.5 -46t-20.5 -49.5t-17 -47z" />
    <glyph glyph-name="I" unicode="I" horiz-adv-x="329" 
d="M316 548q4 2 8.5 1t2.5 -6q-7 -32 -18 -82t-26.5 -108t-35 -119t-42.5 -114t-49.5 -93t-56.5 -57q-17 -9 -32.5 -9.5t-27.5 6.5t-19.5 18.5t-8.5 26.5q-1 18 10 38.5t38 37.5q4 2 6.5 -2t-1.5 -7q-24 -15 -33.5 -32.5t-9.5 -33.5q0 -12 6 -21.5t15.5 -14t21.5 -3t24 11.5
q25 19 48 61t42 91t33.5 96t22.5 76q19 66 33 123.5t20 87.5q-48 -29 -82 -55t-56.5 -49t-34.5 -43t-16 -36q-4 -19 2.5 -34.5t19.5 -24t29.5 -9t32.5 10.5q4 2 6.5 -2t-1.5 -7q-19 -12 -38.5 -11.5t-34.5 10.5t-23 28t-3 40q4 17 16.5 38t35.5 45t58.5 51t85.5 56
q8 5 16 9.5t16 9.5z" />
    <glyph glyph-name="J" unicode="J" horiz-adv-x="331" 
d="M309 534q-49 -28 -84.5 -53.5t-59.5 -48t-38 -42t-20 -35.5q-8 -20 -3 -36.5t17 -25.5t29.5 -9.5t34.5 10.5q4 3 6 -1.5t-3 -6.5q-20 -13 -39.5 -12t-34 11.5t-20 29.5t3.5 42q6 19 22.5 41t45.5 47.5t71.5 54.5t102.5 61q3 2 7.5 0t2.5 -6q-13 -48 -30 -106t-37.5 -119
t-43 -120t-45.5 -108q21 7 43 21t41 29t33.5 27.5t19.5 17.5q3 3 6 0.5t-2 -6.5q-22 -22 -47 -41q-21 -17 -47.5 -33.5t-52.5 -26.5q-9 -18 -20 -38.5t-24.5 -41t-28.5 -38t-32 -28.5q-22 -15 -39 -14.5t-26 10.5t-8 27.5t16 37.5q21 30 56.5 48.5t67.5 32.5q24 47 46 104.5
t42.5 117t38 118t32.5 108.5zM145 75q-14 -6 -30 -13.5t-31.5 -17t-29 -21t-22.5 -24.5q-10 -16 -12.5 -29.5t2.5 -20t16.5 -4.5t29.5 18q23 22 43 53.5t34 58.5z" />
    <glyph glyph-name="K" unicode="K" horiz-adv-x="482" 
d="M500 493q2 -5 -2.5 -6.5t-5.5 4.5q-4 15 -11 20.5t-15.5 5t-18.5 -7t-20 -15.5q-43 -38 -80 -89t-71 -97q-2 -4 -2.5 -18.5t0.5 -35.5t3.5 -47t7.5 -51q5 -26 11 -53.5t14 -45.5q13 -26 31 -34.5t41 12.5q9 9 21 25.5t24.5 38t26 47t27.5 51.5q2 5 6.5 2.5t2.5 -7.5
q-14 -26 -27.5 -51t-27 -47.5t-25.5 -39.5t-22 -26q-32 -29 -55.5 -20.5t-39.5 37.5q-11 19 -19 46t-13 53q-8 35 -10.5 62t-2.5 43q-19 -60 -40.5 -112.5t-46.5 -94.5q-18 -31 -37.5 -46t-37.5 -20q-13 -3 -26.5 -1t-24 8.5t-17.5 17t-7 24.5q-2 18 9.5 38t37.5 37
q5 2 7.5 -2t-1.5 -7q-24 -15 -34 -32t-9 -32q1 -18 14 -31t33 -8q9 3 18 9.5t17 15.5t14.5 18t10.5 16q30 51 56.5 123t47.5 145q20 70 34.5 129t20.5 89q-47 -28 -80.5 -53.5t-56 -48t-35 -42t-16.5 -35.5q-6 -20 0.5 -36t19 -25t29.5 -9.5t34 10.5q3 3 6 -1.5t-2 -6.5
q-19 -13 -39 -12.5t-35 11t-22 29.5t-1 42q5 18 19.5 40.5t42 48.5t68.5 55t98 61q3 1 7.5 -0.5t3.5 -5.5q1 0 -2.5 -15.5t-9 -38.5t-12.5 -50.5t-13 -51.5t-11 -42t-6 -21q14 19 33 44.5t40 50.5t42.5 46.5t40.5 33.5q28 17 45.5 14t24.5 -32z" />
    <glyph glyph-name="L" unicode="L" horiz-adv-x="424" 
d="M388 30q4 3 6.5 -1t0.5 -6q-19 -22 -53 -28q-23 -5 -47.5 -2t-49.5 9t-49.5 13t-47.5 10q-14 -23 -36 -44.5t-51 -29.5q-23 -5 -35 2.5t-14.5 20.5t6 28t27.5 26q16 9 36.5 11t40.5 0q24 43 42.5 99.5t37.5 117.5q8 26 15.5 52t16.5 51q-93 -17 -130 68q-2 4 2.5 6.5
t6.5 -2.5q35 -82 125 -62q7 19 15.5 41.5t19.5 45t24.5 43t31.5 35.5q27 24 47 26t30 -10t7.5 -35.5t-21.5 -51.5q-20 -30 -53 -55t-68 -39q-19 -54 -36 -116q-17 -60 -36.5 -117.5t-44.5 -100.5q22 -4 45.5 -10.5t47.5 -12.5t48 -8.5t46 1.5q30 6 47 25zM276 381
q30 14 60 37t48 51q11 17 15.5 35.5t1 29.5t-16 10t-34.5 -23q-27 -27 -44.5 -66.5t-29.5 -73.5zM116 29q-17 1 -36 -1t-33 -10q-15 -9 -21.5 -21t-5 -21.5t10 -13t23.5 4.5q20 11 34.5 26t27.5 36z" />
    <glyph glyph-name="M" unicode="M" horiz-adv-x="728" 
d="M309 548q2 2 7 1t3 -6q-8 -42 -23.5 -114t-38.5 -152q29 48 56.5 94t65.5 81q22 20 42 15t23 -35q2 -21 -3 -44.5t-10 -39.5q-18 -64 -34.5 -115.5t-33.5 -105.5q13 29 30.5 67.5t39.5 80.5t47 85.5t52 82.5q25 36 45.5 58.5t38.5 33.5q11 6 24 9t25 -2q15 -6 20 -21
t5 -34t-3.5 -37t-7.5 -30q-17 -57 -41 -111.5t-48 -108.5t-42.5 -107.5t-22.5 -108.5q-1 -8 -1 -21t3 -23t10 -13.5t20 8.5q19 17 44 51.5t49.5 74t45.5 77t32 60.5q2 5 6.5 3t2.5 -7q-11 -23 -32.5 -62t-47 -80.5t-52 -76.5t-46.5 -50q-18 -14 -30 -12t-19 12.5t-9.5 27
t-2.5 33.5q0 49 17.5 105.5t41 114t48 113t38.5 103.5q3 11 8 34t4.5 43t-9.5 29t-33 -9q-30 -22 -73 -81q-28 -41 -53.5 -86t-48 -88.5t-40.5 -82.5t-31 -67l-10.5 -24.5t-8.5 -17.5q-3 -7 -9 -9t-12 0t-10 6.5t-2 11.5q10 37 20 70.5t20 66t19.5 65t20.5 67.5q15 47 19 73
q5 27 -5 31.5t-28 -14.5q-43 -47 -76.5 -99t-60.5 -106q-14 -45 -30 -87t-34 -77.5t-38 -61.5t-42 -39q-17 -9 -32.5 -9.5t-27.5 6.5t-20 18.5t-9 26.5q-2 18 9 38.5t38 37.5q4 2 7 -2t-2 -7q-23 -15 -33 -32.5t-9 -33.5q2 -24 22 -35.5t45 8.5q25 19 47 61t40.5 91t32.5 96
t22 76q18 66 31 123.5t19 87.5q-96 -58 -138 -104.5t-49 -78.5q-4 -19 3 -34.5t19.5 -24t29.5 -9t32 10.5q5 2 7.5 -2t-1.5 -7q-18 -12 -38 -11.5t-35 10.5t-23.5 28t-3.5 40q7 34 50.5 82.5t142.5 107.5q8 5 16.5 9.5t16.5 9.5z" />
    <glyph glyph-name="N" unicode="N" horiz-adv-x="569" 
d="M338 548q2 2 7 1t3 -6q-6 -23 -14.5 -57t-20.5 -74.5t-26 -85t-30 -88.5q27 50 60.5 103.5t68.5 101.5q50 67 87 88q21 12 42 12t29 -24q7 -23 -0.5 -57t-22 -70.5t-31 -70.5t-26.5 -57q-14 -30 -32 -69t-34.5 -80t-29 -81.5t-16.5 -71.5q0 -4 -0.5 -11.5t0.5 -14.5
t4.5 -10.5t11.5 -0.5q12 5 30 24t38 45.5t41 56.5t39 58.5t32.5 52t20.5 35.5q3 5 7 3t1 -7q-7 -13 -21 -36.5t-33 -52.5t-40 -59.5t-42 -57t-39 -46t-31 -25.5q-18 -9 -30 3t-15 26q-6 30 4.5 74t28 90.5t37.5 89t33 69.5q10 21 24 51.5t27.5 63.5t23 64t9.5 54
q0 27 -11.5 29t-31.5 -12q-31 -21 -76 -80q-25 -33 -48.5 -70t-45 -74t-40.5 -72t-34 -64q-29 -65 -61 -116.5t-68 -71.5q-18 -9 -33.5 -9.5t-27 6.5t-18.5 18.5t-8 26.5q0 18 12 38.5t40 37.5q4 2 6 -2t-3 -7q-24 -15 -34 -32.5t-10 -33.5q0 -12 5 -21.5t14 -14t21 -3
t25 11.5q26 19 50.5 61t45.5 91t37.5 96t25.5 76q23 66 39 123.5t24 87.5q-50 -29 -85.5 -55t-58.5 -49t-36 -43t-17 -36q-5 -19 1 -34.5t18.5 -24t28.5 -9t32 10.5q5 2 7.5 -2t-2.5 -7q-19 -12 -38 -11.5t-33.5 10.5t-22 28t-1.5 40q9 34 55.5 82.5t147.5 107.5q8 5 17 9.5
t17 9.5z" />
    <glyph glyph-name="O" unicode="O" horiz-adv-x="410" 
d="M299 517q-36 22 -82 -2q-30 -16 -50 -44.5t-27.5 -62t-2 -67.5t25.5 -61q27 14 58.5 23.5t69.5 14.5q5 0 5 -5t-5 -5q-35 -5 -65.5 -14t-55.5 -22q16 -17 37 -27t44.5 -13.5t47.5 -1t45 10.5q8 26 12 53.5t4 56.5q1 20 -1.5 44t-9 47t-19 43t-31.5 32zM340 229
q-23 -7 -47.5 -9t-48.5 2.5t-46 15.5t-38 30q-7 -4 -13.5 -8t-13.5 -9q-36 -26 -61 -56t-38 -62q-15 -35 -14.5 -68.5t15 -55.5t43.5 -27.5t73 17.5q30 15 59.5 41.5t55 58.5t45 66t29.5 64zM25 137q14 32 39.5 64t63.5 58q6 5 12.5 8.5t13.5 7.5q-21 28 -26.5 64.5
t2.5 71.5t29 65t53 47q26 14 55.5 15t55.5 -14q32 -18 54.5 -61t21.5 -115q-1 -56 -21 -115t-54 -111t-80.5 -91t-100.5 -55q-45 -14 -74.5 -3.5t-44 35.5t-14.5 59.5t15 69.5z" />
    <glyph glyph-name="P" unicode="P" horiz-adv-x="549" 
d="M352 538q18 20 36.5 32.5t45.5 15.5q5 2 6.5 -2.5t-2.5 -6.5q-17 -7 -30.5 -17.5t-24.5 -24.5q65 -12 101 -46.5t48 -77.5t3 -89t-34.5 -81t-64.5 -53t-86 -6q-32 9 -44.5 30t-10 41.5t19 34.5t44.5 8q5 -1 3.5 -5.5t-6.5 -3.5q-23 4 -36 -7.5t-14.5 -28.5t10 -34.5
t38.5 -24.5q32 -9 62 8.5t51 49.5t30 73.5t0.5 81.5t-38 72.5t-85.5 45.5q-20 -27 -36.5 -64t-31 -79t-27 -87.5t-25.5 -90.5q-5 -18 -12.5 -47.5t-18.5 -64t-25 -70t-31.5 -64t-38 -47t-43.5 -18.5q-22 -1 -41 11.5t-32 34.5q-3 3 1.5 6t6.5 -2q16 -25 33.5 -33t31.5 -1
q16 7 31.5 26.5t28.5 46.5t24.5 58.5t20.5 61.5t16 56t11 42q12 46 25.5 92.5t28.5 90t33 81t40 66.5q-32 4 -69 -2t-65 -23q-33 -20 -45 -48.5t-8 -51.5t22 -34.5t45 3.5q4 2 7 -2t-1 -7q-33 -19 -54.5 -7t-28 38t5 58t45.5 55q32 22 74 28t80 3z" />
    <glyph glyph-name="Q" unicode="Q" horiz-adv-x="503" 
d="M303 311q1 5 6 4t4 -5q-6 -52 -26.5 -85.5t-47.5 -51.5t-56.5 -20t-55 9t-43 35t-19.5 59t14.5 80t59.5 99q21 27 48 50t58 39t64.5 23t68.5 1q43 -8 72 -33.5t33 -70.5q3 -40 -14.5 -85.5t-45 -89.5t-59 -82.5t-57.5 -64.5q-23 -23 -47.5 -42t-48.5 -34
q15 -8 31.5 -14.5t33.5 -12.5q29 -8 50 -7.5t48 17.5q21 13 39 33t34 43t30 47t26 45q2 5 6.5 2.5t2.5 -7.5q-13 -22 -27 -46.5t-30.5 -47.5t-35 -43t-40.5 -34q-26 -17 -52.5 -19.5t-55.5 2.5q-18 4 -39 10.5t-45 18.5q-17 -9 -39.5 -17t-45 -11t-43.5 2t-36 23
q-8 10 -11 22t-1 22.5t9.5 19.5t20.5 13q17 6 36.5 2t38 -12.5t36.5 -19.5t32 -18q46 29 88 71q25 24 54 59t55 75t44 81.5t20 77.5q5 88 -77 111q-30 8 -61.5 1t-61 -23.5t-55.5 -39t-44 -46.5q-40 -52 -55.5 -94.5t-14 -75.5t17.5 -55t39 -31.5t50.5 -6.5t52 20t43 48.5
t24.5 79.5zM30 37q12 -16 29 -19.5t35.5 0t36 11.5t31.5 16q-10 5 -26.5 14.5t-34 18.5t-34 15t-26.5 3q-9 -3 -14 -10t-6.5 -15.5t1 -17.5t8.5 -16z" />
    <glyph glyph-name="R" unicode="R" horiz-adv-x="592" 
d="M350 538q18 20 38 32t45 15q5 1 6.5 -2.5t-3.5 -5.5q-30 -13 -54 -42q65 -12 101.5 -46.5t48.5 -77.5t2.5 -89t-35 -81t-64 -53t-85.5 -6q-9 3 -16.5 6t-12.5 8q9 -52 29 -96t49 -79q35 -42 81 -67.5t97 -31.5q5 0 4.5 -5t-6.5 -4q-59 6 -110.5 32t-91.5 76
q-33 42 -55 96t-28 118q-1 6 3 9t8.5 3.5t9 -1t4.5 -5.5l2 -14t2 -15q11 -14 35 -20q32 -9 61.5 8.5t50.5 49.5t30.5 73.5t1 81.5t-38 72.5t-85.5 45.5q-21 -27 -37.5 -64t-30.5 -79t-26.5 -87.5t-25.5 -90.5q-5 -18 -12.5 -47.5t-18.5 -64t-24.5 -70t-30.5 -64t-38 -47
t-45 -18.5q-22 -1 -41 11.5t-32 34.5q-3 3 1.5 6t6.5 -2q16 -25 33.5 -33t31.5 -1q16 7 31 26.5t28 46.5t23.5 58.5t19.5 61.5t15.5 56t11.5 42q13 46 26 92.5t28.5 90t33.5 81t40 66.5q-34 4 -69 -2t-63 -23q-33 -20 -45 -49t-8 -52.5t22 -34.5t44 5q5 3 8 -1.5t-2 -7.5
q-33 -19 -55 -7t-28 38t6 58t46 55q30 22 71.5 28t80.5 3z" />
    <glyph glyph-name="S" unicode="S" horiz-adv-x="409" 
d="M19 168q2 5 6.5 3t2.5 -7q-17 -34 -17 -69.5t21 -66.5q24 -35 66.5 -44.5t86.5 11.5q45 22 64.5 66.5t24.5 97t0.5 105.5t-7.5 92q-28 -17 -55.5 -34.5t-51 -38.5t-39.5 -48t-22 -63q-1 -5 -6 -4.5t-5 5.5q6 38 23.5 66.5t42 50.5t53.5 40.5t59 36.5q-1 21 -1.5 50.5
t2.5 60t10.5 58t23.5 44.5q14 15 31.5 21.5t34 4.5t30 -13t20.5 -33q8 -29 0 -56t-26 -51t-41.5 -44t-46.5 -35q1 -31 4.5 -70.5t4 -82t-4.5 -84t-19.5 -76t-41.5 -59t-71 -32.5q-43 -8 -85 5t-65 47q-23 32 -23 70.5t17 75.5zM329 565q-18 -30 -23.5 -78.5t-3.5 -100.5
q21 13 43 31.5t38 40.5t23.5 47t-0.5 51q-5 17 -13.5 27t-19.5 11.5t-22.5 -5.5t-21.5 -24z" />
    <glyph glyph-name="T" unicode="T" horiz-adv-x="424" 
d="M398 544q-26 -33 -45 -71t-33.5 -78t-26.5 -81.5t-24 -81.5q-6 -22 -15 -52.5t-20 -65t-24.5 -69.5t-30 -65t-35.5 -52t-40 -31q-30 -13 -54 0.5t-39 39.5q-2 3 2 6t6 -2q6 -9 14 -17.5t17 -13.5t19 -5t22 8q22 14 41 46t35.5 75t32 94.5t31.5 105.5q14 47 28 93.5t29 87
t32 74t36 55.5q-20 0 -49 -0.5t-58 -5.5t-53 -16t-33 -33q-5 -10 -7 -22q-2 -5 -6.5 -4t-3.5 6q2 8 4 14t4 11q12 28 37 43t57.5 22t71 8t78.5 1h66.5t65.5 3.5t55.5 11.5t38.5 25q3 3 5.5 1t0.5 -6q-12 -25 -41 -37t-63.5 -16.5t-69 -4.5t-58.5 -1z" />
    <glyph glyph-name="U" unicode="U" horiz-adv-x="495" 
d="M35 415q-2 -5 -6.5 -4.5t-3.5 5.5q8 42 36.5 79.5t66.5 56.5q22 10 43.5 11.5t36.5 -7t21 -28t-3 -51.5q-17 -52 -44.5 -113.5t-55.5 -124t-50 -122t-28 -107.5q-2 -16 -2 -28.5t4.5 -18t15.5 -2.5t30 18q24 18 50 53t55 77q22 34 44.5 70.5t45 71.5t46 67t47.5 56
q3 4 10.5 5t15 0.5t13 -4t4.5 -8.5q-3 -6 -7.5 -20t-10.5 -32q-11 -28 -24 -64.5t-25 -74.5t-21 -74t-11 -63q-5 -44 1 -57t29 9q18 16 37.5 42t38 55.5t35 58t28.5 50.5q3 4 7 1.5t2 -6.5q-12 -21 -29 -51t-37 -60.5t-40.5 -57.5t-38.5 -42q-31 -26 -48.5 -4.5t-12.5 84.5
q3 27 9.5 60.5t16 68t20 68t21.5 61.5q5 13 9 23t6 17q-20 -23 -42 -53.5t-44.5 -65.5t-45.5 -72.5t-46 -73.5q-27 -41 -53 -74t-49 -50q-50 -37 -74 -20t-16 78q6 43 28.5 102t50.5 121.5t55.5 124t44.5 110.5q7 25 4 40.5t-12.5 21.5t-24 4t-30.5 -11q-34 -19 -59.5 -54
t-33.5 -72z" />
    <glyph glyph-name="V" unicode="V" horiz-adv-x="542" 
d="M21 384q-1 -34 14.5 -61.5t47.5 -38.5q5 -2 4 -6.5t-6 -2.5q-37 11 -54.5 42t-15.5 67q1 30 13 58t31.5 51.5t45 41t53.5 25.5q29 8 58 7.5t52 -13.5q41 -23 53 -63.5t4.5 -90.5t-27.5 -105t-42.5 -107.5t-41 -98t-21.5 -76.5q-2 -14 4 -22t26 1q18 8 48 33t61.5 56
t59.5 61.5t43 49.5q32 41 61 91t44 101.5t10.5 100t-38.5 85.5q-5 5 -11.5 10.5t-12.5 10.5q-5 3 -2 7t8 0q7 -5 13.5 -10.5t11.5 -11.5q36 -38 41 -88t-10 -103t-44.5 -105t-62.5 -94q-15 -20 -43.5 -51t-60.5 -62t-62.5 -56.5t-48.5 -34.5q-25 -11 -40 -8t-21.5 15.5
t-5.5 32.5t7 43q8 27 24.5 65t35 81t35 88.5t24 87.5t2 78.5t-29.5 62.5q-21 23 -48.5 25.5t-54.5 -5.5t-50.5 -24t-41 -38t-28 -48t-11.5 -54z" />
    <glyph glyph-name="W" unicode="W" horiz-adv-x="695" 
d="M685 627q-4 4 -0.5 7t6.5 -1q32 -32 43.5 -69.5t8.5 -77.5t-18 -80.5t-36.5 -79t-46 -73t-47.5 -61.5q-25 -29 -51 -58t-50 -55t-44.5 -47t-34.5 -35q-2 -2 -9.5 -9t-14.5 -12q-7 -4 -12 -3t-4 9q2 14 4.5 36t5.5 51q5 54 13 120t17 129q-35 -49 -73.5 -104.5
t-74.5 -106.5q-3 -5 -16 -23.5t-28 -40t-29.5 -41t-20.5 -26.5q-4 -5 -9 -2.5t-3 7.5q1 4 3.5 12t5.5 16t6 15t4 10l24 64t31 87.5t29 99t19 98.5t1 85t-26 60q-21 21 -49.5 26t-57.5 -4q-22 -7 -43.5 -23t-39.5 -37t-30 -46t-15.5 -50t3.5 -49t28 -43q15 -12 36 -18
q5 -1 4 -5.5t-6 -3.5q-12 2 -22.5 7.5t-18.5 12.5q-23 21 -30.5 46.5t-4.5 52.5t16.5 53.5t32.5 49t43 39.5t48 24q32 10 67.5 5.5t61.5 -27.5q23 -21 31 -57t5 -80t-14 -92.5t-24.5 -93.5t-27.5 -83.5t-23 -62.5q7 11 15 21.5t16 22.5q39 54 81 114.5t78 111.5q5 26 9.5 49
t10.5 43q9 34 25.5 45t28.5 5t14 -25t-18 -46q-6 -7 -13 -16t-15 -20q-7 -34 -12.5 -74t-10.5 -80.5t-9.5 -80t-7.5 -72.5q-2 -16 -3 -31t-3 -26q15 15 35 35.5t42.5 45.5t47 52t47.5 55q22 26 46.5 59.5t45.5 71t36.5 77t19 78.5t-7.5 75.5t-41 67.5zM472 427
q-2 -6 -3.5 -14t-3.5 -16q4 5 7.5 9.5t7.5 9.5q13 18 16 31t0 17t-10 -4t-14 -33z" />
    <glyph glyph-name="X" unicode="X" horiz-adv-x="552" 
d="M345 349q29 49 57.5 94t55.5 79.5t53.5 55t52.5 22.5q5 1 5 -4.5t-5 -5.5q-25 -2 -51 -23.5t-53 -57.5t-55.5 -82t-57.5 -96q2 -28 3 -56t2 -55q3 -62 7 -116t16 -83q8 -20 19.5 -25t30.5 9q12 8 24 22.5t26 37.5q16 23 34.5 55t42.5 77q3 5 7.5 2.5t2.5 -7.5
q-26 -45 -44.5 -77.5t-32.5 -55.5q-29 -46 -54 -64q-24 -16 -45 -10.5t-34 31.5q-8 16 -13.5 39.5t-9.5 52.5t-6.5 61.5t-4.5 66.5q0 11 -0.5 22t-1.5 22q-35 -60 -71.5 -117t-74 -100t-76.5 -68t-79 -20q-5 1 -4.5 6t5.5 5q39 -5 77.5 21t76 70.5t74 102.5t71.5 118
q-2 27 -5.5 67t-12.5 80t-26 73.5t-46 45.5q-15 6 -30 -0.5t-27 -19t-21 -28t-13 -28.5q-8 -26 -4.5 -52.5t23.5 -43.5q5 -2 1.5 -6.5t-7.5 -0.5q-23 19 -27.5 48t3.5 59q12 37 40 63.5t64 23.5q37 -2 59.5 -28t34.5 -62t17 -74.5t7 -65.5z" />
    <glyph glyph-name="Y" unicode="Y" horiz-adv-x="518" 
d="M21 384q-1 -34 14 -61.5t49 -38.5q5 -2 3 -6.5t-7 -2.5q-36 11 -53.5 42t-15.5 67q1 30 13 58t31.5 51.5t44.5 41t53 25.5q30 8 59.5 7.5t52.5 -13.5q41 -23 52.5 -63.5t4 -90.5t-27.5 -105t-42 -107.5t-40.5 -98t-22.5 -76.5q-2 -14 4 -22t26 1q10 4 28 23.5t40 47
t46.5 59.5t47 63t41 57.5t30.5 41.5q4 6 10.5 8.5t12 2.5t8.5 -3t1 -9q-2 -9 -9 -33t-15.5 -50.5t-15.5 -50t-10 -33.5q-12 -39 -27.5 -89.5t-35.5 -100t-46.5 -92.5t-59.5 -69q-23 -18 -43.5 -22.5t-41.5 1.5q-25 7 -44 27.5t-29 50.5q-2 5 3 6t6 -4q8 -26 26 -45.5
t41 -22.5q27 -3 52 16q33 26 59 69t45.5 92t34 98.5t26.5 88.5q2 5 8.5 25t13.5 42.5t13 42.5t7 26q-11 -14 -28.5 -38.5t-38 -53t-43 -58.5t-43 -56t-38 -44.5t-28.5 -23.5q-25 -11 -39.5 -8t-21 15.5t-5.5 32.5t7 43q8 27 24.5 65t34.5 81t34.5 88.5t24 87.5t2.5 78.5
t-29 62.5q-22 23 -49 25.5t-54 -5.5t-50 -24t-41 -38t-28.5 -48t-11.5 -54z" />
    <glyph glyph-name="Z" unicode="Z" horiz-adv-x="560" 
d="M245 220q39 49 78.5 99.5t75.5 95.5t65.5 81t49.5 57q-57 -11 -99.5 -9.5t-77.5 4.5q-22 2 -47 3t-48 -3t-42.5 -15.5t-31.5 -33.5q-10 -21 -7.5 -45t23.5 -38q12 -9 31.5 -8.5t44.5 14.5q4 2 6.5 -2t-1.5 -6q-28 -16 -50 -15.5t-37 10.5q-23 15 -26.5 42.5t8.5 51.5
q13 24 33.5 36.5t44.5 17.5t50 4t49 -3q21 -2 45 -4t52 -1t61 5.5t73 15.5q7 2 6.5 -2t-1.5 -6q-14 -10 -45.5 -46t-72.5 -87t-89 -111.5t-94 -119.5q-28 -36 -54.5 -70t-49.5 -62q-1 -2 -2.5 -3.5t-2.5 -3.5q13 -5 26.5 -10.5t27.5 -10.5q34 -14 70 -26.5t71 -14t69 12.5
t65 53q2 4 5.5 1.5t1.5 -5.5q-32 -41 -67 -56.5t-72 -14t-74 14t-72 27.5q-15 5 -29 10.5t-28 10.5q-20 -25 -44 -45t-58 -27q-20 -2 -34 6.5t-10 31.5q3 18 16 30t30 18t36 6.5t35 -3.5q26 32 55.5 69.5t61.5 78.5zM122 64q-14 3 -30.5 2t-31.5 -6.5t-26 -15.5t-14 -26
q-3 -19 9 -23.5t29 4.5q20 12 35 30t29 35z" />
    <glyph glyph-name="bracketleft" unicode="[" horiz-adv-x="320" 
d="M26 -18q-2 0 -4.5 2t-0.5 5l210 572q0 3 5 3h59q5 0 5 -5t-5 -5h-36l-206 -562l34 1q5 0 5 -5t-5 -5q-17 -1 -30.5 -1h-30.5z" />
    <glyph glyph-name="backslash" unicode="\" horiz-adv-x="266" 
d="M34 566q1 0 4 -3l207 -562q2 -7 -5 -7h-7q-3 0 -6 3q-4 10 -14.5 39.5t-26 70.5t-33.5 90.5t-36.5 100t-36 97.5t-30.5 84t-21 59.5t-8 23.5q0 3 4 3z" />
    <glyph glyph-name="bracketright" unicode="]" horiz-adv-x="320" 
d="M294 564q2 0 4.5 -2t0.5 -5l-210 -572q0 -3 -5 -3h-59q-5 0 -5 5t5 5h36l206 562l-34 -1q-5 0 -5 5t5 5q17 1 30.5 1h30.5z" />
    <glyph glyph-name="asciicircum" unicode="^" horiz-adv-x="196" 
d="M21 498q0 3 11 28.5t25 56t26.5 58.5t15.5 37q5 9 11.5 8.5t9.5 -8.5q6 -19 13.5 -43.5t15 -50t14.5 -49.5t12 -42q2 -5 -0.5 -9.5t-7 -6.5t-9 -0.5t-7.5 7.5l-47 102l-60 -98q-3 -5 -7.5 -6t-8.5 0.5t-6.5 6t-0.5 9.5z" />
    <glyph glyph-name="underscore" unicode="_" horiz-adv-x="284" 
d="M28 21q-8 0 -7.5 7.5t7.5 7.5h185q8 0 8 -7.5t-8 -7.5q-38 0 -65.5 -0.5t-48.5 -0.5t-38 0.5t-33 0.5z" />
    <glyph glyph-name="grave" unicode="`" horiz-adv-x="102" 
d="M22 531q-4 4 1 6q4 6 9 9q4 1 7 -1l41 -57q3 -3 -0.5 -6.5t-6.5 0.5q-11 11 -26 24.5t-25 24.5z" />
    <glyph glyph-name="a" unicode="a" horiz-adv-x="239" 
d="M76 241q-14 -9 -26.5 -22.5t-23 -29t-18.5 -32t-13 -30.5q-8 -24 -8 -36q0 -8 2 -11t5.5 -2.5t8.5 3.5t10 7q31 24 53.5 53.5t51.5 52.5q16 11 28 5.5t7 -21.5q-6 -20 -16 -43t-20.5 -48.5t-18.5 -51.5t-10 -50q-1 -22 4.5 -23.5t13 6t15.5 20t13 19.5q12 19 27 43.5
t30 51t27.5 51.5t20.5 44q2 5 7 2t2 -8q-8 -19 -21 -43.5t-28 -51t-30.5 -52.5t-29.5 -48q-5 -8 -14 -20.5t-19 -21t-20.5 -8t-17.5 18.5q-7 21 -2.5 49t14 57.5t20.5 58t18 51.5q-6 -5 -18.5 -18t-26.5 -29t-29 -31t-25 -23q-5 -4 -12.5 -8.5t-16 -7t-16.5 -1.5t-13 8
q-6 10 -5 26q2 20 11 43t22.5 44.5t31 39t37.5 28.5q8 4 20 8t24.5 5t23.5 -2t17 -12q2 -5 -2 -8t-7 2q-4 6 -11.5 7.5t-16 0t-17 -5t-13.5 -6.5z" />
    <glyph glyph-name="b" unicode="b" horiz-adv-x="243" 
d="M2 56q-2 -4 -8 -5t-12.5 -0.5t-11.5 3.5t-4 8q6 33 17 79.5t26.5 98t35.5 104.5t43 99t50 82t56 53q18 10 32.5 9.5t23 -9.5t9.5 -24.5t-6 -34.5q-11 -27 -34 -60.5t-51 -65.5t-57 -60t-52 -46q-6 -18 -13 -44t-14.5 -54.5t-14 -57t-10.5 -50.5q11 16 18.5 28t15.5 23
q18 25 41 53t47 48q25 19 43.5 16t14.5 -37q-2 -25 -15 -52.5t-28 -49.5q28 10 51.5 29.5t47.5 56.5q3 5 7 2.5t2 -7.5q-29 -44 -57 -64.5t-61 -29.5q-15 -21 -36 -38.5t-45 -25.5q-19 -5 -30.5 -2t-15 11t1.5 18.5t20 19.5q17 9 38 13.5t37 8.5q18 23 32 51t19 56
q1 7 1 12.5t-2 8.5t-7 2t-13 -7q-23 -19 -45.5 -47t-39.5 -51q-14 -20 -24.5 -37.5t-22.5 -33.5zM93 88q-14 -2 -31 -6t-30 -12q-10 -6 -13.5 -13t-1.5 -11.5t9.5 -4t21.5 8.5q14 9 27 21t18 17zM65 304q21 16 47.5 42.5t52.5 57t47 62t31 56.5q7 17 6.5 29t-6.5 17t-16 3.5
t-23 -11.5q-23 -18 -44 -50.5t-39 -69t-32.5 -73t-23.5 -63.5z" />
    <glyph glyph-name="c" unicode="c" horiz-adv-x="176" 
d="M120 224q2 -5 -2.5 -7.5t-6.5 2.5q-8 14 -20.5 16.5t-25.5 -4.5q-17 -9 -30.5 -26.5t-23.5 -39t-14.5 -44t-2.5 -40.5q1 -18 8 -26.5t17 -10t22 2.5t24 13q35 23 63 61.5t48 75.5q2 5 7 3t2 -7q-20 -38 -49 -77.5t-65 -64.5q-12 -9 -27.5 -14t-30 -5.5t-27 5t-19.5 18.5
q-11 19 -7 49t17.5 59t33 52.5t39.5 30.5q19 7 39.5 2t30.5 -24z" />
    <glyph glyph-name="d" unicode="d" horiz-adv-x="240" 
d="M78 241q-14 -9 -27 -22.5t-24 -29t-20 -32t-14 -30.5q-4 -10 -7.5 -21.5t-2.5 -18.5t7 -8t21 10q32 25 59 53.5t53 54.5q4 11 8 22.5t9 23.5q-6 7 -14 9.5t-16.5 1t-16.5 -5t-15 -7.5zM84 -60q0 -14 5 -16.5t18 18.5q13 19 31 52.5t37 70t36.5 72.5t28.5 60q2 5 6.5 2
t1.5 -8q-10 -22 -27 -57.5t-36.5 -73.5t-38.5 -72.5t-33 -53.5q-10 -15 -19 -20t-16 -2.5t-11.5 11t-5.5 20.5q-2 18 2 42.5t10.5 51.5t14.5 54t16 51q4 11 7.5 21t5.5 18q-6 -7 -18 -20.5t-27 -28.5t-31 -29t-28 -23t-23.5 -13.5t-20.5 -3t-14.5 9.5t-3.5 24q3 20 12.5 43
t24.5 45t33.5 40t38.5 29q24 13 45.5 14t38.5 -13q15 41 32 84t34 85q29 67 58.5 103.5t52.5 47.5q21 10 33.5 5t17.5 -17t4.5 -28.5t-4.5 -30.5q-8 -29 -30.5 -63t-51.5 -67t-58.5 -62.5t-50.5 -49.5q-11 -28 -27 -72t-32 -90.5t-27 -90t-11 -69.5zM188 283q21 21 49.5 49
t55 59.5t47 64t25.5 62.5q3 12 2.5 23.5t-5 18.5t-13 7t-21.5 -11q-14 -12 -27 -28.5t-23.5 -34.5t-19.5 -36.5t-16 -34.5q-14 -32 -27.5 -68t-26.5 -71z" />
    <glyph glyph-name="e" unicode="e" horiz-adv-x="176" 
d="M7 133q22 14 45.5 39t34.5 51q5 14 1 22.5t-21 -2.5q-13 -8 -22.5 -21t-17 -28t-12.5 -31t-8 -30zM4 118q-3 -17 -4 -37t9 -35q6 -10 14.5 -11.5t17.5 2.5t18 11t17 15q16 15 31 34t28 38t23.5 35t17.5 27q2 5 6.5 3t2.5 -7q-6 -11 -17 -28t-24.5 -36t-28.5 -38t-31 -35
q-10 -11 -23 -20.5t-26.5 -14.5t-26 -4.5t-21.5 11.5q-10 11 -14 26t-4.5 31t2 32t5.5 29q4 15 11.5 32.5t17.5 33t23 28.5t29 19q26 10 37 -4t2 -37q-6 -15 -16 -29t-22.5 -27t-26.5 -24.5t-27 -19.5z" />
    <glyph glyph-name="f" unicode="f" horiz-adv-x="169" 
d="M37 184q-5 -2 -6 2.5t4 6.5q20 9 39.5 25.5t35.5 37t28.5 42t18.5 41.5q5 15 2.5 22.5t-21.5 -6.5q-57 -54 -93 -124.5t-60 -139.5q34 2 83 24t102 82q4 5 7.5 2t0.5 -8q-29 -32 -56.5 -52.5t-52.5 -33t-47.5 -18.5t-40.5 -7q-3 -6 -4.5 -12t-3.5 -11q15 -17 21.5 -53
t5.5 -77.5t-11 -81t-28 -62.5q-16 -20 -32 -23t-26 23q-9 22 -7 60.5t9.5 80t17.5 80.5t18 62q-5 5 -9.5 8t-9.5 7q-6 5 -3 9t10 3q4 -1 8.5 -1.5t12.5 -1.5q12 33 30 74.5t40.5 81.5t49 73.5t55.5 50.5q13 8 23 8.5t16 -4.5t7 -14t-3 -21q-7 -21 -20 -44t-30.5 -44.5
t-38 -39.5t-42.5 -27zM-54 80q-1 0 -5 1t-6 1l10 -4zM-31 44q-7 -20 -17 -55t-18 -72.5t-12.5 -72t-0.5 -53.5q3 -11 7 -15t9 -2.5t10.5 6.5t10.5 13q15 23 22.5 58.5t9 72.5t-3.5 69.5t-17 50.5z" />
    <glyph glyph-name="g" unicode="g" horiz-adv-x="244" 
d="M77 241q-14 -9 -27.5 -22.5t-25 -29.5t-21 -32.5t-15.5 -30.5q-3 -8 -6.5 -19.5t-3.5 -19.5t5.5 -9.5t20.5 9.5q32 24 54.5 50.5t50.5 47.5q2 4 7.5 6t11.5 1.5t10 -3t3 -7.5q-3 -19 -11 -58t-24 -90q16 14 35 34t38 42t36 44.5t29 41.5q3 5 7.5 2.5t0.5 -7.5
q-13 -21 -31 -45t-38 -47t-41.5 -44t-41.5 -37q-8 -28 -19 -57q-9 -26 -25.5 -65t-38.5 -77.5t-47.5 -70.5t-53.5 -43q-18 -7 -30 -4t-18 12.5t-6 24t7 31.5q10 28 33 61.5t51 65.5t57 60t52 46q16 47 27.5 94.5t16.5 75.5q-26 -25 -49 -49t-49 -44q-19 -13 -32.5 -14.5
t-20.5 5t-7.5 19.5t5.5 30q8 22 21.5 45.5t31 44t38 35t43.5 19.5q18 4 35.5 2t24.5 -15q3 -5 -2 -8t-8 2q-3 6 -10.5 8t-16.5 0.5t-18 -4.5t-15 -7zM49 -36q2 5 4 10.5t4 10.5q-21 -16 -47.5 -42.5t-52.5 -57t-47.5 -62t-31.5 -56.5q-15 -41 3 -49.5t49 23.5q18 19 36 48
t33.5 60.5t28.5 62t21 52.5z" />
    <glyph glyph-name="h" unicode="h" horiz-adv-x="257" 
d="M-3 51q-4 -1 -10 -1t-11 1.5t-8 4t-2 6.5q5 33 16 79.5t26 98t35 104.5t43 99.5t50 82t56 52.5q19 11 33.5 10t23 -10t9.5 -24.5t-6 -34.5q-11 -28 -34 -61t-51 -65.5t-57.5 -60t-51.5 -45.5q-6 -19 -13.5 -46.5t-15 -57t-14 -58t-10.5 -50.5v1q27 39 54.5 81.5
t64.5 73.5q10 9 22 12t21 0.5t14.5 -10.5t4.5 -22q-3 -33 -18.5 -67.5t-33.5 -69.5t-34.5 -70t-22.5 -68q-2 -14 4.5 -15t22.5 19q21 25 42 57.5t40.5 67t37.5 69t33 63.5q3 5 7.5 3t2.5 -7q-15 -29 -33.5 -64t-39 -70.5t-42 -69t-42.5 -58.5q-13 -15 -25 -20t-20 -1.5
t-12 15.5t0 31q6 31 22 66.5t33 70t30 65t15 51.5q0 12 -5 18.5t-19 -4.5q-13 -10 -30 -30.5t-34.5 -44.5t-33 -47.5t-26.5 -39.5q-4 -9 -8 -10zM64 304q22 17 48.5 43.5t52 56.5t46.5 61t32 57q14 34 0 46t-41 -8q-23 -18 -44 -50.5t-39 -69t-32 -73t-23 -63.5z" />
    <glyph glyph-name="i" unicode="i" horiz-adv-x="110" 
d="M43 220q-8 -21 -19.5 -46.5t-22 -51.5t-18.5 -51.5t-10 -46.5q-1 -12 1.5 -15t7 -0.5t9.5 7.5t9 10q13 16 27.5 38t29.5 46t28.5 46.5t24.5 40.5q2 5 6.5 2.5t1.5 -7.5q-11 -18 -25 -41t-28.5 -46t-29.5 -45t-28 -40q-12 -16 -24 -21.5t-21 -2.5t-13.5 14.5t-1.5 29.5
q3 20 12.5 52.5t20.5 63t20.5 52.5t11.5 22q1 3 6.5 4t12 0t10.5 -4.5t2 -9.5zM45 278q17 0 15 -16q-2 -6 -7 -10.5t-13 -4.5q-7 0 -11 4.5t-3 10.5q1 7 7 11.5t12 4.5z" />
    <glyph glyph-name="j" unicode="j" horiz-adv-x="125" 
d="M-12 34q16 14 35 34t37.5 42.5t35.5 45t29 41.5q2 5 6.5 2.5t1.5 -7.5q-14 -21 -31.5 -45t-37 -47.5t-40.5 -44.5t-41 -37q-3 -14 -8 -28.5t-10 -28.5q-9 -26 -25.5 -65t-37.5 -77.5t-46 -70.5t-52 -43q-18 -7 -30 -4t-18.5 12.5t-7 24t5.5 31.5q10 28 33 61.5t50.5 65.5
t56 60t51.5 46q7 23 15.5 51t16 57.5t14.5 57.5t12 51q0 4 5.5 6.5t12 2.5t11.5 -2.5t4 -6.5q-4 -18 -9.5 -42t-12 -49t-13.5 -49.5t-13 -44.5zM27 274q7 0 11 -4.5t3 -10.5q-1 -8 -6.5 -12t-12.5 -4t-11.5 4t-3.5 12q2 6 7 10.5t13 4.5zM-67 -36q2 5 3.5 10.5t3.5 10.5
q-20 -16 -46.5 -42.5t-52 -57t-47 -62t-30.5 -56.5q-7 -20 -5.5 -33t9.5 -16.5t21 2t28 21.5q17 19 34.5 48t33 60.5t28 62t20.5 52.5z" />
    <glyph glyph-name="k" unicode="k" horiz-adv-x="237" 
d="M0 55q0 -4 -6 -5.5t-13 -0.5t-12.5 4t-4.5 8q5 33 16 79.5t26.5 98t35.5 104t43 99t50 82t56 52.5q19 11 33.5 10.5t22.5 -9.5t9.5 -24.5t-5.5 -34.5q-11 -28 -34.5 -61t-51.5 -65t-57.5 -60t-51.5 -46q-5 -16 -11 -38t-12 -46t-12 -49t-11 -47q23 40 51.5 80t60.5 68
q8 6 17.5 11.5t17.5 6t13 -4.5t4 -19q-5 -31 -29 -57t-50 -43q-13 -8 -19.5 -31t-8 -50t0.5 -52t6 -37q5 -17 12.5 -19.5t18.5 5.5q19 13 39 43.5t38 65.5t32.5 69t22.5 55q2 5 7 4t3 -6q-9 -23 -24.5 -60t-35 -74.5t-41.5 -69t-45 -42.5q-14 -5 -26 -2t-22 20
q-8 13 -12.5 40.5t-3.5 57t9 55.5t25 37q16 10 28 21t23 28q15 16 18 33q5 16 1.5 15t-13.5 -9q-17 -14 -34.5 -34.5t-34 -44.5t-31.5 -49t-26 -47q-1 -3 -1 -7t-1 -8zM62 303q20 16 46.5 42.5t52.5 57t47.5 62t32.5 56.5q14 34 0 46t-40 -9q-23 -18 -44.5 -50t-39.5 -69
t-32 -73t-23 -63z" />
    <glyph glyph-name="l" unicode="l" horiz-adv-x="173" 
d="M43 -27q26 38 60 98t70 126q2 5 6.5 3t1.5 -7q-37 -70 -72.5 -132.5t-61.5 -99.5q-26 -36 -44.5 -46t-29.5 -0.5t-15.5 34.5t-1.5 60q4 43 15.5 96t28.5 109.5t39.5 112t48 103.5t53.5 84.5t57 54.5q15 10 32 10t25 -16q7 -14 4.5 -36.5t-16.5 -50.5q-13 -26 -36 -55.5
t-50.5 -59t-55 -56.5t-49.5 -47q-11 -28 -22.5 -63.5t-21 -72.5t-16.5 -73t-8 -64q-3 -57 11.5 -58.5t47.5 46.5zM206 550q-25 -24 -47 -58t-41 -71.5t-34 -75.5t-27 -68q20 19 45.5 44.5t51 52.5t47 54.5t33.5 50.5q13 26 15 46.5t-3 31.5q-7 13 -19 7t-21 -14z" />
    <glyph glyph-name="m" unicode="m" horiz-adv-x="316" 
d="M39 221q-14 -42 -29.5 -81.5t-26.5 -75.5q5 7 14.5 22.5t21 32.5t23 34.5t20.5 29.5q10 14 21 21t18.5 6.5t11 -9t-1.5 -24.5q-4 -12 -8.5 -26t-8.5 -25q20 28 42.5 57t47.5 49q10 9 22 12t21 0t14.5 -11t3.5 -22q-4 -30 -19 -62.5t-33 -65.5t-35.5 -66.5t-26.5 -64.5
q-3 -10 -3.5 -18t2 -11t8.5 0.5t17 16.5q21 25 43 57.5t43 67t40 68.5t35 63q3 5 7 3.5t1 -6.5q-16 -29 -35 -64t-40.5 -70t-43.5 -68t-44 -58q-13 -15 -25 -20.5t-20.5 -2t-12 15.5t1.5 32q7 31 24 66.5t34.5 69.5t31.5 64.5t16 52.5q1 11 -3.5 17.5t-19.5 -4.5
q-9 -7 -21 -20t-24.5 -29t-25.5 -33.5t-25 -33.5q-3 -4 -9 -6.5t-11 -1.5t-8 6.5t0 16.5q3 8 8 21.5t10 31.5q6 17 1 15t-14 -13q-5 -7 -18.5 -27.5t-27.5 -42.5t-26 -39.5t-14 -18.5q-8 -5 -20.5 -1.5t-12.5 14.5q4 13 11 34t15.5 44t16.5 45.5t14 38.5q2 4 8 6t12 1t10 -4
t2 -7z" />
    <glyph glyph-name="n" unicode="n" horiz-adv-x="236" 
d="M41 219q-13 -35 -27 -69.5t-26 -69.5q12 18 26.5 39.5t30 43t31 40t28.5 29.5q11 9 22.5 12t21 0.5t15 -11t4.5 -22.5q-5 -32 -21.5 -66t-36 -69t-37 -69.5t-24.5 -67.5q-3 -14 4.5 -16t22.5 17q21 26 43.5 58.5t43.5 67t40 68t35 62.5q2 5 6.5 3.5t2.5 -6.5
q-16 -29 -35.5 -64t-40.5 -70t-43.5 -68t-43.5 -58q-13 -15 -25.5 -20.5t-21 -2t-12 15.5t1.5 32q7 31 24 66.5t34.5 69.5t31.5 64.5t16 52.5q1 11 -3.5 17.5t-19.5 -4.5q-11 -8 -28 -29.5t-36 -47.5t-37.5 -52.5t-30.5 -43.5q-9 -4 -19 -1t-10 13q4 13 11 33.5t15.5 43
t17.5 44t15 37.5q2 5 8 7t12.5 1.5t10.5 -3.5t3 -7z" />
    <glyph glyph-name="o" unicode="o" 
d="M40 50q11 10 19.5 24.5t16.5 31.5q-26 0 -45 18t-27 41q-6 -11 -11.5 -26t-8 -31t-1.5 -31.5t7 -26.5q10 -18 23.5 -15t26.5 15zM-31 34q-13 15 -15 38.5t3.5 48t16.5 47t24 35.5q3 25 18.5 40.5t34 18t34.5 -10.5t20 -45q2 -17 -1.5 -40.5t-11.5 -47.5q26 8 46 32.5
t33 48.5q2 5 6.5 2.5t1.5 -7.5q-7 -14 -16 -28t-20.5 -26t-25.5 -21t-30 -11q-15 -40 -40 -65q-16 -16 -38.5 -21t-39.5 12zM11 214q5 3 8.5 5t8.5 4q4 1 8 -1.5t6 -6.5t1 -8.5t-5 -7.5q-11 -7 -15.5 -11t-11.5 -12q3 -11 9 -22t15 -19.5t20.5 -13.5t24.5 -4q7 19 12 42.5
t2 43.5q-3 25 -14 36.5t-24.5 12t-26 -9.5t-18.5 -28z" />
    <glyph glyph-name="p" unicode="p" horiz-adv-x="237" 
d="M-53 79q7 19 16.5 43.5t19.5 49t19.5 46t17.5 35.5q2 4 8 4t12 -2.5t9.5 -6t1.5 -7.5q-5 -8 -14 -27t-17 -37q21 23 41.5 43t45.5 31q20 9 34.5 4.5t19.5 -17.5t2.5 -30t-9 -34.5t-16 -34t-17.5 -29.5q34 9 64.5 33.5t50.5 53.5q3 5 7 3t2 -7q-23 -34 -57.5 -60.5
t-74.5 -34.5q-14 -20 -36 -39t-46 -21q-22 0 -32.5 9.5t-10.5 21.5t10.5 23t30.5 14q14 2 25.5 1t25.5 -1q9 12 18 27.5t16.5 31.5t12 32t4.5 30q-1 8 -5 14.5t-16 1.5t-25 -15.5t-26 -23t-25.5 -26t-22.5 -25.5q-2 -3 -6.5 -13t-10 -24t-11.5 -31t-12 -33
q-8 -20 -13.5 -36.5t-7.5 -23.5q9 -25 19 -57t16 -66.5t5 -68.5t-14 -64q-12 -30 -34 -35t-42 19q-15 18 -19 45.5t-1.5 60t10.5 68.5t18 69.5t20.5 64t18.5 51.5zM-55 -24q-8 -25 -18 -57.5t-16.5 -66.5t-6.5 -66.5t12 -56.5q10 -20 25 -17t25 26q12 29 14 60t-2.5 61.5
t-13.5 60.5t-19 56zM73 96q-22 3 -44 0q-14 -2 -21.5 -10.5t-7.5 -16.5t6.5 -13.5t20.5 -0.5q13 5 25.5 17.5t20.5 23.5z" />
    <glyph glyph-name="q" unicode="q" horiz-adv-x="233" 
d="M68 7q16 16 38 40.5t45 50.5q27 30 49.5 57t33.5 42q4 5 7 3t1 -7q-11 -16 -34 -43t-50 -58q-24 -27 -48 -53t-40 -43q10 -23 18.5 -56t12 -69t0.5 -71.5t-16 -63.5q-15 -32 -37 -37.5t-39 19.5q-14 20 -15 57.5t4.5 80t16 85t21.5 72.5q14 41 30.5 79.5t36.5 77.5
q-29 -25 -55.5 -51.5t-57.5 -49.5q-21 -15 -34.5 -17t-20 5t-6 22t8.5 35q8 18 21 37.5t28 37t32.5 31.5t34.5 23q9 4 21.5 7.5t25 4t22.5 -3t15 -13.5q2 -3 -1.5 -5.5t-5.5 2.5q-4 6 -11.5 7t-16.5 -0.5t-18 -5t-15 -6.5q-15 -8 -29 -22t-26.5 -29.5t-23 -32t-17.5 -30.5
q-4 -8 -9 -18.5t-6 -19t4 -10.5t21 8q35 25 64.5 56.5t62.5 52.5q11 7 21.5 1.5t6.5 -13.5q-21 -38 -39 -81t-32 -85zM61 -12q-8 -26 -18 -61t-17 -71.5t-8.5 -70t7.5 -56.5q10 -25 24.5 -19.5t24.5 28.5q13 30 17 62.5t1 65t-11 64t-19 59.5z" />
    <glyph glyph-name="r" unicode="r" horiz-adv-x="209" 
d="M11 211q3 4 5 8t4 9q3 8 8 24t6 29q0 11 -3 11.5t-7 -4.5t-8 -12t-5 -10q-8 -19 -7 -32.5t7 -22.5zM28 223q-3 -8 -10 -19q14 -13 36 -16t39 -4q5 0 5 -5q-1 -3 -11 -28q-5 -14 -15 -38.5t-18.5 -52t-14 -53.5t-1.5 -43q4 -18 17 -14t24 15q12 12 28.5 35t34 53t35 66.5
t33.5 77.5q2 4 6.5 2t2.5 -5q-16 -41 -34 -78t-35.5 -68t-34.5 -54t-30 -36q-18 -17 -37 -19.5t-29 23.5q-8 21 -5 50.5t11.5 59.5t19.5 58t19 47q-17 1 -32 4t-29 12q-21 14 -22.5 35t7.5 41q5 10 14.5 19.5t18.5 13.5t15.5 -1t5.5 -23q-1 -14 -5 -30t-9 -25z" />
    <glyph glyph-name="s" unicode="s" horiz-adv-x="183" 
d="M90 243q2 -5 -1.5 -8t-6.5 2q-14 13 -26 4.5t-19 -22.5q-9 -17 -8.5 -35.5t5.5 -36.5t12 -35.5t11 -33.5q32 21 66 49t60 69q3 5 7 2t1 -7q-26 -42 -61.5 -71.5t-70.5 -52.5q4 -16 3 -34t-7 -34.5t-17 -30.5t-28 -22t-30.5 -6.5t-21 10.5t-8 22.5t9.5 29.5q13 19 33 34
t35 25q-4 21 -13 43t-15 44t-5 44t16 43q7 10 18 16t22 7.5t21.5 -2.5t17.5 -13zM29 50q-14 -9 -33.5 -24.5t-29.5 -33.5q-6 -11 -5.5 -21t6.5 -15t15.5 -4t20.5 12q17 16 22.5 40t3.5 46z" />
    <glyph glyph-name="t" unicode="t" 
d="M-174 344q17 20 41.5 27t48.5 10q31 2 68.5 -1t76.5 -6q4 10 7.5 19.5t8.5 19.5q2 6 7.5 7.5t11 0t9.5 -5.5t2 -9l-12 -34q24 -2 47.5 -1.5t45.5 2.5q58 6 73 30q3 2 6.5 -0.5t1.5 -6.5q-12 -14 -32.5 -21.5t-46.5 -10.5q-25 -3 -49.5 -3t-49.5 2q-8 -21 -15.5 -41
t-15.5 -41q-15 -39 -33.5 -90t-35.5 -102t-29 -95t-14 -70q-1 -18 3.5 -23t12 -3t16.5 9.5t15 14.5q23 26 48.5 62t49.5 74t44 74.5t34 64.5q2 5 7 3.5t2 -6.5q-14 -28 -34.5 -64.5t-44.5 -75t-49.5 -74.5t-48.5 -63q-16 -18 -30.5 -26t-25.5 -5t-17 16.5t-4 38.5
q2 28 12.5 70t25 88.5t31 93.5t30.5 86l32 87q-35 3 -70.5 5.5t-70.5 0.5q-25 -2 -46.5 -10t-37.5 -25q-2 -2 -5 1t-1 6z" />
    <glyph glyph-name="u" unicode="u" horiz-adv-x="248" 
d="M36 212q-5 -15 -12.5 -34.5t-14 -40t-11.5 -40.5t-6 -35q-1 -9 0 -15.5t5 -8t11 3.5t19 20q29 35 52.5 76t45.5 81q9 17 16 29.5t12 17.5q3 3 9.5 5t11.5 1.5t8 -5t-1 -14.5q-11 -28 -26 -71t-28 -89.5t-22 -90t-9 -72.5q0 -7 1 -12t4 -6t8.5 3.5t13.5 15.5
q11 16 24.5 42t27.5 55.5t27 59.5t23.5 54t16.5 39.5l6 15.5q2 5 6.5 2.5t1.5 -7.5q-1 -2 -7 -17t-15.5 -38.5t-22.5 -52.5t-27 -58t-28 -55.5t-27 -45.5q-21 -29 -35.5 -26.5t-18.5 29.5q-4 22 2 61.5t16 82.5t21.5 82t20.5 61q-22 -39 -46.5 -81t-53.5 -78
q-9 -12 -21.5 -21t-24 -11.5t-19.5 3t-9 23.5q-2 14 3 36.5t12 46.5t15 46.5t14 37.5q3 8 9.5 11t12.5 1.5t9 -6.5t0 -11z" />
    <glyph glyph-name="v" unicode="v" horiz-adv-x="228" 
d="M42 229q-6 -17 -15.5 -43t-18.5 -54.5t-16.5 -55t-9.5 -44.5q-2 -8 -1.5 -15t3 -10.5t8 -2t14.5 11.5q18 19 35 43t32.5 49.5t30.5 51t30 48.5q5 7 10 13.5t7 10.5q5 5 7.5 4.5t2.5 -3.5q1 -9 2.5 -18.5t6.5 -20.5q9 -17 27.5 -14t30.5 17q4 4 7.5 1.5t-0.5 -7.5
q-17 -19 -40.5 -21.5t-34.5 19.5q-4 6 -6 13t-3 13q-15 -22 -31.5 -49.5t-34 -55.5t-36 -54.5t-37.5 -45.5q-22 -23 -40 -20t-20 30q-1 17 5.5 46.5t16 60t19.5 58.5l15 42q4 9 10.5 12.5t12.5 3t9.5 -4.5t1.5 -9z" />
    <glyph glyph-name="w" unicode="w" horiz-adv-x="331" 
d="M49 241q-17 -35 -35.5 -78t-22.5 -81q-1 -10 0 -18.5t4.5 -12t11 0t19.5 17.5t25.5 33t25.5 38.5t21.5 37t12.5 28.5q3 4 9 5.5t12 1.5t10 -2t4 -5q-5 -18 -12 -40.5t-14 -47t-12 -48t-5 -42.5q0 -23 5 -28t13.5 0t18 17.5t17.5 25.5q26 43 47 93.5t40 96.5l7 16q2 4 6 4
t4 -5q0 -3 2 -17.5t9 -28.5q10 -20 26 -22.5t34 17.5q4 4 7.5 1t-0.5 -8q-22 -24 -43.5 -21.5t-33.5 28.5q-4 8 -5.5 16.5t-3.5 16.5q-18 -45 -39.5 -95.5t-47.5 -94.5q-12 -20 -27 -35.5t-29 -21t-24.5 3t-12.5 38.5q-1 19 2.5 40.5t8.5 38.5q3 14 7 28l8 28
q-5 -8 -12.5 -20.5t-16.5 -26t-19 -27t-19 -23.5q-14 -18 -27 -24t-22.5 -2.5t-15 15t-5.5 29.5q1 16 6.5 37t14 43t17 42.5t15.5 35.5q3 7 10 10.5t13 3.5t10 -3.5t1 -8.5z" />
    <glyph glyph-name="x" unicode="x" horiz-adv-x="200" 
d="M29 227q1 -16 2.5 -43t3.5 -54q20 26 39 53t30 53q2 5 7 3t3 -7q-14 -31 -35 -60.5t-43 -55.5q2 -19 5 -44t12 -41q5 -10 13 -9.5t16 6.5t16 15t13 15q15 18 29 38.5t26 40t21 36t14 24.5q3 5 7 3t2 -7q-5 -9 -14 -25.5t-21 -36t-26 -40.5t-29 -39q-13 -15 -26 -26
t-25.5 -16.5t-23.5 -4.5t-19 11q-10 13 -14 31.5t-6 34.5q-25 -28 -43.5 -46.5t-28.5 -25.5q-5 -2 -7.5 2t2.5 7q10 6 30 26.5t46 50.5q-3 32 -5 65t-4 65q0 6 4.5 9.5t10.5 4t11.5 -2.5t6.5 -10z" />
    <glyph glyph-name="y" unicode="y" horiz-adv-x="245" 
d="M109 34q16 14 35 34t37.5 42t35 44.5t28.5 41.5q3 5 7 2.5t2 -7.5q-14 -21 -31.5 -45t-37 -47t-40.5 -44t-41 -37q-4 -14 -8.5 -28.5t-9.5 -28.5q-9 -26 -25.5 -65t-37.5 -77.5t-46 -70.5t-53 -43q-18 -7 -30 -4t-18 12.5t-6 24t6 31.5q10 28 33 61.5t50.5 65.5t56 60
t51.5 46q16 51 29.5 104t26.5 107q-19 -42 -41.5 -86t-54.5 -78q-5 -6 -13.5 -13t-18 -11t-18 -3t-13.5 11q-8 15 -5 38.5t10.5 50t17 51t15.5 40.5q3 6 9.5 9t12.5 2.5t9.5 -4.5t0.5 -12q-5 -13 -13.5 -34.5t-16 -44.5t-12 -44t-2.5 -33q2 -8 6 -10t8.5 0t9.5 6.5t10 9.5
q34 39 57.5 88.5t45.5 95.5q3 7 9 9t12 1t10 -5t3 -8q-2 -12 -8 -39.5t-14.5 -58.5t-16.5 -60.5t-13 -46.5zM54 -36q2 5 3.5 10.5t3.5 10.5q-20 -16 -46.5 -42.5t-52 -57t-46.5 -62t-30 -56.5q-7 -20 -5.5 -33t9.5 -16.5t20.5 2t27.5 21.5q18 19 35 48t32.5 60.5t28 62
t20.5 52.5z" />
    <glyph glyph-name="z" unicode="z" horiz-adv-x="230" 
d="M3 197l10 14t10 15q18 30 11 40t-25 -17q-14 -19 -16 -32q-1 -16 10 -20zM46 -35q-11 29 -26.5 52.5t-35.5 36.5q-4 2 -2.5 6t4.5 7q9 7 28.5 23.5t41 36t39.5 39t23 33.5q8 20 -12 14q-14 -3 -32.5 -11t-31.5 -12q-8 -3 -19.5 -4t-21.5 1.5t-16.5 9.5t-4.5 20
q2 8 7 19.5t13 22.5q11 14 22.5 18t17.5 -1.5t5.5 -20t-13.5 -35.5q-5 -6 -9 -12.5t-9 -11.5q12 -1 26 3q14 3 32.5 11.5t34.5 12.5q32 7 41 -10t-7 -43q-13 -19 -32.5 -37t-40.5 -33t-40 -26t-29 -16q45 -20 72 -67q48 49 86 98.5t72 106.5q3 5 7 2.5t2 -7.5
q-35 -60 -74.5 -109.5t-87.5 -98.5q16 -32 19.5 -71.5t-6 -78t-32.5 -70t-60 -46.5q-17 -7 -32.5 -7.5t-26 5.5t-15.5 19t-2 33q4 24 19 52.5t33.5 56t38.5 51t34 38.5zM50 -46q-15 -15 -34 -38t-37 -50t-31.5 -54.5t-16.5 -50.5q-2 -17 3 -25.5t14 -10.5t20.5 2t23.5 12
q25 19 40.5 45t22 54.5t5 58.5t-9.5 57z" />
    <glyph glyph-name="braceleft" unicode="{" horiz-adv-x="323" 
d="M141 425q11 23 25 50t33.5 48t44 31t56.5 -2q4 -2 2.5 -6.5t-6.5 -2.5q-22 8 -39 0.5t-30.5 -24t-24.5 -40.5t-21 -49q-9 -20 -18.5 -39t-22.5 -36t-31.5 -30.5t-44.5 -22.5q15 -11 19.5 -29t3 -38t-6.5 -40t-9 -34q-9 -30 -17 -59.5t-8 -53.5t12 -39t42 -15q5 0 5 -5
t-5 -5q-50 0 -66.5 28.5t-11.5 75.5q2 22 7.5 44.5t11.5 45.5q4 16 9 32t6.5 31.5t-1 30.5t-12.5 30q-2 2 -3.5 6.5t5.5 6.5q19 0 33.5 12t26.5 29t20.5 36t15.5 33z" />
    <glyph glyph-name="bar" unicode="|" horiz-adv-x="69" 
d="M46 565q0 -1 0.5 -23.5t0.5 -59.5t-0.5 -84t-0.5 -97t-0.5 -99.5t-0.5 -90.5t0.5 -70.5t0.5 -39.5q-2 -8 -10 -7t-10 7l2 562q0 5 8 5t10 -3z" />
    <glyph glyph-name="braceright" unicode="}" horiz-adv-x="324" 
d="M189 167q-11 -23 -26 -58t-35.5 -65.5t-46 -47.5t-57.5 -5q-5 2 -3.5 6.5t6.5 2.5q22 -9 40 6t33 41t27 57.5t23 56.5q8 20 17.5 39.5t22.5 36.5t31.5 30.5t44.5 22.5q-15 11 -19.5 24t-3.5 27.5t5.5 29t8.5 28.5q10 30 15 51t5 44q0 24 -11.5 39t-41.5 15q-5 0 -5 5t5 5
q50 0 66.5 -28.5t11.5 -74.5q-2 -22 -5.5 -36t-9.5 -37q-4 -16 -8 -27t-5.5 -20.5t1.5 -19.5t12 -25q2 -3 3.5 -7.5t-5.5 -6.5q-19 0 -33.5 -11.5t-26.5 -28.5t-20.5 -36t-15.5 -33z" />
    <glyph glyph-name="asciitilde" unicode="~" horiz-adv-x="243" 
d="M30 286q-3 -3 -7 0.5t-1 6.5q12 13 24.5 19t26 7t27.5 -2t29 -7q12 -3 24 -6.5t23 -4.5t20.5 1t16.5 9q5 4 8 0t0 -7q-26 -24 -52 -23t-57 10l-24 6t-22.5 3.5t-19.5 -2t-16 -10.5z" />
    <glyph glyph-name="sterling" unicode="&#xa3;" horiz-adv-x="424" 
d="M161 266q-8 0 -7.5 7t7.5 7h48q10 33 20 68t23.5 68.5t31.5 63.5t45 54q19 17 35.5 22t28 1t17 -14.5t4.5 -24.5h-11q1 19 -12 24.5t-41 -21.5q-21 -21 -38 -50.5t-29.5 -62t-22.5 -65.5t-18 -63h52q8 0 8 -7t-8 -7q-13 0 -21 -0.5t-14 -0.5h-10.5h-10.5l-3 -12
q-17 -60 -36.5 -117.5t-44.5 -100.5q22 -4 45.5 -10.5t47.5 -12.5t48 -8.5t46 1.5q30 6 47 25q4 3 6.5 -1t0.5 -6q-19 -22 -53 -28q-23 -5 -47.5 -2t-49.5 9t-49.5 13t-47.5 10q-14 -23 -36 -44.5t-51 -29.5q-23 -5 -35 2.5t-14.5 20.5t6 28t27.5 26q16 9 36.5 11t40.5 0
q24 43 42.5 99.5t37.5 117.5l3 9h-20t-24 1zM116 29q-17 1 -36 -1t-33 -10q-15 -9 -21.5 -21t-5 -21.5t10 -13t23.5 4.5q20 11 34.5 26t27.5 36z" />
    <glyph glyph-name="yen" unicode="&#xa5;" horiz-adv-x="518" 
d="M238 561q12 -3 25.5 -11t25 -19t20.5 -24.5t12 -28.5q7 -34 1 -74.5t-19.5 -84t-32 -87.5t-35.5 -84.5t-30 -75t-16 -59.5q-2 -14 4 -22t26 1q10 4 28 23.5t40 47t46.5 59.5t47 63t41 57.5t30.5 41.5q9 11 21.5 11.5t10.5 -12.5q-2 -8 -8.5 -32t-16.5 -56.5t-21.5 -70.5
t-23.5 -74h70q6 -1 5.5 -7.5t-5.5 -6.5h-75q-3 -11 -6.5 -22t-7.5 -22h68q6 0 6 -7.5t-6 -7.5h-73q-11 -31 -24.5 -62t-29 -59t-33 -51.5t-38.5 -39.5q-23 -18 -43.5 -22.5t-41.5 1.5q-25 7 -44 27.5t-29 50.5q-2 5 3 6t6 -4q8 -26 26 -45.5t41 -22.5q27 -3 52 16
q20 16 37.5 38.5t32.5 49.5t27 57t23 60h-64q-6 0 -6 7.5t6 7.5h69l15 44h-63q-6 0 -6 7.5t6 7.5q16 -1 33 -1h34q10 31 20.5 65.5t19.5 63.5t15.5 50t7.5 27q-11 -14 -28.5 -38.5t-38 -53t-43 -58.5t-43 -56t-38 -44.5t-28.5 -23.5q-25 -11 -39.5 -8t-21 15.5t-5.5 32.5
t7 43q7 24 20.5 56.5t29.5 69.5t32 76.5t26.5 78t14 74.5t-5.5 65q-6 18 -20 38t-29 26z" />
    <glyph glyph-name="section" unicode="&#xa7;" horiz-adv-x="833" 
d="M214 272q-2 25 -2.5 56.5t2.5 63t10.5 59.5t23.5 45q10 10 24 18q7 32 20 53.5t38 32.5q23 11 43 4.5t32 -23.5t14.5 -41.5t-7.5 -50.5q-8 -18 -19.5 -34t-26.5 -31l-7 7q15 15 27 31.5t18 34.5q8 21 4.5 44t-15 37t-28.5 13t-36 -26q-21 -36 -25.5 -83t-2 -99.5
t7.5 -107.5t2 -106t-17.5 -95t-51.5 -75q-14 -43 -41.5 -73.5t-78.5 -39.5q-43 -8 -85 5t-65 47q-23 32 -23 70.5t17 75.5q2 5 6.5 3t2.5 -7q-17 -34 -17 -69.5t21 -66.5q24 -35 66.5 -44.5t86.5 11.5q45 22 64.5 66.5t24.5 97t0.5 105.5t-7.5 92zM265 457
q-11 -31 -14.5 -71.5t-1.5 -83.5q2 -51 7 -110t0 -116q16 48 18.5 96t-0.5 96t-7.5 95t-1.5 94z" />
    <glyph glyph-name="dieresis" unicode="&#xa8;" horiz-adv-x="139" 
d="M37 546q7 0 12 -5q2 -3 4 -5.5t2 -7.5q0 -7 -6 -11q-5 -5 -12 -5q-6 0 -11 5q-6 3 -6 11q0 7 6 13q5 5 11 5zM101 546q7 0 12 -5q2 -3 4 -5.5t2 -7.5q0 -7 -6 -11q-5 -5 -12 -5q-6 0 -11 5q-6 3 -6 11q0 7 6 13q5 5 11 5z" />
    <glyph glyph-name="guillemotleft" unicode="&#xab;" horiz-adv-x="278" 
d="M149 6q4 -3 0.5 -6.5t-7.5 0.5q-9 9 -24.5 20t-32.5 22.5t-33.5 22t-28.5 18.5q-2 2 -2 5t2 4l162 82q4 2 7 -2.5t-2 -6.5q-32 -20 -63.5 -38.5t-64.5 -38.5zM214 6q3 -3 0 -6.5t-8 0.5q-9 9 -24.5 20t-32.5 22.5t-33 22t-28 18.5q-3 2 -3 5t3 4l162 82q4 2 7 -2.5
t-2 -6.5q-32 -20 -64 -38.5t-64 -38.5z" />
    <glyph glyph-name="logicalnot" unicode="&#xac;" horiz-adv-x="833" 
d="M388 285v-92q0 -8 -7 -8t-7 8q0 27 -0.5 48t-0.5 39q-35 0 -61.5 -0.5t-46.5 -0.5t-36.5 0.5t-32.5 0.5q-8 0 -7.5 7t7.5 7h185q5 0 6.5 -3t0.5 -6z" />
    <glyph glyph-name="twosuperior" unicode="&#xb2;" horiz-adv-x="473" 
d="M371 587q17 -22 14 -50t-16 -49q-14 -24 -38 -44.5t-50.5 -38t-53 -31.5t-46.5 -24q11 0 36.5 -1t52.5 0.5t48 7.5t24 18q2 2 4.5 1t1.5 -3q-4 -15 -29 -21.5t-56 -8t-60.5 0.5t-42.5 4q-2 0 -2.5 1t1.5 2q0 1 8 4q12 6 41 21t60 36t58.5 47.5t36.5 56.5q5 16 3 34.5
t-13 32.5q-12 15 -28.5 16.5t-33 -5t-30 -18t-20.5 -23.5q-9 -17 -11 -38t14 -34q2 -2 0.5 -4t-3.5 0q-17 15 -16.5 38t10.5 41q10 15 27 27.5t36.5 18.5t39 3.5t33.5 -18.5z" />
    <glyph glyph-name="threesuperior" unicode="&#xb3;" horiz-adv-x="465" 
d="M390 589q13 -12 6 -26.5t-22 -28t-32.5 -24.5t-25.5 -16q14 -8 26 -18.5t17 -22.5q8 -21 1 -43.5t-21 -36.5q-11 -12 -28 -20.5t-40 -9.5q-32 -1 -53 16t-26 49q0 2 2.5 2t3.5 -2q4 -29 25 -46.5t52 -11.5q30 6 49 27q14 15 19.5 36t-2.5 39q-9 25 -36 40q-4 1 0 3
q7 4 21 14t26.5 21.5t20.5 24t5 23.5t-13 13t-22 -1.5t-23.5 -9t-16.5 -9.5q-2 -2 -3.5 0t0.5 4q7 5 19 11t25 9t25 2t21 -8z" />
    <glyph glyph-name="acute" unicode="&#xb4;" horiz-adv-x="102" 
d="M63 557q4 4 9 1q2 -2 4.5 -4t4.5 -5q2 -4 -1 -7l-51 -46q-4 -4 -7 -0.5t-1 6.5z" />
    <glyph glyph-name="mu" unicode="&#xb5;" horiz-adv-x="305" 
d="M276 56q-5 -5 -9.5 -7t-12.5 -1q-19 2 -28.5 19t-12.5 43q-3 22 -2 49.5t4.5 55.5t8 55t8.5 48q-14 -39 -33 -79.5t-42 -75.5q-6 -8 -13 -17.5t-15 -18t-17.5 -13t-19.5 -2.5l-27 -156q-2 -10 -9.5 -14.5t-16 -4t-14.5 5.5t-4 14l66 348q2 7 10 10.5t16.5 3.5t14.5 -3.5
t5 -10.5q-2 -10 -4.5 -20.5t-6 -25t-7.5 -34t-10 -46.5q0 -2 -2 -13t-2 -22t3.5 -17.5t13.5 1.5q6 5 14.5 15t18.5 24q15 22 28.5 48t25 52.5t20.5 52t16 46.5q1 7 8.5 11.5t15 4.5t13.5 -5t6 -16q-4 -26 -11.5 -67.5t-14 -85t-10 -82.5t-0.5 -60q2 -9 10.5 -10t14.5 6z" />
    <glyph glyph-name="paragraph" unicode="&#xb6;" horiz-adv-x="446" 
d="M413 562q6 0 9 -3.5t3 -8t-2.5 -8t-8.5 -3.5h-66l-181 -526q-1 -4 -5.5 -5.5t-9 -1.5t-7.5 2.5t-2 5.5l181 525h-89l-181 -526q-1 -4 -5.5 -5.5t-9.5 -1.5t-8.5 2t-2.5 6l99 291q-55 4 -80 30.5t-26 61t19 71t55 59.5q28 18 60.5 26.5t68.5 8.5h189z" />
    <glyph glyph-name="cedilla" unicode="&#xb8;" horiz-adv-x="833" 
d="M315 -4q0 -3 -1 -11t1 -9q5 -2 8 -1.5t8 -1.5q16 -6 25 -20t6 -26.5t-20 -20t-54 -1.5q-7 1 -7.5 8t9.5 6q18 -1 31.5 1t20 7.5t3.5 13t-18 16.5q-5 3 -11.5 2.5t-11.5 0.5q-7 1 -7.5 10.5t-0.5 26.5q0 4 3 6t7 2.5t6.5 -2t2.5 -7.5z" />
    <glyph glyph-name="onesuperior" unicode="&#xb9;" horiz-adv-x="311" 
d="M132 358q-3 0 -2.5 2t2.5 2h23q3 8 9 24.5t15 38.5q7 19 15.5 40.5t16 41.5t14 37.5t10.5 29.5q-14 -11 -28.5 -25.5t-14.5 -24.5q0 -2 -2.5 -2t-2.5 2q0 7 7.5 16.5t17.5 19t20.5 17.5t16.5 12q2 2 5 2.5t3 -3.5q-1 -5 -7.5 -22.5t-15.5 -41t-19.5 -50.5t-19.5 -51
q-17 -42 -24 -61q9 1 16.5 1t11.5 1q2 1 2.5 -1t-1.5 -3q-5 -2 -14 -2.5t-19 -0.5t-19.5 0.5t-15.5 0.5z" />
    <glyph glyph-name="guillemotright" unicode="&#xbb;" horiz-adv-x="330" 
d="M144 168q-3 3 0 6.5t7 0.5q10 -9 25.5 -20t32.5 -22.5t33.5 -22.5l28.5 -19q2 -2 2 -5t-2 -4l-162 -81q-5 -3 -7.5 1.5t1.5 7.5q32 19 63.5 38.5t63.5 39.5zM64 168q-3 3 -0.5 6.5t7.5 0.5q9 -9 24.5 -20t32.5 -22.5t33.5 -22.5l28.5 -19q3 -2 3 -5t-4 -4l-162 -81
q-4 -3 -6.5 1.5t2.5 7.5q32 19 63.5 38.5t63.5 39.5z" />
    <glyph glyph-name="onequarter" unicode="&#xbc;" horiz-adv-x="973" 
d="M297 398q-2 0 -2 2t2 2h18q2 6 7 19t13 30q6 15 12.5 32t12.5 33t11 30t8 23q-11 -8 -22.5 -19.5t-11.5 -19.5q0 -2 -2 -2t-2 2q0 6 6 13.5t14 15t16 13.5t13 9q2 2 4 2.5t2 -2.5q-1 -4 -6 -17.5t-12 -32.5t-15.5 -40.5t-15.5 -40.5q-6 -16 -11 -29t-8 -19h13.5t8.5 1
q2 1 2.5 -0.5t-1.5 -2.5q-4 -1 -11 -1.5t-15 -0.5h-16h-12zM552 565q4 0 4 -3q0 -1 -8 -23.5t-21 -59.5t-30.5 -84t-36 -97.5t-36.5 -100t-33.5 -90.5t-26 -70.5t-14.5 -39.5q-3 -3 -6 -3h-7q-7 0 -5 7l207 562q3 3 4 3zM591 209q-11 -15 -25 -34t-28 -37q-13 -17 -24.5 -32
t-18.5 -23q17 2 35.5 1.5t35.5 1.5q5 13 9.5 25.5t9.5 23.5q1 2 7 1t4 -3l-18 -46l6 2q2 0 2.5 -1.5t-1.5 -2.5l-7 -1l-17 -44q-3 -8 -6 -15.5t-6 -13.5q0 -2 -6 -2t-5 3l9 23q9 22 18 48q-20 -2 -43 -1t-41 -4q-1 -1 -2.5 -0.5t0.5 2.5q5 5 17.5 20.5t28.5 35.5
q14 19 29 38.5t26 35.5q0 1 6.5 1.5t4.5 -2.5z" />
    <glyph glyph-name="onehalf" unicode="&#xbd;" horiz-adv-x="1050" 
d="M552 565q4 0 4 -3q0 -1 -8 -23.5t-21 -59.5t-30.5 -84t-36 -97.5t-36.5 -100t-33.5 -90.5t-26 -70.5t-14.5 -39.5q-3 -3 -6 -3h-7q-7 0 -5 7l207 562q3 3 4 3zM628 163q12 -14 10 -33.5t-11 -33.5q-9 -16 -25 -30.5t-34 -26.5t-36.5 -21t-31.5 -15q8 -1 25 -1.5t35 0.5
t32.5 4.5t16.5 12.5q1 2 2.5 1.5t1.5 -2.5q-3 -10 -20 -14.5t-38 -5.5t-41 0t-29 2q-1 0 -1.5 1.5t1.5 1.5q0 1 5 3q9 4 28.5 14t40.5 24t39.5 32t24.5 38q4 11 3 24t-9 22q-8 10 -19.5 11t-22.5 -3.5t-20.5 -12.5t-14.5 -16q-6 -11 -7 -25t10 -23q2 -1 0.5 -2.5t-3.5 -0.5
q-11 10 -10.5 26t7.5 27q7 10 18.5 19t24.5 13t26 2.5t22 -12.5zM297 398q-2 0 -2 2t2 2h18q2 6 7 19t13 30q6 15 12.5 32t12.5 33t11 30t8 23q-11 -8 -22.5 -19.5t-11.5 -19.5q0 -2 -2 -2t-2 2q0 6 6 13.5t14 15t16 13.5t13 9q2 2 4 2.5t2 -2.5q-1 -4 -6 -17.5t-12 -32.5
t-15.5 -40.5t-15.5 -40.5q-6 -16 -11 -29t-8 -19h13.5t8.5 1q2 1 2.5 -0.5t-1.5 -2.5q-4 -1 -11 -1.5t-15 -0.5h-16h-12z" />
    <glyph glyph-name="threequarters" unicode="&#xbe;" horiz-adv-x="1127" 
d="M540 552q8 -8 3.5 -17t-14 -17.5t-20 -15.5t-15.5 -10q8 -5 16 -11.5t10 -14.5q5 -13 1 -27t-13 -23q-7 -8 -17.5 -13t-24.5 -6q-42 -2 -50 41q0 2 1.5 2t1.5 -2q3 -18 16 -29t33 -7q18 3 31 17q9 9 12 22.5t-2 24.5q-4 14 -22 24q-2 1 -2 2t2 1q5 3 13.5 9t16.5 13.5
t13 15t3 14.5t-8.5 8t-14 -1t-15 -5.5t-10.5 -6.5q-5 -2 -2 3q10 7 28 12.5t29 -3.5zM706 565q4 0 4 -3q0 -1 -8 -23.5t-21 -59.5t-30.5 -84t-36 -97.5t-36.5 -100t-33.5 -90.5t-26 -70.5t-14.5 -39.5q-3 -3 -6 -3h-7q-7 0 -5 7l207 562q3 3 4 3zM731 209q-11 -15 -25 -34
t-28 -37q-13 -17 -24.5 -32t-18.5 -23q17 2 35.5 1.5t35.5 1.5q5 13 9.5 25.5t9.5 23.5q1 2 7 1t4 -3l-18 -46l6 2q2 0 2.5 -1.5t-1.5 -2.5l-7 -1l-17 -44q-3 -8 -6 -15.5t-6 -13.5q0 -2 -6 -2t-5 3l9 23q9 22 18 48q-20 -2 -43 -1t-41 -4q-1 -1 -2.5 -0.5t0.5 2.5
q5 5 17.5 20.5t28.5 35.5q14 19 29 38.5t26 35.5q0 1 6.5 1.5t4.5 -2.5z" />
    <glyph glyph-name="questiondown" unicode="&#xbf;" horiz-adv-x="311" 
d="M131 17q29 5 55 26.5t36 58.5q2 5 6.5 4t3.5 -6q-11 -40 -39.5 -63.5t-60.5 -29.5q-33 -7 -64.5 4t-42.5 44q-10 30 0.5 62t32 63t48 59t47.5 48q29 27 46.5 49t28.5 44.5t18 49t16 63.5q2 5 9.5 3.5t6.5 -6.5q-9 -44 -17 -73.5t-19.5 -54.5t-30 -49.5t-49.5 -57.5
q-16 -17 -36.5 -40.5t-37 -50t-25.5 -54.5t-2 -53q6 -23 25.5 -34t44.5 -6zM274 519q-5 0 -7.5 1.5t-5.5 3.5q-5 5 -3 11q0 7 6 13q5 5 12 5q8 0 11 -5q4 -5 4 -13l-2 -6t-3 -5q-7 -5 -12 -5z" />
    <glyph glyph-name="Agrave" unicode="&#xc0;" horiz-adv-x="548" 
d="M-14 24q-3 4 1 7.5t6 -0.5q28 -31 59 -28t62 27t61 62.5t55.5 78.5t45 75.5t29.5 53.5q-17 -1 -33.5 -6t-36.5 -17q-3 -2 -6 2t2 7q20 14 40.5 19.5t38.5 5.5q14 26 33 63.5t40 76t41.5 71.5t38.5 50q11 11 21 12.5t17 -4t9.5 -17t-1.5 -25.5q-8 -28 -19.5 -68.5
t-24 -87.5t-24 -97t-19.5 -96.5t-10.5 -86t4.5 -65.5q4 -15 11 -19.5t18 4.5q12 9 27 32t29.5 50t27 52.5t19.5 40.5q3 4 7 1.5t2 -7.5q-8 -16 -21 -42.5t-28.5 -54t-32 -51.5t-29.5 -34q-19 -14 -34 -8t-23 26q-8 21 -8.5 54t2.5 68.5t8 68.5t10 54q-20 11 -41 19.5
t-44 9.5q-11 -20 -31.5 -58t-47.5 -79.5t-58 -81t-64 -63.5t-66 -26t-63 31zM321 311q22 -2 42.5 -10t39.5 -19q17 78 37 148l32 112q1 3 2.5 8.5t2 11t-1 7.5t-6.5 -3q-17 -17 -36.5 -49t-40 -69.5t-39 -74.5t-32.5 -62zM484 727q-4 4 1 6q4 6 9 9q4 1 7 -1l41 -57
q3 -3 -0.5 -6.5t-6.5 0.5q-11 11 -26 24.5t-25 24.5z" />
    <glyph glyph-name="Aacute" unicode="&#xc1;" horiz-adv-x="548" 
d="M-14 24q-3 4 1 7.5t6 -0.5q28 -31 59 -28t62 27t61 62.5t55.5 78.5t45 75.5t29.5 53.5q-17 -1 -33.5 -6t-36.5 -17q-3 -2 -6 2t2 7q20 14 40.5 19.5t38.5 5.5q14 26 33 63.5t40 76t41.5 71.5t38.5 50q11 11 21 12.5t17 -4t9.5 -17t-1.5 -25.5q-8 -28 -19.5 -68.5
t-24 -87.5t-24 -97t-19.5 -96.5t-10.5 -86t4.5 -65.5q4 -15 11 -19.5t18 4.5q12 9 27 32t29.5 50t27 52.5t19.5 40.5q3 4 7 1.5t2 -7.5q-8 -16 -21 -42.5t-28.5 -54t-32 -51.5t-29.5 -34q-19 -14 -34 -8t-23 26q-8 21 -8.5 54t2.5 68.5t8 68.5t10 54q-20 11 -41 19.5
t-44 9.5q-11 -20 -31.5 -58t-47.5 -79.5t-58 -81t-64 -63.5t-66 -26t-63 31zM321 311q22 -2 42.5 -10t39.5 -19q17 78 37 148l32 112q1 3 2.5 8.5t2 11t-1 7.5t-6.5 -3q-17 -17 -36.5 -49t-40 -69.5t-39 -74.5t-32.5 -62zM546 753q4 4 9 1q2 -2 4.5 -4t4.5 -5q2 -4 -1 -7
l-51 -46q-4 -4 -7 -0.5t-1 6.5z" />
    <glyph glyph-name="Acircumflex" unicode="&#xc2;" horiz-adv-x="548" 
d="M-14 24q-3 4 1 7.5t6 -0.5q28 -31 59 -28t62 27t61 62.5t55.5 78.5t45 75.5t29.5 53.5q-17 -1 -33.5 -6t-36.5 -17q-3 -2 -6 2t2 7q20 14 40.5 19.5t38.5 5.5q14 26 33 63.5t40 76t41.5 71.5t38.5 50q11 11 21 12.5t17 -4t9.5 -17t-1.5 -25.5q-8 -28 -19.5 -68.5
t-24 -87.5t-24 -97t-19.5 -96.5t-10.5 -86t4.5 -65.5q4 -15 11 -19.5t18 4.5q12 9 27 32t29.5 50t27 52.5t19.5 40.5q3 4 7 1.5t2 -7.5q-8 -16 -21 -42.5t-28.5 -54t-32 -51.5t-29.5 -34q-19 -14 -34 -8t-23 26q-8 21 -8.5 54t2.5 68.5t8 68.5t10 54q-20 11 -41 19.5
t-44 9.5q-11 -20 -31.5 -58t-47.5 -79.5t-58 -81t-64 -63.5t-66 -26t-63 31zM321 311q22 -2 42.5 -10t39.5 -19q17 78 37 148l32 112q1 3 2.5 8.5t2 11t-1 7.5t-6.5 -3q-17 -17 -36.5 -49t-40 -69.5t-39 -74.5t-32.5 -62zM489 672q0 1 7 11t15 21.5t15.5 22t9.5 13.5
q3 4 6.5 2.5t2.5 -4.5q2 -16 4.5 -43t4.5 -43q0 -5 -4.5 -6t-5.5 4l-13 51l-35 -37q-2 -3 -6 0t-1 8z" />
    <glyph glyph-name="Atilde" unicode="&#xc3;" horiz-adv-x="548" 
d="M-14 24q-3 4 1 7.5t6 -0.5q28 -31 59 -28t62 27t61 62.5t55.5 78.5t45 75.5t29.5 53.5q-17 -1 -33.5 -6t-36.5 -17q-3 -2 -6 2t2 7q20 14 40.5 19.5t38.5 5.5q14 26 33 63.5t40 76t41.5 71.5t38.5 50q11 11 21 12.5t17 -4t9.5 -17t-1.5 -25.5q-8 -28 -19.5 -68.5
t-24 -87.5t-24 -97t-19.5 -96.5t-10.5 -86t4.5 -65.5q4 -15 11 -19.5t18 4.5q12 9 27 32t29.5 50t27 52.5t19.5 40.5q3 4 7 1.5t2 -7.5q-8 -16 -21 -42.5t-28.5 -54t-32 -51.5t-29.5 -34q-19 -14 -34 -8t-23 26q-8 21 -8.5 54t2.5 68.5t8 68.5t10 54q-20 11 -41 19.5
t-44 9.5q-11 -20 -31.5 -58t-47.5 -79.5t-58 -81t-64 -63.5t-66 -26t-63 31zM321 311q22 -2 42.5 -10t39.5 -19q17 78 37 148l32 112q1 3 2.5 8.5t2 11t-1 7.5t-6.5 -3q-17 -17 -36.5 -49t-40 -69.5t-39 -74.5t-32.5 -62zM465 692q-2 -2 -5 0t0 4q17 20 36.5 19.5t40.5 -6.5
q17 -5 32 -8t26 7q2 2 4 0t0 -5q-17 -17 -36.5 -17t-40.5 5q-17 5 -32 8.5t-25 -7.5z" />
    <glyph glyph-name="Adieresis" unicode="&#xc4;" horiz-adv-x="548" 
d="M-14 24q-3 4 1 7.5t6 -0.5q28 -31 59 -28t62 27t61 62.5t55.5 78.5t45 75.5t29.5 53.5q-17 -1 -33.5 -6t-36.5 -17q-3 -2 -6 2t2 7q20 14 40.5 19.5t38.5 5.5q14 26 33 63.5t40 76t41.5 71.5t38.5 50q11 11 21 12.5t17 -4t9.5 -17t-1.5 -25.5q-8 -28 -19.5 -68.5
t-24 -87.5t-24 -97t-19.5 -96.5t-10.5 -86t4.5 -65.5q4 -15 11 -19.5t18 4.5q12 9 27 32t29.5 50t27 52.5t19.5 40.5q3 4 7 1.5t2 -7.5q-8 -16 -21 -42.5t-28.5 -54t-32 -51.5t-29.5 -34q-19 -14 -34 -8t-23 26q-8 21 -8.5 54t2.5 68.5t8 68.5t10 54q-20 11 -41 19.5
t-44 9.5q-11 -20 -31.5 -58t-47.5 -79.5t-58 -81t-64 -63.5t-66 -26t-63 31zM321 311q22 -2 42.5 -10t39.5 -19q17 78 37 148l32 112q1 3 2.5 8.5t2 11t-1 7.5t-6.5 -3q-17 -17 -36.5 -49t-40 -69.5t-39 -74.5t-32.5 -62zM500 735q7 0 12 -5q2 -3 4 -5.5t2 -7.5q0 -7 -6 -11
q-5 -5 -12 -5q-6 0 -11 5q-6 3 -6 11q0 7 6 13q5 5 11 5zM564 735q7 0 12 -5q2 -3 4 -5.5t2 -7.5q0 -7 -6 -11q-5 -5 -12 -5q-6 0 -11 5q-6 3 -6 11q0 7 6 13q5 5 11 5z" />
    <glyph glyph-name="Aring" unicode="&#xc5;" horiz-adv-x="548" 
d="M497 636q15 0 23.5 -9t8.5 -23q0 -13 -6.5 -20.5t-16.5 -10.5q9 -14 3 -35q-8 -28 -19.5 -68.5t-24 -87.5t-24 -97t-19.5 -96.5t-10.5 -86t4.5 -65.5q4 -15 11 -19.5t18 4.5q12 9 27 32t29.5 50t27 52.5t19.5 40.5q3 4 7 1.5t2 -7.5q-8 -16 -21 -42.5t-28.5 -54
t-32 -51.5t-29.5 -34q-19 -14 -34 -8t-23 26q-8 21 -8.5 54t2.5 68.5t8 68.5t10 54q-20 11 -41 19.5t-44 9.5q-11 -20 -31.5 -58t-47.5 -79.5t-58 -81t-64 -63.5t-66 -26t-63 31q-3 4 1 7.5t6 -0.5q28 -31 59 -28t62 27t61 62.5t55.5 78.5t45 75.5t29.5 53.5
q-17 -1 -33.5 -6t-36.5 -17q-3 -2 -6 2t2 7q20 14 40.5 19.5t38.5 5.5q14 26 33 63.5t40 76t41.5 71.5t38.5 50q7 7 11 9q-8 8 -8 23q0 14 9 23t22 9zM321 311q22 -2 42.5 -10t39.5 -19q17 78 37 148l32 112q1 3 2.5 8.5t2 11t-1 7.5t-6.5 -3q-17 -17 -36.5 -49t-40 -69.5
t-39 -74.5t-32.5 -62zM497 627q-10 0 -16.5 -6.5t-6.5 -17.5q0 -12 10 -19q9 1 15 -3q8 1 14.5 6t6.5 16t-6 17.5t-17 6.5z" />
    <glyph glyph-name="AE" unicode="&#xc6;" horiz-adv-x="927" 
d="M573 363q4 -19 11 -39t21 -41q4 -5 0 -6.5t-7 -0.5q-21 10 -41.5 11t-40.5 -5q-14 -5 -27.5 -12.5t-24.5 -17.5q-35 -33 -45 -77l-3 -18q-3 -34 9.5 -66t40.5 -55q54 -44 119 -24q30 9 55.5 28.5t46 45t36 54t26.5 57.5q2 5 7 3t3 -7q-9 -26 -25 -55t-38.5 -56t-50 -48
t-58.5 -31q-34 -11 -71 -8.5t-68 22.5q-37 23 -52 64t-11 84q3 31 7 59t9 48q-20 11 -41 19.5t-44 9.5q-11 -20 -31.5 -58t-47.5 -79.5t-58 -81t-64 -63.5t-66 -26t-63 31q-3 4 1 7.5t6 -0.5q28 -31 59 -28t62 27t61 62.5t55.5 78.5t45 75.5t29.5 53.5q-17 -1 -33.5 -6
t-36.5 -17q-3 -2 -6 2t2 7q20 14 40.5 19.5t38.5 5.5q14 26 33 63.5t40 76t41.5 71.5t38.5 50q11 11 21 12.5t17 -4t9.5 -17t-1.5 -25.5q-6 -23 -15 -53.5t-19 -66.5t-20 -75.5t-19 -78.5q20 17 51 28q13 5 35.5 6t37.5 -2q-20 41 -23 84q-3 34 7.5 69t31.5 63.5t51 46.5
t66 19q42 1 58.5 -27t2.5 -75q-2 -3 -5.5 -2.5t-3.5 4.5q12 44 -1.5 68.5t-47.5 18.5q-30 -6 -54.5 -26t-41.5 -48t-24.5 -61.5t-2.5 -66.5zM321 311q22 -2 42.5 -10t39.5 -19q17 78 37 148l32 112q1 3 2.5 8.5t2 11t-1 7.5t-6.5 -3q-17 -17 -36.5 -49t-40 -69.5t-39 -74.5
t-32.5 -62z" />
    <glyph glyph-name="Ccedilla" unicode="&#xc7;" horiz-adv-x="336" 
d="M45 555q2 5 6.5 2t1.5 -7q-32 -53 -20.5 -106t63.5 -88q14 25 34 53.5t43.5 55t51 48.5t56.5 34t50.5 9.5t34.5 -15.5t16 -35t-6 -49q-11 -35 -38 -65t-62 -48.5t-75 -23t-78 10.5q-15 -27 -33 -67.5t-30.5 -84.5t-14.5 -85.5t15 -70.5q11 -17 24 -23t28 -6q32 1 66 23.5
t64.5 54.5t55.5 66.5t38 59.5q3 4 7 1.5t1 -7.5q-17 -30 -42 -64t-55 -64.5t-64 -53t-71 -28.5h-1q0 -6 1 -6q5 -1 8 -1t8 -2q16 -6 25 -19.5t6 -26.5t-20 -20.5t-54 -1.5q-7 1 -7.5 8t9.5 6q15 -3 29 -1q27 3 26.5 15.5t-14.5 21.5q-5 4 -12.5 4t-14.5 1q-8 1 -8 21
q-21 0 -38.5 10t-28.5 33q-17 31 -15 74.5t14 89.5t30.5 88.5t34.5 71.5q-27 18 -44 42t-23 51.5t-0.5 56.5t22.5 57zM128 339q35 -13 72.5 -8.5t70.5 22t58.5 45t36.5 59.5q8 25 6.5 45t-11.5 30.5t-28.5 9.5t-44.5 -17q-24 -15 -47 -37.5t-44 -48t-39 -52t-30 -48.5z" />
    <glyph glyph-name="Egrave" unicode="&#xc8;" horiz-adv-x="379" 
d="M34 577q2 5 6.5 3.5t2.5 -6.5q-10 -35 -4 -66.5t23 -57t44.5 -43.5t60.5 -27q-3 34 7.5 69t31.5 63.5t51 46.5t66 19q42 1 58.5 -26t5.5 -65q-17 -65 -68 -97t-116 -27q4 -19 11 -39t21 -41q4 -5 0 -6.5t-7 -0.5q-21 10 -41.5 11t-40.5 -5q-14 -5 -27.5 -12.5
t-24.5 -17.5q-24 -22 -36 -51t-12 -59t12.5 -58t37.5 -48q54 -44 119 -24q30 9 55.5 28.5t46 45t36 54t26.5 57.5q2 5 7 3t3 -7q-9 -26 -25 -55t-38.5 -56t-50 -48t-58.5 -31q-34 -11 -71 -8.5t-68 22.5q-36 22 -52 62.5t-11.5 82.5t30 78.5t72.5 51.5q13 5 35.5 6t37.5 -2
q-11 19 -15 37.5t-7 35.5q-36 10 -65.5 29.5t-48.5 46.5t-25 60.5t5 71.5zM202 373q30 -2 58.5 4t51.5 21t40.5 37.5t25.5 53.5q9 34 -4.5 58t-47.5 18q-30 -6 -54.5 -25.5t-41.5 -46.5t-24.5 -58.5t-3.5 -61.5zM319 727q-4 4 1 6q4 6 9 9q4 1 7 -1l41 -57q3 -3 -0.5 -6.5
t-6.5 0.5q-11 11 -26 24.5t-25 24.5z" />
    <glyph glyph-name="Eacute" unicode="&#xc9;" horiz-adv-x="379" 
d="M34 577q2 5 6.5 3.5t2.5 -6.5q-10 -35 -4 -66.5t23 -57t44.5 -43.5t60.5 -27q-3 34 7.5 69t31.5 63.5t51 46.5t66 19q42 1 58.5 -26t5.5 -65q-17 -65 -68 -97t-116 -27q4 -19 11 -39t21 -41q4 -5 0 -6.5t-7 -0.5q-21 10 -41.5 11t-40.5 -5q-14 -5 -27.5 -12.5
t-24.5 -17.5q-24 -22 -36 -51t-12 -59t12.5 -58t37.5 -48q54 -44 119 -24q30 9 55.5 28.5t46 45t36 54t26.5 57.5q2 5 7 3t3 -7q-9 -26 -25 -55t-38.5 -56t-50 -48t-58.5 -31q-34 -11 -71 -8.5t-68 22.5q-36 22 -52 62.5t-11.5 82.5t30 78.5t72.5 51.5q13 5 35.5 6t37.5 -2
q-11 19 -15 37.5t-7 35.5q-36 10 -65.5 29.5t-48.5 46.5t-25 60.5t5 71.5zM202 373q30 -2 58.5 4t51.5 21t40.5 37.5t25.5 53.5q9 34 -4.5 58t-47.5 18q-30 -6 -54.5 -25.5t-41.5 -46.5t-24.5 -58.5t-3.5 -61.5zM395 753q4 4 9 1q2 -2 4.5 -4t4.5 -5q2 -4 -1 -7l-51 -46
q-4 -4 -7 -0.5t-1 6.5z" />
    <glyph glyph-name="Ecircumflex" unicode="&#xca;" horiz-adv-x="379" 
d="M34 577q2 5 6.5 3.5t2.5 -6.5q-10 -35 -4 -66.5t23 -57t44.5 -43.5t60.5 -27q-3 34 7.5 69t31.5 63.5t51 46.5t66 19q42 1 58.5 -26t5.5 -65q-17 -65 -68 -97t-116 -27q4 -19 11 -39t21 -41q4 -5 0 -6.5t-7 -0.5q-21 10 -41.5 11t-40.5 -5q-14 -5 -27.5 -12.5
t-24.5 -17.5q-24 -22 -36 -51t-12 -59t12.5 -58t37.5 -48q54 -44 119 -24q30 9 55.5 28.5t46 45t36 54t26.5 57.5q2 5 7 3t3 -7q-9 -26 -25 -55t-38.5 -56t-50 -48t-58.5 -31q-34 -11 -71 -8.5t-68 22.5q-36 22 -52 62.5t-11.5 82.5t30 78.5t72.5 51.5q13 5 35.5 6t37.5 -2
q-11 19 -15 37.5t-7 35.5q-36 10 -65.5 29.5t-48.5 46.5t-25 60.5t5 71.5zM202 373q30 -2 58.5 4t51.5 21t40.5 37.5t25.5 53.5q9 34 -4.5 58t-47.5 18q-30 -6 -54.5 -25.5t-41.5 -46.5t-24.5 -58.5t-3.5 -61.5zM320 669q0 1 6 11.5t13.5 22.5t13.5 23.5t8 14.5q2 4 5.5 3
t3.5 -4q4 -16 9 -42.5t8 -42.5q1 -5 -3.5 -6.5t-6.5 3.5l-18 50l-31 -40q-2 -4 -6 -1t-2 8z" />
    <glyph glyph-name="Edieresis" unicode="&#xcb;" horiz-adv-x="379" 
d="M34 577q2 5 6.5 3.5t2.5 -6.5q-10 -35 -4 -66.5t23 -57t44.5 -43.5t60.5 -27q-3 34 7.5 69t31.5 63.5t51 46.5t66 19q42 1 58.5 -26t5.5 -65q-17 -65 -68 -97t-116 -27q4 -19 11 -39t21 -41q4 -5 0 -6.5t-7 -0.5q-21 10 -41.5 11t-40.5 -5q-14 -5 -27.5 -12.5
t-24.5 -17.5q-24 -22 -36 -51t-12 -59t12.5 -58t37.5 -48q54 -44 119 -24q30 9 55.5 28.5t46 45t36 54t26.5 57.5q2 5 7 3t3 -7q-9 -26 -25 -55t-38.5 -56t-50 -48t-58.5 -31q-34 -11 -71 -8.5t-68 22.5q-36 22 -52 62.5t-11.5 82.5t30 78.5t72.5 51.5q13 5 35.5 6t37.5 -2
q-11 19 -15 37.5t-7 35.5q-36 10 -65.5 29.5t-48.5 46.5t-25 60.5t5 71.5zM202 373q30 -2 58.5 4t51.5 21t40.5 37.5t25.5 53.5q9 34 -4.5 58t-47.5 18q-30 -6 -54.5 -25.5t-41.5 -46.5t-24.5 -58.5t-3.5 -61.5zM351 738q7 0 12 -5q2 -3 4 -5.5t2 -7.5q0 -7 -6 -11
q-5 -5 -12 -5q-6 0 -11 5q-6 3 -6 11q0 7 6 13q5 5 11 5zM415 738q7 0 12 -5q2 -3 4 -5.5t2 -7.5q0 -7 -6 -11q-5 -5 -12 -5q-6 0 -11 5q-6 3 -6 11q0 7 6 13q5 5 11 5z" />
    <glyph glyph-name="Igrave" unicode="&#xcc;" horiz-adv-x="329" 
d="M316 548q4 2 8.5 1t2.5 -6q-7 -32 -18 -82t-26.5 -108t-35 -119t-42.5 -114t-49.5 -93t-56.5 -57q-17 -9 -32.5 -9.5t-27.5 6.5t-19.5 18.5t-8.5 26.5q-1 18 10 38.5t38 37.5q4 2 6.5 -2t-1.5 -7q-24 -15 -33.5 -32.5t-9.5 -33.5q0 -12 6 -21.5t15.5 -14t21.5 -3t24 11.5
q25 19 48 61t42 91t33.5 96t22.5 76q19 66 33 123.5t20 87.5q-48 -29 -82 -55t-56.5 -49t-34.5 -43t-16 -36q-4 -19 2.5 -34.5t19.5 -24t29.5 -9t32.5 10.5q4 2 6.5 -2t-1.5 -7q-19 -12 -38.5 -11.5t-34.5 10.5t-23 28t-3 40q4 17 16.5 38t35.5 45t58.5 51t85.5 56
q8 5 16 9.5t16 9.5zM329 727q-4 4 1 6q4 6 9 9q4 1 7 -1l41 -57q3 -3 -0.5 -6.5t-6.5 0.5q-11 11 -26 24.5t-25 24.5z" />
    <glyph glyph-name="Iacute" unicode="&#xcd;" horiz-adv-x="329" 
d="M316 548q4 2 8.5 1t2.5 -6q-7 -32 -18 -82t-26.5 -108t-35 -119t-42.5 -114t-49.5 -93t-56.5 -57q-17 -9 -32.5 -9.5t-27.5 6.5t-19.5 18.5t-8.5 26.5q-1 18 10 38.5t38 37.5q4 2 6.5 -2t-1.5 -7q-24 -15 -33.5 -32.5t-9.5 -33.5q0 -12 6 -21.5t15.5 -14t21.5 -3t24 11.5
q25 19 48 61t42 91t33.5 96t22.5 76q19 66 33 123.5t20 87.5q-48 -29 -82 -55t-56.5 -49t-34.5 -43t-16 -36q-4 -19 2.5 -34.5t19.5 -24t29.5 -9t32.5 10.5q4 2 6.5 -2t-1.5 -7q-19 -12 -38.5 -11.5t-34.5 10.5t-23 28t-3 40q4 17 16.5 38t35.5 45t58.5 51t85.5 56
q8 5 16 9.5t16 9.5zM369 753q4 4 9 1q2 -2 4.5 -4t4.5 -5q2 -4 -1 -7l-51 -46q-4 -4 -7 -0.5t-1 6.5z" />
    <glyph glyph-name="Icircumflex" unicode="&#xce;" horiz-adv-x="329" 
d="M316 548q4 2 8.5 1t2.5 -6q-7 -32 -18 -82t-26.5 -108t-35 -119t-42.5 -114t-49.5 -93t-56.5 -57q-17 -9 -32.5 -9.5t-27.5 6.5t-19.5 18.5t-8.5 26.5q-1 18 10 38.5t38 37.5q4 2 6.5 -2t-1.5 -7q-24 -15 -33.5 -32.5t-9.5 -33.5q0 -12 6 -21.5t15.5 -14t21.5 -3t24 11.5
q25 19 48 61t42 91t33.5 96t22.5 76q19 66 33 123.5t20 87.5q-48 -29 -82 -55t-56.5 -49t-34.5 -43t-16 -36q-4 -19 2.5 -34.5t19.5 -24t29.5 -9t32.5 10.5q4 2 6.5 -2t-1.5 -7q-19 -12 -38.5 -11.5t-34.5 10.5t-23 28t-3 40q4 17 16.5 38t35.5 45t58.5 51t85.5 56
q8 5 16 9.5t16 9.5zM314 669q0 1 6 11.5t13.5 22.5t13.5 23.5t8 14.5q2 4 5.5 3t3.5 -4q4 -16 9 -42.5t8 -42.5q1 -5 -3.5 -6.5t-6.5 3.5l-18 50l-31 -40q-2 -4 -6 -1t-2 8z" />
    <glyph glyph-name="Idieresis" unicode="&#xcf;" horiz-adv-x="329" 
d="M316 548q4 2 8.5 1t2.5 -6q-7 -32 -18 -82t-26.5 -108t-35 -118.5t-42.5 -114t-49.5 -93.5t-56.5 -57q-17 -9 -32.5 -9.5t-27.5 6.5t-19.5 18.5t-8.5 26.5q-1 18 10 38.5t38 37.5q4 2 6.5 -2t-1.5 -7q-24 -15 -33.5 -32.5t-9.5 -33.5q0 -12 6 -21.5t15.5 -14t21.5 -3
t24 11.5q25 19 48 61t42 91t33.5 96t22.5 76q19 66 33 123.5t20 87.5q-48 -29 -82 -55t-56.5 -49t-34.5 -43t-16 -36q-4 -19 2.5 -34.5t19.5 -24t29.5 -9t32.5 10.5q4 2 6.5 -2t-1.5 -7q-19 -12 -38.5 -11.5t-34.5 10.5t-23 28t-3 40q4 17 16.5 38t35.5 45t58.5 51t85.5 56
q8 5 16 9.5t16 9.5zM319 719q7 0 12 -5q2 -3 4 -5.5t2 -7.5q0 -7 -6 -11q-5 -5 -12 -5q-6 0 -11 5q-6 3 -6 11q0 7 6 13q5 5 11 5zM383 719q7 0 12 -5q2 -3 4 -5.5t2 -7.5q0 -7 -6 -11q-5 -5 -12 -5q-6 0 -11 5q-6 3 -6 11q0 7 6 13q5 5 11 5z" />
    <glyph glyph-name="Eth" unicode="&#xd0;" horiz-adv-x="553" 
d="M169 267q-8 0 -7.5 7t7.5 7h53q18 40 38 75t43 61q11 14 25.5 26.5t31 19t34 6.5t34.5 -10q5 -2 3 -6.5t-7 -1.5q-27 14 -48 4t-39 -32q-21 -25 -40.5 -62t-39.5 -80h50q8 0 8 -7t-8 -7q-13 0 -21 -0.5t-14 -0.5h-10.5h-10.5q-9 -20 -17.5 -40t-16.5 -40
q-17 -40 -32.5 -77t-31.5 -68q27 -2 52 -2t52 6q65 12 117.5 53t86 97t45 122t-6.5 129t-57 92.5t-90 29.5q-54 0 -104.5 -30t-82.5 -74q-25 -35 -34 -76.5t7 -86.5q2 -5 -2.5 -6.5t-6.5 3.5q-18 51 -5.5 99.5t44.5 87.5q34 40 82.5 66.5t101.5 30.5q33 1 62.5 -7t54 -26.5
t42 -46.5t25.5 -67q14 -69 -0.5 -138.5t-53 -126.5t-97 -95.5t-132.5 -44.5q-26 -2 -52.5 -1.5t-52.5 2.5q-6 -11 -13.5 -23.5t-17 -24.5t-20.5 -21t-23 -12q-26 -7 -41.5 2t-20 24.5t3.5 32t30 25.5q14 5 33.5 7t39.5 1q14 27 27.5 59t27.5 67q10 24 20 49t21 49h-21t-25 1
zM114 33q-18 0 -35 -2t-29 -7q-17 -6 -23.5 -19t-4.5 -24.5t11 -18t24 -0.5q19 8 33.5 31t23.5 40z" />
    <glyph glyph-name="Ntilde" unicode="&#xd1;" horiz-adv-x="569" 
d="M338 548q2 2 7 1t3 -6q-6 -23 -14.5 -57t-20.5 -74.5t-26 -85t-30 -88.5q27 50 60.5 103.5t68.5 101.5q50 67 87 88q21 12 42 12t29 -24q7 -23 -0.5 -57t-22 -70.5t-31 -70.5t-26.5 -57q-14 -30 -32 -69t-34.5 -80t-29 -81.5t-16.5 -71.5q0 -4 -0.5 -11.5t0.5 -14.5
t4.5 -10.5t11.5 -0.5q12 5 30 24t38 45.5t41 56.5t39 58.5t32.5 52t20.5 35.5q3 5 7 3t1 -7q-7 -13 -21 -36.5t-33 -52.5t-40 -59.5t-42 -57t-39 -46t-31 -25.5q-18 -9 -30 3t-15 26q-6 30 4.5 74t28 90.5t37.5 89t33 69.5q10 21 24 51.5t27.5 63.5t23 64t9.5 54
q0 27 -11.5 29t-31.5 -12q-31 -21 -76 -80q-25 -33 -48.5 -70t-45 -74t-40.5 -72t-34 -64q-29 -65 -61 -116.5t-68 -71.5q-18 -9 -33.5 -9.5t-27 6.5t-18.5 18.5t-8 26.5q0 18 12 38.5t40 37.5q4 2 6 -2t-3 -7q-24 -15 -34 -32.5t-10 -33.5q0 -12 5 -21.5t14 -14t21 -3
t25 11.5q26 19 50.5 61t45.5 91t37.5 96t25.5 76q23 66 39 123.5t24 87.5q-50 -29 -85.5 -55t-58.5 -49t-36 -43t-17 -36q-5 -19 1 -34.5t18.5 -24t28.5 -9t32 10.5q5 2 7.5 -2t-2.5 -7q-19 -12 -38 -11.5t-33.5 10.5t-22 28t-1.5 40q9 34 55.5 82.5t147.5 107.5q8 5 17 9.5
t17 9.5zM448 692q-2 -2 -5 0t0 4q17 20 36.5 19.5t40.5 -6.5q17 -5 32 -8t26 7q2 2 4 0t0 -5q-17 -17 -36.5 -17t-40.5 5q-17 5 -32 8.5t-25 -7.5z" />
    <glyph glyph-name="Ograve" unicode="&#xd2;" horiz-adv-x="410" 
d="M299 517q-36 22 -82 -2q-30 -16 -50 -44.5t-27.5 -62t-2 -67.5t25.5 -61q27 14 58.5 23.5t69.5 14.5q5 0 5 -5t-5 -5q-35 -5 -65.5 -14t-55.5 -22q16 -17 37 -27t44.5 -13.5t47.5 -1t45 10.5q8 26 12 53.5t4 56.5q1 20 -1.5 44t-9 47t-19 43t-31.5 32zM340 229
q-23 -7 -47.5 -9t-48.5 2.5t-46 15.5t-38 30q-7 -4 -13.5 -8t-13.5 -9q-36 -26 -61 -56t-38 -62q-15 -35 -14.5 -68.5t15 -55.5t43.5 -27.5t73 17.5q30 15 59.5 41.5t55 58.5t45 66t29.5 64zM25 137q14 32 39.5 64t63.5 58q6 5 12.5 8.5t13.5 7.5q-21 28 -26.5 64.5
t2.5 71.5t29 65t53 47q26 14 55.5 15t55.5 -14q32 -18 54.5 -61t21.5 -115q-1 -56 -21 -115t-54 -111t-80.5 -91t-100.5 -55q-45 -14 -74.5 -3.5t-44 35.5t-14.5 59.5t15 69.5zM330 727q-4 4 1 6q4 6 9 9q4 1 7 -1l41 -57q3 -3 -0.5 -6.5t-6.5 0.5q-11 11 -26 24.5t-25 24.5
z" />
    <glyph glyph-name="Oacute" unicode="&#xd3;" horiz-adv-x="410" 
d="M299 517q-36 22 -82 -2q-30 -16 -50 -44.5t-27.5 -62t-2 -67.5t25.5 -61q27 14 58.5 23.5t69.5 14.5q5 0 5 -5t-5 -5q-35 -5 -65.5 -14t-55.5 -22q16 -17 37 -27t44.5 -13.5t47.5 -1t45 10.5q8 26 12 53.5t4 56.5q1 20 -1.5 44t-9 47t-19 43t-31.5 32zM340 229
q-23 -7 -47.5 -9t-48.5 2.5t-46 15.5t-38 30q-7 -4 -13.5 -8t-13.5 -9q-36 -26 -61 -56t-38 -62q-15 -35 -14.5 -68.5t15 -55.5t43.5 -27.5t73 17.5q30 15 59.5 41.5t55 58.5t45 66t29.5 64zM25 137q14 32 39.5 64t63.5 58q6 5 12.5 8.5t13.5 7.5q-21 28 -26.5 64.5
t2.5 71.5t29 65t53 47q26 14 55.5 15t55.5 -14q32 -18 54.5 -61t21.5 -115q-1 -56 -21 -115t-54 -111t-80.5 -91t-100.5 -55q-45 -14 -74.5 -3.5t-44 35.5t-14.5 59.5t15 69.5zM364 753q4 4 9 1q2 -2 4.5 -4t4.5 -5q2 -4 -1 -7l-51 -46q-4 -4 -7 -0.5t-1 6.5z" />
    <glyph glyph-name="Ocircumflex" unicode="&#xd4;" horiz-adv-x="410" 
d="M299 517q-36 22 -82 -2q-30 -16 -50 -44.5t-27.5 -62t-2 -67.5t25.5 -61q27 14 58.5 23.5t69.5 14.5q5 0 5 -5t-5 -5q-35 -5 -65.5 -14t-55.5 -22q16 -17 37 -27t44.5 -13.5t47.5 -1t45 10.5q8 26 12 53.5t4 56.5q1 20 -1.5 44t-9 47t-19 43t-31.5 32zM340 229
q-23 -7 -47.5 -9t-48.5 2.5t-46 15.5t-38 30q-7 -4 -13.5 -8t-13.5 -9q-36 -26 -61 -56t-38 -62q-15 -35 -14.5 -68.5t15 -55.5t43.5 -27.5t73 17.5q30 15 59.5 41.5t55 58.5t45 66t29.5 64zM25 137q14 32 39.5 64t63.5 58q6 5 12.5 8.5t13.5 7.5q-21 28 -26.5 64.5
t2.5 71.5t29 65t53 47q26 14 55.5 15t55.5 -14q32 -18 54.5 -61t21.5 -115q-1 -56 -21 -115t-54 -111t-80.5 -91t-100.5 -55q-45 -14 -74.5 -3.5t-44 35.5t-14.5 59.5t15 69.5zM351 669q0 1 6 11.5t13.5 22.5t13.5 23.5t8 14.5q2 4 5.5 3t3.5 -4q4 -16 9 -42.5t8 -42.5
q1 -5 -3.5 -6.5t-6.5 3.5l-18 50l-31 -40q-2 -4 -6 -1t-2 8z" />
    <glyph glyph-name="Otilde" unicode="&#xd5;" horiz-adv-x="410" 
d="M299 517q-36 22 -82 -2q-30 -16 -50 -44.5t-27.5 -62t-2 -67.5t25.5 -61q27 14 58.5 23.5t69.5 14.5q5 0 5 -5t-5 -5q-35 -5 -65.5 -14t-55.5 -22q16 -17 37 -27t44.5 -13.5t47.5 -1t45 10.5q8 26 12 53.5t4 56.5q1 20 -1.5 44t-9 47t-19 43t-31.5 32zM340 229
q-23 -7 -47.5 -9t-48.5 2.5t-46 15.5t-38 30q-7 -4 -13.5 -8t-13.5 -9q-36 -26 -61 -56t-38 -62q-15 -35 -14.5 -68.5t15 -55.5t43.5 -27.5t73 17.5q30 15 59.5 41.5t55 58.5t45 66t29.5 64zM25 137q14 32 39.5 64t63.5 58q6 5 12.5 8.5t13.5 7.5q-21 28 -26.5 64.5
t2.5 71.5t29 65t53 47q26 14 55.5 15t55.5 -14q32 -18 54.5 -61t21.5 -115q-1 -56 -21 -115t-54 -111t-80.5 -91t-100.5 -55q-45 -14 -74.5 -3.5t-44 35.5t-14.5 59.5t15 69.5zM293 692q-2 -2 -5 0t0 4q17 20 36.5 19.5t40.5 -6.5q17 -5 32 -8t26 7q2 2 4 0t0 -5
q-17 -17 -36.5 -17t-40.5 5q-17 5 -32 8.5t-25 -7.5z" />
    <glyph glyph-name="Odieresis" unicode="&#xd6;" horiz-adv-x="410" 
d="M299 517q-36 22 -82 -2q-30 -16 -50 -44.5t-27.5 -62t-2 -67.5t25.5 -61q27 14 58.5 23.5t69.5 14.5q5 0 5 -5t-5 -5q-35 -5 -65.5 -14t-55.5 -22q16 -17 37 -27t44.5 -13.5t47.5 -1t45 10.5q8 26 12 53.5t4 56.5q1 20 -1.5 44t-9 47t-19 43t-31.5 32zM340 229
q-23 -7 -47.5 -9t-48.5 2.5t-46 15.5t-38 30q-7 -4 -13.5 -8t-13.5 -9q-36 -26 -61 -56t-38 -62q-15 -35 -14.5 -68.5t15 -55.5t43.5 -27.5t73 17.5q30 15 59.5 41.5t55 58.5t45 66t29.5 64zM25 137q14 32 39.5 64t63.5 58q6 5 12.5 8.5t13.5 7.5q-21 28 -26.5 64.5
t2.5 71.5t29 65t53 47q26 14 55.5 15t55.5 -14q32 -18 54.5 -61t21.5 -115q-1 -56 -21 -115t-54 -111t-80.5 -91t-100.5 -55q-45 -14 -74.5 -3.5t-44 35.5t-14.5 59.5t15 69.5zM334 715q7 0 12 -5q2 -3 4 -5.5t2 -7.5q0 -7 -6 -11q-5 -5 -12 -5q-6 0 -11 5q-6 3 -6 11
q0 7 6 13q5 5 11 5zM398 715q7 0 12 -5q2 -3 4 -5.5t2 -7.5q0 -7 -6 -11q-5 -5 -12 -5q-6 0 -11 5q-6 3 -6 11q0 7 6 13q5 5 11 5z" />
    <glyph glyph-name="multiply" unicode="&#xd7;" horiz-adv-x="223" 
d="M49 193q-4 5 -0.5 8.5t7.5 -1.5l52 -53l60 55q5 5 13.5 -1.5t1.5 -13.5l-61 -55l54 -54q2 -3 -1 -7t-7 0l-53 54l-59 -54q-6 -6 -13 2t-2 13l59 54z" />
    <glyph glyph-name="Oslash" unicode="&#xd8;" horiz-adv-x="410" 
d="M313 565q4 0 4 -3q0 -1 -3 -9.5t-8 -21.5l17 -7q32 -18 54.5 -61t21.5 -115q-1 -56 -21 -115t-54 -111t-80.5 -91t-100.5 -55q-22 -7 -43 -7q-2 -5 -3 -9t-2 -6q-3 -3 -6 -3h-7q-7 0 -5 7l4 12q-26 4 -42.5 20.5t-23.5 39.5t-4.5 51t14.5 56q14 32 39.5 64t63.5 58
q6 5 12.5 8.5t13.5 7.5q-21 28 -26.5 64.5t2.5 71.5t29 65t53 47q38 20 78 13l10 27q3 3 4 3zM291 318q5 0 5 -5t-5 -5q-20 -3 -37.5 -7t-34.5 -9l-16 -45q32 -17 70 -17.5t71 11.5q8 26 12 53.5t4 56.5q1 20 -1.5 43.5t-9 46t-18.5 42.5t-30 32l-77 -210q28 8 67 13z
M340 229q-34 -11 -71.5 -9.5t-69.5 17.5l-94 -254q10 2 21.5 5.5t24.5 10.5q30 15 59.5 41.5t55 58.5t45 66t29.5 64zM160 268q-7 -4 -13.5 -8t-13.5 -9q-36 -26 -61 -56t-38 -62q-12 -27 -14.5 -53.5t4 -48t22 -35.5t39.5 -15l98 266q-13 10 -23 21zM217 515
q-30 -16 -50 -44.5t-27.5 -62t-2 -67.5t25.5 -61q9 5 18.5 9t20.5 8l83 226q-31 11 -68 -8zM170 272q4 -5 8 -8.5t9 -7.5l10 28z" />
    <glyph glyph-name="Ugrave" unicode="&#xd9;" horiz-adv-x="495" 
d="M35 415q-2 -5 -6.5 -4.5t-3.5 5.5q8 42 36.5 79.5t66.5 56.5q22 10 43.5 11.5t36.5 -7t21 -28t-3 -51.5q-17 -52 -44.5 -113.5t-55.5 -124t-50 -122t-28 -107.5q-2 -16 -2 -28.5t4.5 -18t15.5 -2.5t30 18q24 18 50 53t55 77q22 34 44.5 70.5t45 71.5t46 67t47.5 56
q3 4 10.5 5t15 0.5t13 -4t4.5 -8.5q-3 -6 -7.5 -20t-10.5 -32q-11 -28 -24 -64.5t-25 -74.5t-21 -74t-11 -63q-5 -44 1 -57t29 9q18 16 37.5 42t38 55.5t35 58t28.5 50.5q3 4 7 1.5t2 -6.5q-12 -21 -29 -51t-37 -60.5t-40.5 -57.5t-38.5 -42q-31 -26 -48.5 -4.5t-12.5 84.5
q3 27 9.5 60.5t16 68t20 68t21.5 61.5l15 40q-20 -23 -42 -53.5t-44.5 -65.5t-45.5 -72.5t-46 -73.5q-27 -41 -53 -74t-49 -50q-50 -37 -74 -20t-16 78q6 43 28.5 102t50.5 121.5t55.5 124t44.5 110.5q7 25 4 40.5t-12.5 21.5t-24 4t-30.5 -11q-34 -19 -59.5 -54t-33.5 -72z
M375 727q-4 4 1 6q4 6 9 9q4 1 7 -1l41 -57q3 -3 -0.5 -6.5t-6.5 0.5q-11 11 -26 24.5t-25 24.5z" />
    <glyph glyph-name="Uacute" unicode="&#xda;" horiz-adv-x="495" 
d="M35 415q-2 -5 -6.5 -4.5t-3.5 5.5q8 42 36.5 79.5t66.5 56.5q22 10 43.5 11.5t36.5 -7t21 -28t-3 -51.5q-17 -52 -44.5 -113.5t-55.5 -124t-50 -122t-28 -107.5q-2 -16 -2 -28.5t4.5 -18t15.5 -2.5t30 18q24 18 50 53t55 77q22 34 44.5 70.5t45 71.5t46 67t47.5 56
q3 4 10.5 5t15 0.5t13 -4t4.5 -8.5q-3 -6 -7.5 -20t-10.5 -32q-11 -28 -24 -64.5t-25 -74.5t-21 -74t-11 -63q-5 -44 1 -57t29 9q18 16 37.5 42t38 55.5t35 58t28.5 50.5q3 4 7 1.5t2 -6.5q-12 -21 -29 -51t-37 -60.5t-40.5 -57.5t-38.5 -42q-31 -26 -48.5 -4.5t-12.5 84.5
q3 27 9.5 60.5t16 68t20 68t21.5 61.5l15 40q-20 -23 -42 -53.5t-44.5 -65.5t-45.5 -72.5t-46 -73.5q-27 -41 -53 -74t-49 -50q-50 -37 -74 -20t-16 78q6 43 28.5 102t50.5 121.5t55.5 124t44.5 110.5q7 25 4 40.5t-12.5 21.5t-24 4t-30.5 -11q-34 -19 -59.5 -54t-33.5 -72z
M417 753q4 4 9 1q2 -2 4.5 -4t4.5 -5q2 -4 -1 -7l-51 -46q-4 -4 -7 -0.5t-1 6.5z" />
    <glyph glyph-name="Ucircumflex" unicode="&#xdb;" horiz-adv-x="495" 
d="M35 415q-2 -5 -6.5 -4.5t-3.5 5.5q8 42 36.5 79.5t66.5 56.5q22 10 43.5 11.5t36.5 -7t21 -28t-3 -51.5q-17 -52 -44.5 -113.5t-55.5 -124t-50 -122t-28 -107.5q-2 -16 -2 -28.5t4.5 -18t15.5 -2.5t30 18q24 18 50 53t55 77q22 34 44.5 70.5t45 71.5t46 67t47.5 56
q3 4 10.5 5t15 0.5t13 -4t4.5 -8.5q-3 -6 -7.5 -20t-10.5 -32q-11 -28 -24 -64.5t-25 -74.5t-21 -74t-11 -63q-5 -44 1 -57t29 9q18 16 37.5 42t38 55.5t35 58t28.5 50.5q3 4 7 1.5t2 -6.5q-12 -21 -29 -51t-37 -60.5t-40.5 -57.5t-38.5 -42q-31 -26 -48.5 -4.5t-12.5 84.5
q3 27 9.5 60.5t16 68t20 68t21.5 61.5l15 40q-20 -23 -42 -53.5t-44.5 -65.5t-45.5 -72.5t-46 -73.5q-27 -41 -53 -74t-49 -50q-50 -37 -74 -20t-16 78q6 43 28.5 102t50.5 121.5t55.5 124t44.5 110.5q7 25 4 40.5t-12.5 21.5t-24 4t-30.5 -11q-34 -19 -59.5 -54t-33.5 -72z
M364 669q0 1 6 11.5t13.5 22.5t13.5 23.5t8 14.5q2 4 5.5 3t3.5 -4q4 -16 9 -42.5t8 -42.5q1 -5 -3.5 -6.5t-6.5 3.5l-18 50l-31 -40q-2 -4 -6 -1t-2 8z" />
    <glyph glyph-name="Udieresis" unicode="&#xdc;" horiz-adv-x="495" 
d="M35 415q-2 -5 -6.5 -4.5t-3.5 5.5q8 42 36.5 79.5t66.5 56.5q22 10 43.5 11.5t36.5 -7t21 -28t-3 -51.5q-17 -52 -44.5 -113.5t-55.5 -124t-50 -122t-28 -107.5q-2 -16 -2 -28.5t4.5 -18t15.5 -2.5t30 18q24 18 50 53t55 77q22 34 44.5 70.5t45 71.5t46 67t47.5 56
q3 4 10.5 5t15 0.5t13 -4t4.5 -8.5q-3 -6 -7.5 -20t-10.5 -32q-11 -28 -24 -64.5t-25 -74.5t-21 -74t-11 -63q-5 -44 1 -57t29 9q18 16 37.5 42t38 55.5t35 58t28.5 50.5q3 4 7 1.5t2 -6.5q-12 -21 -29 -51t-37 -60.5t-40.5 -57.5t-38.5 -42q-31 -26 -48.5 -4.5t-12.5 84.5
q3 27 9.5 60.5t16 68t20 68t21.5 61.5l15 40q-20 -23 -42 -53.5t-44.5 -65.5t-45.5 -72.5t-46 -73.5q-27 -41 -53 -74t-49 -50q-50 -37 -74 -20t-16 78q6 43 28.5 102t50.5 121.5t55.5 124t44.5 110.5q7 25 4 40.5t-12.5 21.5t-24 4t-30.5 -11q-34 -19 -59.5 -54t-33.5 -72z
M435 723q7 0 12 -5q2 -3 4 -5.5t2 -7.5q0 -7 -6 -11q-5 -5 -12 -5q-6 0 -11 5q-6 3 -6 11q0 7 6 13q5 5 11 5zM371 723q7 0 12 -5q2 -3 4 -5.5t2 -7.5q0 -7 -6 -11q-5 -5 -12 -5q-6 0 -11 5q-6 3 -6 11q0 7 6 13q5 5 11 5z" />
    <glyph glyph-name="Yacute" unicode="&#xdd;" horiz-adv-x="518" 
d="M21 384q-1 -34 14 -61.5t49 -38.5q5 -2 3 -6.5t-7 -2.5q-36 11 -53.5 42t-15.5 67q1 30 13 58t31.5 51.5t44.5 41t53 25.5q30 8 59.5 7.5t52.5 -13.5q41 -23 52.5 -63.5t4 -90.5t-27.5 -105t-42 -107.5t-40.5 -98t-22.5 -76.5q-2 -14 4 -22t26 1q10 4 28 23.5t40 47
t46.5 59.5t47 63t41 57.5t30.5 41.5q4 6 10.5 8.5t12 2.5t8.5 -3t1 -9q-2 -9 -9 -33t-15.5 -50.5t-15.5 -50t-10 -33.5q-12 -39 -27.5 -89.5t-35.5 -100t-46.5 -92.5t-59.5 -69q-23 -18 -43.5 -22.5t-41.5 1.5q-25 7 -44 27.5t-29 50.5q-2 5 3 6t6 -4q8 -26 26 -45.5
t41 -22.5q27 -3 52 16q33 26 59 69t45.5 92t34 98.5t26.5 88.5q2 5 8.5 25t13.5 42.5t13 42.5t7 26q-11 -14 -28.5 -38.5t-38 -53t-43 -58.5t-43 -56t-38 -44.5t-28.5 -23.5q-25 -11 -39.5 -8t-21 15.5t-5.5 32.5t7 43q8 27 24.5 65t34.5 81t34.5 88.5t24 87.5t2.5 78.5
t-29 62.5q-22 23 -49 25.5t-54 -5.5t-50 -24t-41 -38t-28.5 -48t-11.5 -54zM475 749q4 4 9 1q2 -2 4.5 -4t4.5 -5q2 -4 -1 -7l-51 -46q-4 -4 -7 -0.5t-1 6.5z" />
    <glyph glyph-name="agrave" unicode="&#xe0;" horiz-adv-x="239" 
d="M76 241q-14 -9 -26.5 -22.5t-23 -29t-18.5 -32t-13 -30.5q-8 -24 -8 -36q0 -8 2 -11t5.5 -2.5t8.5 3.5t10 7q31 24 53.5 53.5t51.5 52.5q16 11 28 5.5t7 -21.5q-6 -20 -16 -43t-20.5 -48.5t-18.5 -51.5t-10 -50q-1 -22 4.5 -23.5t13 6t15.5 20t13 19.5q29 45 58 94.5
t47 95.5q2 5 7 2t2 -8q-8 -19 -21 -43.5t-28 -51t-30.5 -52.5t-29.5 -48q-5 -8 -14 -20.5t-19 -21t-20.5 -8t-17.5 18.5q-7 21 -2.5 49t14 57.5t20.5 58t18 51.5q-6 -5 -18.5 -18t-26.5 -29t-29 -31t-25 -23q-5 -4 -12.5 -8.5t-16 -7t-16.5 -1.5t-13 8q-6 10 -5 26
q2 20 11 43t22.5 44.5t31 39t37.5 28.5q8 4 20 8t24.5 5t23.5 -2t17 -12q2 -5 -2 -8t-7 2q-4 6 -11.5 7.5t-16 0t-17 -5t-13.5 -6.5zM124 395q-4 4 1 6q4 6 9 9q4 1 7 -1l41 -57q3 -3 -0.5 -6.5t-6.5 0.5q-11 11 -26 24.5t-25 24.5z" />
    <glyph glyph-name="aacute" unicode="&#xe1;" horiz-adv-x="239" 
d="M76 241q-14 -9 -26.5 -22.5t-23 -29t-18.5 -32t-13 -30.5q-8 -24 -8 -36q0 -8 2 -11t5.5 -2.5t8.5 3.5t10 7q31 24 53.5 53.5t51.5 52.5q16 11 28 5.5t7 -21.5q-6 -20 -16 -43t-20.5 -48.5t-18.5 -51.5t-10 -50q-1 -22 4.5 -23.5t13 6t15.5 20t13 19.5q29 45 58 94.5
t47 95.5q2 5 7 2t2 -8q-8 -19 -21 -43.5t-28 -51t-30.5 -52.5t-29.5 -48q-5 -8 -14 -20.5t-19 -21t-20.5 -8t-17.5 18.5q-7 21 -2.5 49t14 57.5t20.5 58t18 51.5q-6 -5 -18.5 -18t-26.5 -29t-29 -31t-25 -23q-5 -4 -12.5 -8.5t-16 -7t-16.5 -1.5t-13 8q-6 10 -5 26
q2 20 11 43t22.5 44.5t31 39t37.5 28.5q8 4 20 8t24.5 5t23.5 -2t17 -12q2 -5 -2 -8t-7 2q-4 6 -11.5 7.5t-16 0t-17 -5t-13.5 -6.5zM163 408q4 4 9 1q2 -2 4.5 -4t4.5 -5q2 -4 -1 -7l-51 -46q-4 -4 -7 -0.5t-1 6.5z" />
    <glyph glyph-name="acircumflex" unicode="&#xe2;" horiz-adv-x="239" 
d="M76 241q-14 -9 -26.5 -22.5t-23 -29t-18.5 -32t-13 -30.5q-8 -24 -8 -36q0 -8 2 -11t5.5 -2.5t8.5 3.5t10 7q31 24 53.5 53.5t51.5 52.5q16 11 28 5.5t7 -21.5q-6 -20 -16 -43t-20.5 -48.5t-18.5 -51.5t-10 -50q-1 -22 4.5 -23.5t13 6t15.5 20t13 19.5q29 45 58 94.5
t47 95.5q2 5 7 2t2 -8q-8 -19 -21 -43.5t-28 -51t-30.5 -52.5t-29.5 -48q-5 -8 -14 -20.5t-19 -21t-20.5 -8t-17.5 18.5q-7 21 -2.5 49t14 57.5t20.5 58t18 51.5q-6 -5 -18.5 -18t-26.5 -29t-29 -31t-25 -23q-5 -4 -12.5 -8.5t-16 -7t-16.5 -1.5t-13 8q-6 10 -5 26
q2 20 11 43t22.5 44.5t31 39t37.5 28.5q8 4 20 8t24.5 5t23.5 -2t17 -12q2 -5 -2 -8t-7 2q-4 6 -11.5 7.5t-16 0t-17 -5t-13.5 -6.5zM142 368q0 1 6 11.5t13.5 22.5t13.5 23.5t8 14.5q2 4 5.5 3t3.5 -4q4 -16 9 -42.5t8 -42.5q1 -5 -3.5 -6.5t-6.5 3.5l-18 50l-31 -40
q-2 -4 -6 -1t-2 8z" />
    <glyph glyph-name="atilde" unicode="&#xe3;" horiz-adv-x="239" 
d="M76 241q-14 -9 -26.5 -22.5t-23 -29t-18.5 -32t-13 -30.5q-8 -24 -8 -36q0 -8 2 -11t5.5 -2.5t8.5 3.5t10 7q31 24 53.5 53.5t51.5 52.5q16 11 28 5.5t7 -21.5q-6 -20 -16 -43t-20.5 -48.5t-18.5 -51.5t-10 -50q-1 -22 4.5 -23.5t13 6t15.5 20t13 19.5q29 45 58 94.5
t47 95.5q2 5 7 2t2 -8q-8 -19 -21 -43.5t-28 -51t-30.5 -52.5t-29.5 -48q-5 -8 -14 -20.5t-19 -21t-20.5 -8t-17.5 18.5q-7 21 -2.5 49t14 57.5t20.5 58t18 51.5q-6 -5 -18.5 -18t-26.5 -29t-29 -31t-25 -23q-5 -4 -12.5 -8.5t-16 -7t-16.5 -1.5t-13 8q-6 10 -5 26
q2 20 11 43t22.5 44.5t31 39t37.5 28.5q8 4 20 8t24.5 5t23.5 -2t17 -12q2 -5 -2 -8t-7 2q-4 6 -11.5 7.5t-16 0t-17 -5t-13.5 -6.5zM114 353q-2 -2 -5 0t0 4q17 20 36.5 19.5t40.5 -6.5q17 -5 32 -8t26 7q2 2 4 0t0 -5q-17 -17 -36.5 -17t-40.5 5q-17 5 -32 8.5t-25 -7.5z
" />
    <glyph glyph-name="adieresis" unicode="&#xe4;" horiz-adv-x="239" 
d="M76 241q-14 -9 -26.5 -22.5t-23 -29t-18.5 -32t-13 -30.5q-8 -24 -8 -36q0 -8 2 -11t5.5 -2.5t8.5 3.5t10 7q31 24 53.5 53.5t51.5 52.5q16 11 28 5.5t7 -21.5q-6 -20 -16 -43t-20.5 -48.5t-18.5 -51.5t-10 -50q-1 -22 4.5 -23.5t13 6t15.5 20t13 19.5q29 45 58 94.5
t47 95.5q2 5 7 2t2 -8q-8 -19 -21 -43.5t-28 -51t-30.5 -52.5t-29.5 -48q-5 -8 -14 -20.5t-19 -21t-20.5 -8t-17.5 18.5q-7 21 -2.5 49t14 57.5t20.5 58t18 51.5q-6 -5 -18.5 -18t-26.5 -29t-29 -31t-25 -23q-5 -4 -12.5 -8.5t-16 -7t-16.5 -1.5t-13 8q-6 10 -5 26
q2 20 11 43t22.5 44.5t31 39t37.5 28.5q8 4 20 8t24.5 5t23.5 -2t17 -12q2 -5 -2 -8t-7 2q-4 6 -11.5 7.5t-16 0t-17 -5t-13.5 -6.5zM139 385q7 0 12 -5q2 -3 4 -5.5t2 -7.5q0 -7 -6 -11q-5 -5 -12 -5q-6 0 -11 5q-6 3 -6 11q0 7 6 13q5 5 11 5zM203 385q7 0 12 -5
q2 -3 4 -5.5t2 -7.5q0 -7 -6 -11q-5 -5 -12 -5q-6 0 -11 5q-6 3 -6 11q0 7 6 13q5 5 11 5z" />
    <glyph glyph-name="aring" unicode="&#xe5;" horiz-adv-x="239" 
d="M76 241q-14 -9 -26.5 -22.5t-23 -29t-18.5 -32t-13 -30.5q-8 -24 -8 -36q0 -8 2 -11t5.5 -2.5t8.5 3.5t10 7q31 24 53.5 53.5t51.5 52.5q16 11 28 5.5t7 -21.5q-6 -20 -16 -43t-20.5 -48.5t-18.5 -51.5t-10 -50q-1 -22 4.5 -23.5t13 6t15.5 20t13 19.5q29 45 58 94.5
t47 95.5q2 5 7 2t2 -8q-8 -19 -21 -43.5t-28 -51t-30.5 -52.5t-29.5 -48q-5 -8 -14 -20.5t-19 -21t-20.5 -8t-17.5 18.5q-7 21 -2.5 49t14 57.5t20.5 58t18 51.5q-6 -5 -18.5 -18t-26.5 -29t-29 -31t-25 -23q-5 -4 -12.5 -8.5t-16 -7t-16.5 -1.5t-13 8q-6 10 -5 26
q2 20 11 43t22.5 44.5t31 39t37.5 28.5q8 4 20 8t24.5 5t23.5 -2t17 -12q2 -5 -2 -8t-7 2q-4 6 -11.5 7.5t-16 0t-17 -5t-13.5 -6.5zM185 411q15 0 23.5 -9t8.5 -23q0 -16 -10 -24t-21.5 -8t-21.5 8t-10 24q0 14 9 23t22 9zM185 402q-10 0 -16.5 -6.5t-6.5 -17.5t7 -16.5
t16 -5.5t16 5.5t7 16.5t-6 17.5t-17 6.5z" />
    <glyph glyph-name="ae" unicode="&#xe6;" horiz-adv-x="415" 
d="M134 118q-3 -17 -4 -37t9 -35q6 -10 14.5 -11.5t17.5 2.5t18 11t17 15q16 15 31 34t28 38t23.5 35t17.5 27q2 5 6.5 3t2.5 -7q-6 -11 -17 -28t-24.5 -36t-28.5 -38t-31 -35q-10 -11 -23 -20.5t-26.5 -14.5t-26 -4.5t-21.5 11.5q-10 11 -14 26t-4.5 31t2 32t5.5 29
q2 7 4.5 14.5t5.5 15.5l2 5q-6 -5 -18.5 -18t-26.5 -29t-29 -31t-25 -23q-5 -4 -12.5 -8.5t-16 -7t-16.5 -1.5t-13 8q-6 10 -5 26q2 20 11 43t22.5 44.5t31 39t37.5 28.5q8 4 20 8t24.5 5t23.5 -2t17 -12q2 -5 -2 -8t-7 2q-4 6 -11.5 7.5t-16 0t-17 -5t-13.5 -6.5
q-14 -9 -26.5 -22.5t-23 -29t-18.5 -32t-13 -30.5q-8 -24 -8 -36q0 -8 2 -11t5.5 -2.5t8.5 3.5t10 7q31 24 53.5 53.5t51.5 52.5q6 4 9 5q11 20 26 36t34 24q26 10 37 -4t2 -37q-6 -15 -16 -29t-22.5 -27t-26.5 -24.5t-27 -19.5zM136 132q11 7 23 17.5t23 22.5t20.5 25
t14.5 26q5 14 1 22.5t-21 -2.5q-14 -9 -24.5 -24.5t-18.5 -32.5q-6 -14 -10.5 -27t-7.5 -27z" />
    <glyph glyph-name="ccedilla" unicode="&#xe7;" horiz-adv-x="176" 
d="M120 224q2 -5 -2.5 -7.5t-6.5 2.5q-8 14 -20.5 16.5t-25.5 -4.5q-17 -9 -30.5 -26.5t-23.5 -39t-14.5 -44t-2.5 -40.5q1 -18 8 -26.5t17 -10t22 2.5t24 13q35 23 63 61.5t48 75.5q2 5 7 3t2 -7q-20 -38 -49 -77.5t-65 -64.5q-12 -8 -26.5 -13.5t-28.5 -6.5q0 -8 1 -8
q4 -2 6 -1t6 -1q11 -4 17.5 -13.5t4.5 -18.5t-14.5 -14.5t-37.5 -0.5q-5 1 -5.5 6t6.5 4q25 -2 36 5.5t-10 20.5q-4 2 -8 1.5t-8 0.5q-6 1 -6 20q-26 2 -37 23q-11 19 -7 49t17.5 59t33 52.5t39.5 30.5q19 7 39.5 2t30.5 -24z" />
    <glyph glyph-name="egrave" unicode="&#xe8;" horiz-adv-x="176" 
d="M7 133q22 14 45.5 39t34.5 51q5 14 1 22.5t-21 -2.5q-13 -8 -22.5 -21t-17 -28t-12.5 -31t-8 -30zM4 118q-3 -17 -4 -37t9 -35q6 -10 14.5 -11.5t17.5 2.5t18 11t17 15q16 15 31 34t28 38t23.5 35t17.5 27q2 5 6.5 3t2.5 -7q-6 -11 -17 -28t-24.5 -36t-28.5 -38t-31 -35
q-10 -11 -23 -20.5t-26.5 -14.5t-26 -4.5t-21.5 11.5q-10 11 -14 26t-4.5 31t2 32t5.5 29q4 15 11.5 32.5t17.5 33t23 28.5t29 19q26 10 37 -4t2 -37q-6 -15 -16 -29t-22.5 -27t-26.5 -24.5t-27 -19.5zM79 396q-4 4 1 6q4 6 9 9q4 1 7 -1l41 -57q3 -3 -0.5 -6.5t-6.5 0.5
q-11 11 -26 24.5t-25 24.5z" />
    <glyph glyph-name="eacute" unicode="&#xe9;" horiz-adv-x="176" 
d="M7 133q22 14 45.5 39t34.5 51q5 14 1 22.5t-21 -2.5q-13 -8 -22.5 -21t-17 -28t-12.5 -31t-8 -30zM4 118q-3 -17 -4 -37t9 -35q6 -10 14.5 -11.5t17.5 2.5t18 11t17 15q16 15 31 34t28 38t23.5 35t17.5 27q2 5 6.5 3t2.5 -7q-6 -11 -17 -28t-24.5 -36t-28.5 -38t-31 -35
q-10 -11 -23 -20.5t-26.5 -14.5t-26 -4.5t-21.5 11.5q-10 11 -14 26t-4.5 31t2 32t5.5 29q4 15 11.5 32.5t17.5 33t23 28.5t29 19q26 10 37 -4t2 -37q-6 -15 -16 -29t-22.5 -27t-26.5 -24.5t-27 -19.5zM116 406q4 4 9 1q2 -2 4.5 -4t4.5 -5q2 -4 -1 -7l-51 -46
q-4 -4 -7 -0.5t-1 6.5z" />
    <glyph glyph-name="ecircumflex" unicode="&#xea;" horiz-adv-x="176" 
d="M7 133q22 14 45.5 39t34.5 51q5 14 1 22.5t-21 -2.5q-13 -8 -22.5 -21t-17 -28t-12.5 -31t-8 -30zM4 118q-3 -17 -4 -37t9 -35q6 -10 14.5 -11.5t17.5 2.5t18 11t17 15q16 15 31 34t28 38t23.5 35t17.5 27q2 5 6.5 3t2.5 -7q-6 -11 -17 -28t-24.5 -36t-28.5 -38t-31 -35
q-10 -11 -23 -20.5t-26.5 -14.5t-26 -4.5t-21.5 11.5q-10 11 -14 26t-4.5 31t2 32t5.5 29q4 15 11.5 32.5t17.5 33t23 28.5t29 19q26 10 37 -4t2 -37q-6 -15 -16 -29t-22.5 -27t-26.5 -24.5t-27 -19.5zM79 366q0 1 6 11.5t13.5 22.5t13.5 23.5t8 14.5q2 4 5.5 3t3.5 -4
q4 -16 9 -42.5t8 -42.5q1 -5 -3.5 -6.5t-6.5 3.5l-18 50l-31 -40q-2 -4 -6 -1t-2 8z" />
    <glyph glyph-name="edieresis" unicode="&#xeb;" horiz-adv-x="176" 
d="M7 133q22 14 45.5 39t34.5 51q5 14 1 22.5t-21 -2.5q-13 -8 -22.5 -21t-17 -28t-12.5 -31t-8 -30zM4 118q-3 -17 -4 -37t9 -35q6 -10 14.5 -11.5t17.5 2.5t18 11t17 15q16 15 31 34t28 38t23.5 35t17.5 27q2 5 6.5 3t2.5 -7q-6 -11 -17 -28t-24.5 -36t-28.5 -38t-31 -35
q-10 -11 -23 -20.5t-26.5 -14.5t-26 -4.5t-21.5 11.5q-10 11 -14 26t-4.5 31t2 32t5.5 29q4 15 11.5 32.5t17.5 33t23 28.5t29 19q26 10 37 -4t2 -37q-6 -15 -16 -29t-22.5 -27t-26.5 -24.5t-27 -19.5zM85 383q7 0 12 -5q2 -3 4 -5.5t2 -7.5q0 -7 -6 -11q-5 -5 -12 -5
q-6 0 -11 5q-6 3 -6 11q0 7 6 13q5 5 11 5zM149 383q7 0 12 -5q2 -3 4 -5.5t2 -7.5q0 -7 -6 -11q-5 -5 -12 -5q-6 0 -11 5q-6 3 -6 11q0 7 6 13q5 5 11 5z" />
    <glyph glyph-name="igrave" unicode="&#xec;" horiz-adv-x="110" 
d="M43 220q-8 -21 -19.5 -46.5t-22 -51.5t-18.5 -51.5t-10 -46.5q-1 -12 1.5 -15t7 -0.5t9.5 7.5t9 10q13 16 27.5 38t29.5 46t28.5 46.5t24.5 40.5q2 5 6.5 2.5t1.5 -7.5q-11 -18 -25 -41t-28.5 -46t-29.5 -45t-28 -40q-12 -16 -24 -21.5t-21 -2.5t-13.5 14.5t-1.5 29.5
q3 20 12.5 52.5t20.5 63t20.5 52.5t11.5 22q1 3 6.5 4t12 0t10.5 -4.5t2 -9.5zM37 396q-4 4 1 6q4 6 9 9q4 1 7 -1l41 -57q3 -3 -0.5 -6.5t-6.5 0.5q-11 11 -26 24.5t-25 24.5z" />
    <glyph glyph-name="iacute" unicode="&#xed;" horiz-adv-x="110" 
d="M43 220q-8 -21 -19.5 -46.5t-22 -51.5t-18.5 -51.5t-10 -46.5q-1 -12 1.5 -15t7 -0.5t9.5 7.5t9 10q13 16 27.5 38t29.5 46t28.5 46.5t24.5 40.5q2 5 6.5 2.5t1.5 -7.5q-11 -18 -25 -41t-28.5 -46t-29.5 -45t-28 -40q-12 -16 -24 -21.5t-21 -2.5t-13.5 14.5t-1.5 29.5
q3 20 12.5 52.5t20.5 63t20.5 52.5t11.5 22q1 3 6.5 4t12 0t10.5 -4.5t2 -9.5zM89 407q4 4 9 1q2 -2 4.5 -4t4.5 -5q2 -4 -1 -7l-51 -46q-4 -4 -7 -0.5t-1 6.5z" />
    <glyph glyph-name="icircumflex" unicode="&#xee;" horiz-adv-x="110" 
d="M43 220q-8 -21 -19.5 -46.5t-22 -51.5t-18.5 -51.5t-10 -46.5q-1 -12 1.5 -15t7 -0.5t9.5 7.5t9 10q13 16 27.5 38t29.5 46t28.5 46.5t24.5 40.5q2 5 6.5 2.5t1.5 -7.5q-11 -18 -25 -41t-28.5 -46t-29.5 -45t-28 -40q-12 -16 -24 -21.5t-21 -2.5t-13.5 14.5t-1.5 29.5
q3 20 12.5 52.5t20.5 63t20.5 52.5t11.5 22q1 3 6.5 4t12 0t10.5 -4.5t2 -9.5zM45 354q0 1 6 11.5t13.5 22.5t13.5 23.5t8 14.5q2 4 5.5 3t3.5 -4q4 -16 9 -42.5t8 -42.5q1 -5 -3.5 -6.5t-6.5 3.5l-18 50l-31 -40q-2 -4 -6 -1t-2 8z" />
    <glyph glyph-name="idieresis" unicode="&#xef;" horiz-adv-x="110" 
d="M43 220q-8 -21 -19.5 -46.5t-22 -51.5t-18.5 -51.5t-10 -46.5q-1 -12 1.5 -15t7 -0.5t9.5 7.5t9 10q13 16 27.5 38t29.5 46t28.5 46.5t24.5 40.5q2 5 6.5 2.5t1.5 -7.5q-11 -18 -25 -41t-28.5 -46t-29.5 -45t-28 -40q-12 -16 -24 -21.5t-21 -2.5t-13.5 14.5t-1.5 29.5
q3 20 12.5 52.5t20.5 63t20.5 52.5t11.5 22q1 3 6.5 4t12 0t10.5 -4.5t2 -9.5zM48 380q7 0 12 -5q2 -3 4 -5.5t2 -7.5q0 -7 -6 -11q-5 -5 -12 -5q-6 0 -11 5q-6 3 -6 11q0 7 6 13q5 5 11 5zM112 380q7 0 12 -5q2 -3 4 -5.5t2 -7.5q0 -7 -6 -11q-5 -5 -12 -5q-6 0 -11 5
q-6 3 -6 11q0 7 6 13q5 5 11 5z" />
    <glyph glyph-name="ntilde" unicode="&#xf1;" horiz-adv-x="236" 
d="M41 219q-13 -35 -27 -69.5t-26 -69.5q12 18 26.5 39.5t30 43t31 40t28.5 29.5q11 9 22.5 12t21 0.5t15 -11t4.5 -22.5q-5 -32 -21.5 -66t-36 -69t-37 -69.5t-24.5 -67.5q-3 -14 4.5 -16t22.5 17q21 26 43.5 58.5t43.5 67t40 68t35 62.5q2 5 6.5 3.5t2.5 -6.5
q-16 -29 -35.5 -64t-40.5 -70t-43.5 -68t-43.5 -58q-13 -15 -25.5 -20.5t-21 -2t-12 15.5t1.5 32q7 31 24 66.5t34.5 69.5t31.5 64.5t16 52.5q1 11 -3.5 17.5t-19.5 -4.5q-11 -8 -28 -29.5t-36 -47.5t-37.5 -52.5t-30.5 -43.5q-9 -4 -19 -1t-10 13q4 13 11 33.5t15.5 43
t17.5 44t15 37.5q2 5 8 7t12.5 1.5t10.5 -3.5t3 -7zM71 356q-2 -2 -5 0t0 4q17 20 36.5 19.5t40.5 -6.5q17 -5 32 -8t26 7q2 2 4 0t0 -5q-17 -17 -36.5 -17t-40.5 5q-17 5 -32 8.5t-25 -7.5z" />
    <glyph glyph-name="ograve" unicode="&#xf2;" 
d="M40 50q11 10 19.5 24.5t16.5 31.5q-26 0 -45 18t-27 41q-6 -11 -11.5 -26t-8 -31t-1.5 -31.5t7 -26.5q10 -18 23.5 -15t26.5 15zM-31 34q-13 15 -15 38.5t3.5 48t16.5 47t24 35.5q3 25 18.5 40.5t34 18t34.5 -10.5t20 -45q2 -17 -1.5 -40.5t-11.5 -47.5q26 8 46 32.5
t33 48.5q2 5 6.5 2.5t1.5 -7.5q-7 -14 -16 -28t-20.5 -26t-25.5 -21t-30 -11q-15 -40 -40 -65q-16 -16 -38.5 -21t-39.5 12zM11 214q5 3 8.5 5t8.5 4q4 1 8 -1.5t6 -6.5t1 -8.5t-5 -7.5q-11 -7 -15.5 -11t-11.5 -12q3 -11 9 -22t15 -19.5t20.5 -13.5t24.5 -4q7 19 12 42.5
t2 43.5q-3 25 -14 36.5t-24.5 12t-26 -9.5t-18.5 -28zM67 396q-4 4 1 6q4 6 9 9q4 1 7 -1l41 -57q3 -3 -0.5 -6.5t-6.5 0.5q-11 11 -26 24.5t-25 24.5z" />
    <glyph glyph-name="oacute" unicode="&#xf3;" 
d="M40 50q11 10 19.5 24.5t16.5 31.5q-26 0 -45 18t-27 41q-6 -11 -11.5 -26t-8 -31t-1.5 -31.5t7 -26.5q10 -18 23.5 -15t26.5 15zM-31 34q-13 15 -15 38.5t3.5 48t16.5 47t24 35.5q3 25 18.5 40.5t34 18t34.5 -10.5t20 -45q2 -17 -1.5 -40.5t-11.5 -47.5q26 8 46 32.5
t33 48.5q2 5 6.5 2.5t1.5 -7.5q-7 -14 -16 -28t-20.5 -26t-25.5 -21t-30 -11q-15 -40 -40 -65q-16 -16 -38.5 -21t-39.5 12zM11 214q5 3 8.5 5t8.5 4q4 1 8 -1.5t6 -6.5t1 -8.5t-5 -7.5q-11 -7 -15.5 -11t-11.5 -12q3 -11 9 -22t15 -19.5t20.5 -13.5t24.5 -4q7 19 12 42.5
t2 43.5q-3 25 -14 36.5t-24.5 12t-26 -9.5t-18.5 -28zM124 408q4 4 9 1q2 -2 4.5 -4t4.5 -5q2 -4 -1 -7l-51 -46q-4 -4 -7 -0.5t-1 6.5z" />
    <glyph glyph-name="ocircumflex" unicode="&#xf4;" 
d="M40 50q11 10 19.5 24.5t16.5 31.5q-26 0 -45 18t-27 41q-6 -11 -11.5 -26t-8 -31t-1.5 -31.5t7 -26.5q10 -18 23.5 -15t26.5 15zM-31 34q-13 15 -15 38.5t3.5 48t16.5 47t24 35.5q3 25 18.5 40.5t34 18t34.5 -10.5t20 -45q2 -17 -1.5 -40.5t-11.5 -47.5q26 8 46 32.5
t33 48.5q2 5 6.5 2.5t1.5 -7.5q-7 -14 -16 -28t-20.5 -26t-25.5 -21t-30 -11q-15 -40 -40 -65q-16 -16 -38.5 -21t-39.5 12zM11 214q5 3 8.5 5t8.5 4q4 1 8 -1.5t6 -6.5t1 -8.5t-5 -7.5q-11 -7 -15.5 -11t-11.5 -12q3 -11 9 -22t15 -19.5t20.5 -13.5t24.5 -4q7 19 12 42.5
t2 43.5q-3 25 -14 36.5t-24.5 12t-26 -9.5t-18.5 -28zM72 362q0 1 6 11.5t13.5 22.5t13.5 23.5t8 14.5q2 4 5.5 3t3.5 -4q4 -16 9 -42.5t8 -42.5q1 -5 -3.5 -6.5t-6.5 3.5l-18 50l-31 -40q-2 -4 -6 -1t-2 8z" />
    <glyph glyph-name="otilde" unicode="&#xf5;" 
d="M40 50q11 10 19.5 24.5t16.5 31.5q-26 0 -45 18t-27 41q-6 -11 -11.5 -26t-8 -31t-1.5 -31.5t7 -26.5q10 -18 23.5 -15t26.5 15zM-31 34q-13 15 -15 38.5t3.5 48t16.5 47t24 35.5q3 25 18.5 40.5t34 18t34.5 -10.5t20 -45q2 -17 -1.5 -40.5t-11.5 -47.5q26 8 46 32.5
t33 48.5q2 5 6.5 2.5t1.5 -7.5q-7 -14 -16 -28t-20.5 -26t-25.5 -21t-30 -11q-15 -40 -40 -65q-16 -16 -38.5 -21t-39.5 12zM11 214q5 3 8.5 5t8.5 4q4 1 8 -1.5t6 -6.5t1 -8.5t-5 -7.5q-11 -7 -15.5 -11t-11.5 -12q3 -11 9 -22t15 -19.5t20.5 -13.5t24.5 -4q7 19 12 42.5
t2 43.5q-3 25 -14 36.5t-24.5 12t-26 -9.5t-18.5 -28zM45 348q-2 -2 -5 0t0 4q17 20 36.5 19.5t40.5 -6.5q17 -5 32 -8t26 7q2 2 4 0t0 -5q-17 -17 -36.5 -17t-40.5 5q-17 5 -32 8.5t-25 -7.5z" />
    <glyph glyph-name="odieresis" unicode="&#xf6;" 
d="M40 50q11 10 19.5 24.5t16.5 31.5q-26 0 -45 18t-27 41q-6 -11 -11.5 -26t-8 -31t-1.5 -31.5t7 -26.5q10 -18 23.5 -15t26.5 15zM-31 34q-13 15 -15 38.5t3.5 48t16.5 47t24 35.5q3 25 18.5 40.5t34 18t34.5 -10.5t20 -45q2 -17 -1.5 -40.5t-11.5 -47.5q26 8 46 32.5
t33 48.5q2 5 6.5 2.5t1.5 -7.5q-7 -14 -16 -28t-20.5 -26t-25.5 -21t-30 -11q-15 -40 -40 -65q-16 -16 -38.5 -21t-39.5 12zM11 214q5 3 8.5 5t8.5 4q4 1 8 -1.5t6 -6.5t1 -8.5t-5 -7.5q-11 -7 -15.5 -11t-11.5 -12q3 -11 9 -22t15 -19.5t20.5 -13.5t24.5 -4q7 19 12 42.5
t2 43.5q-3 25 -14 36.5t-24.5 12t-26 -9.5t-18.5 -28zM80 381q7 0 12 -5q2 -3 4 -5.5t2 -7.5q0 -7 -6 -11q-5 -5 -12 -5q-6 0 -11 5q-6 3 -6 11q0 7 6 13q5 5 11 5zM144 381q7 0 12 -5q2 -3 4 -5.5t2 -7.5q0 -7 -6 -11q-5 -5 -12 -5q-6 0 -11 5q-6 3 -6 11q0 7 6 13
q5 5 11 5z" />
    <glyph glyph-name="divide" unicode="&#xf7;" horiz-adv-x="120" 
d="M37 245q7 0 12 -6q4 -6 4 -12t-4 -12q-2 -2 -5.5 -3.5t-6.5 -1.5q-4 0 -7 1.5t-6 3.5q-4 4 -4 12t4 12q6 6 13 6zM84 376q5 0 11 -6q5 -3 5 -11q0 -7 -5 -12q-5 -6 -11 -6q-7 0 -13 6q-4 4 -4 12t4 11q8 6 13 6zM-32 280q-8 0 -8 6q0 8 8 8h185q8 0 8 -8q0 -6 -8 -6h-58
q-63 -1 -127 0z" />
    <glyph glyph-name="oslash" unicode="&#xf8;" 
d="M88 291q2 0 2 -2q0 -3 -11 -33q20 -12 26 -50q2 -17 -1.5 -40.5t-11.5 -47.5q26 8 46 32.5t33 48.5q2 5 6.5 2.5t1.5 -7.5q-7 -14 -16 -28t-20.5 -26t-25.5 -21t-30 -11q-15 -40 -40 -65q-11 -11 -25.5 -17t-28.5 -4q-3 -10 -5.5 -16.5t-4.5 -9.5q-2 -2 -3 -2h-4
q-4 0 -2 4l10 26q-8 3 -15 10q-13 15 -15 38.5t3.5 48t16.5 47t24 35.5q4 32 26.5 48t45.5 8l11 31q1 0 1 0.5t1 0.5h5zM80 117q7 19 12 42.5t2 43.5q-3 29 -20 41q-8 -22 -18.5 -51t-21.5 -59q20 -18 46 -17zM40 50q11 10 19.5 24.5t16.5 31.5q-25 0 -46 18l-31 -86
q9 -7 19.5 -2.5t21.5 14.5zM4 165q-6 -11 -11.5 -26t-8 -31t-1.5 -31.5t7 -26.5l2 -3l31 85q-7 7 -11.5 15.5t-7.5 17.5zM11 214q5 3 8.5 5t8.5 4q4 1 8 -1.5t6 -6.5t1 -8.5t-5 -7.5q-11 -7 -15.5 -11t-11.5 -12q3 -16 16 -33l39 106q-16 5 -32 -4.5t-23 -30.5z" />
    <glyph glyph-name="ugrave" unicode="&#xf9;" horiz-adv-x="248" 
d="M36 212q-5 -15 -12.5 -34.5t-14 -40t-11.5 -40.5t-6 -35q-1 -9 0 -15.5t5 -8t11 3.5t19 20q29 35 52.5 76t45.5 81q9 17 16 29.5t12 17.5q3 3 9.5 5t11.5 1.5t8 -5t-1 -14.5q-11 -28 -26 -71t-28 -89.5t-22 -90t-9 -72.5q0 -7 1 -12t4 -6t8.5 3.5t13.5 15.5
q11 16 24.5 42t27.5 55.5t27 59.5t23.5 54t16.5 39.5l6 15.5q2 5 6.5 2.5t1.5 -7.5q-1 -2 -7 -17t-15.5 -38.5t-22.5 -52.5t-27 -58t-28 -55.5t-27 -45.5q-21 -29 -35.5 -26.5t-18.5 29.5q-4 22 2 61.5t16 82.5t21.5 82t20.5 61q-22 -39 -46.5 -81t-53.5 -78
q-9 -12 -21.5 -21t-24 -11.5t-19.5 3t-9 23.5q-2 14 3 36.5t12 46.5t15 46.5t14 37.5q3 8 9.5 11t12.5 1.5t9 -6.5t0 -11zM121 393q-4 4 1 6q4 6 9 9q4 1 7 -1l41 -57q3 -3 -0.5 -6.5t-6.5 0.5q-11 11 -26 24.5t-25 24.5z" />
    <glyph glyph-name="uacute" unicode="&#xfa;" horiz-adv-x="248" 
d="M36 212q-5 -15 -12.5 -34.5t-14 -40t-11.5 -40.5t-6 -35q-1 -9 0 -15.5t5 -8t11 3.5t19 20q29 35 52.5 76t45.5 81q9 17 16 29.5t12 17.5q3 3 9.5 5t11.5 1.5t8 -5t-1 -14.5q-11 -28 -26 -71t-28 -89.5t-22 -90t-9 -72.5q0 -7 1 -12t4 -6t8.5 3.5t13.5 15.5
q11 16 24.5 42t27.5 55.5t27 59.5t23.5 54t16.5 39.5l6 15.5q2 5 6.5 2.5t1.5 -7.5q-1 -2 -7 -17t-15.5 -38.5t-22.5 -52.5t-27 -58t-28 -55.5t-27 -45.5q-21 -29 -35.5 -26.5t-18.5 29.5q-4 22 2 61.5t16 82.5t21.5 82t20.5 61q-22 -39 -46.5 -81t-53.5 -78
q-9 -12 -21.5 -21t-24 -11.5t-19.5 3t-9 23.5q-2 14 3 36.5t12 46.5t15 46.5t14 37.5q3 8 9.5 11t12.5 1.5t9 -6.5t0 -11zM156 408q4 4 9 1q2 -2 4.5 -4t4.5 -5q2 -4 -1 -7l-51 -46q-4 -4 -7 -0.5t-1 6.5z" />
    <glyph glyph-name="ucircumflex" unicode="&#xfb;" horiz-adv-x="248" 
d="M36 212q-5 -15 -12.5 -34.5t-14 -40t-11.5 -40.5t-6 -35q-1 -9 0 -15.5t5 -8t11 3.5t19 20q29 35 52.5 76t45.5 81q9 17 16 29.5t12 17.5q3 3 9.5 5t11.5 1.5t8 -5t-1 -14.5q-11 -28 -26 -71t-28 -89.5t-22 -90t-9 -72.5q0 -7 1 -12t4 -6t8.5 3.5t13.5 15.5
q11 16 24.5 42t27.5 55.5t27 59.5t23.5 54t16.5 39.5l6 15.5q2 5 6.5 2.5t1.5 -7.5q-1 -2 -7 -17t-15.5 -38.5t-22.5 -52.5t-27 -58t-28 -55.5t-27 -45.5q-21 -29 -35.5 -26.5t-18.5 29.5q-4 22 2 61.5t16 82.5t21.5 82t20.5 61q-22 -39 -46.5 -81t-53.5 -78
q-9 -12 -21.5 -21t-24 -11.5t-19.5 3t-9 23.5q-2 14 3 36.5t12 46.5t15 46.5t14 37.5q3 8 9.5 11t12.5 1.5t9 -6.5t0 -11zM109 360q0 1 6 11.5t13.5 22.5t13.5 23.5t8 14.5q2 4 5.5 3t3.5 -4q4 -16 9 -42.5t8 -42.5q1 -5 -3.5 -6.5t-6.5 3.5l-18 50l-31 -40q-2 -4 -6 -1
t-2 8z" />
    <glyph glyph-name="udieresis" unicode="&#xfc;" horiz-adv-x="248" 
d="M36 212q-5 -15 -12.5 -34.5t-14 -40t-11.5 -40.5t-6 -35q-1 -9 0 -15.5t5 -8t11 3.5t19 20q29 35 52.5 76t45.5 81q9 17 16 29.5t12 17.5q3 3 9.5 5t11.5 1.5t8 -5t-1 -14.5q-11 -28 -26 -71t-28 -89.5t-22 -90t-9 -72.5q0 -7 1 -12t4 -6t8.5 3.5t13.5 15.5
q11 16 24.5 42t27.5 55.5t27 59.5t23.5 54t16.5 39.5l6 15.5q2 5 6.5 2.5t1.5 -7.5q-1 -2 -7 -17t-15.5 -38.5t-22.5 -52.5t-27 -58t-28 -55.5t-27 -45.5q-21 -29 -35.5 -26.5t-18.5 29.5q-4 22 2 61.5t16 82.5t21.5 82t20.5 61q-22 -39 -46.5 -81t-53.5 -78
q-9 -12 -21.5 -21t-24 -11.5t-19.5 3t-9 23.5q-2 14 3 36.5t12 46.5t15 46.5t14 37.5q3 8 9.5 11t12.5 1.5t9 -6.5t0 -11zM109 384q7 0 12 -5q2 -3 4 -5.5t2 -7.5q0 -7 -6 -11q-5 -5 -12 -5q-6 0 -11 5q-6 3 -6 11q0 7 6 13q5 5 11 5zM173 384q7 0 12 -5q2 -3 4 -5.5t2 -7.5
q0 -7 -6 -11q-5 -5 -12 -5q-6 0 -11 5q-6 3 -6 11q0 7 6 13q5 5 11 5z" />
    <glyph glyph-name="yacute" unicode="&#xfd;" horiz-adv-x="245" 
d="M109 34q16 14 35 34t37.5 42t35 44.5t28.5 41.5q3 5 7 2.5t2 -7.5q-14 -21 -31.5 -45t-37 -47t-40.5 -44t-41 -37q-4 -14 -8.5 -28.5t-9.5 -28.5q-9 -26 -25.5 -65t-37.5 -77.5t-46 -70.5t-53 -43q-18 -7 -30 -4t-18 12.5t-6 24t6 31.5q10 28 33 61.5t50.5 65.5t56 60
t51.5 46q16 51 29.5 104t26.5 107q-19 -42 -41.5 -86t-54.5 -78q-5 -6 -13.5 -13t-18 -11t-18 -3t-13.5 11q-8 15 -5 38.5t10.5 50t17 51t15.5 40.5q3 6 9.5 9t12.5 2.5t9.5 -4.5t0.5 -12q-5 -13 -13.5 -34.5t-16 -44.5t-12 -44t-2.5 -33q2 -8 6 -10t8.5 0t9.5 6.5t10 9.5
q34 39 57.5 88.5t45.5 95.5q3 7 9 9t12 1t10 -5t3 -8q-2 -12 -8 -39.5t-14.5 -58.5t-16.5 -60.5t-13 -46.5zM54 -36q2 5 3.5 10.5t3.5 10.5q-20 -16 -46.5 -42.5t-52 -57t-46.5 -62t-30 -56.5q-7 -20 -5.5 -33t9.5 -16.5t20.5 2t27.5 21.5q18 19 35 48t32.5 60.5t28 62
t20.5 52.5zM153 412q4 4 9 1q2 -2 4.5 -4t4.5 -5q2 -4 -1 -7l-51 -46q-4 -4 -7 -0.5t-1 6.5z" />
    <glyph glyph-name="ydieresis" unicode="&#xff;" horiz-adv-x="245" 
d="M109 34q16 14 35 34t37.5 42t35 44.5t28.5 41.5q3 5 7 2.5t2 -7.5q-14 -21 -31.5 -45t-37 -47t-40.5 -44t-41 -37q-4 -14 -8.5 -28.5t-9.5 -28.5q-9 -26 -25.5 -65t-37.5 -77.5t-46 -70.5t-53 -43q-18 -7 -30 -4t-18 12.5t-6 24t6 31.5q10 28 33 61.5t50.5 65.5t56 60
t51.5 46q16 51 29.5 104t26.5 107q-19 -42 -41.5 -86t-54.5 -78q-5 -6 -13.5 -13t-18 -11t-18 -3t-13.5 11q-8 15 -5 38.5t10.5 50t17 51t15.5 40.5q3 6 9.5 9t12.5 2.5t9.5 -4.5t0.5 -12q-5 -13 -13.5 -34.5t-16 -44.5t-12 -44t-2.5 -33q2 -8 6 -10t8.5 0t9.5 6.5t10 9.5
q34 39 57.5 88.5t45.5 95.5q3 7 9 9t12 1t10 -5t3 -8q-2 -12 -8 -39.5t-14.5 -58.5t-16.5 -60.5t-13 -46.5zM54 -36q2 5 3.5 10.5t3.5 10.5q-20 -16 -46.5 -42.5t-52 -57t-46.5 -62t-30 -56.5q-7 -20 -5.5 -33t9.5 -16.5t20.5 2t27.5 21.5q18 19 35 48t32.5 60.5t28 62
t20.5 52.5zM96 385q7 0 12 -5q2 -3 4 -5.5t2 -7.5q0 -7 -6 -11q-5 -5 -12 -5q-6 0 -11 5q-6 3 -6 11q0 7 6 13q5 5 11 5zM160 385q7 0 12 -5q2 -3 4 -5.5t2 -7.5q0 -7 -6 -11q-5 -5 -12 -5q-6 0 -11 5q-6 3 -6 11q0 7 6 13q5 5 11 5z" />
    <glyph glyph-name="dotlessi" unicode="&#x131;" horiz-adv-x="110" 
d="M43 220q-8 -21 -19.5 -46.5t-22 -51.5t-18.5 -51.5t-10 -46.5q-1 -12 1.5 -15t7 -0.5t9.5 7.5t9 10q13 16 27.5 38t29.5 46t28.5 46.5t24.5 40.5q2 5 6.5 2.5t1.5 -7.5q-11 -18 -25 -41t-28.5 -46t-29.5 -45t-28 -40q-12 -16 -24 -21.5t-21 -2.5t-13.5 14.5t-1.5 29.5
q3 20 12.5 52.5t20.5 63t20.5 52.5t11.5 22q1 3 6.5 4t12 0t10.5 -4.5t2 -9.5z" />
    <glyph glyph-name="Lslash" unicode="&#x141;" horiz-adv-x="424" 
d="M397 497q5 14 5 26.5t-5.5 17.5t-17 1.5t-29.5 -21.5q-28 -28 -45 -68t-34 -84q-7 -19 -13 -37.5t-12 -38.5l63 21q8 2 10 -6q2 -4 -5 -8l-73 -24l-6 -23q-17 -60 -36.5 -117.5t-44.5 -100.5q22 -4 45.5 -10.5t47.5 -12.5t48 -8.5t46 1.5q30 6 47 25q4 3 6.5 -1t0.5 -6
q-19 -22 -53 -28q-23 -5 -47.5 -2t-49.5 9t-49.5 13t-47.5 10q-14 -23 -36 -44.5t-51 -29.5q-23 -5 -35 2.5t-14.5 20.5t6 28t27.5 26q16 9 36.5 11t40.5 0q24 43 42.5 99.5t37.5 117.5l2 7q-23 -8 -45.5 -14.5t-45.5 -13.5q-7 -3 -9 3q-3 7 5 10l101 33q6 20 11.5 39.5
t12.5 38.5q17 47 38.5 95.5t56.5 79.5q23 20 41.5 24.5t30 -3t14 -24.5t-6.5 -39zM116 29q-17 1 -36 -1t-33 -10q-15 -9 -21.5 -21t-5 -21.5t10 -13t23.5 4.5q20 11 34.5 26t27.5 36z" />
    <glyph glyph-name="Scaron" unicode="&#x160;" horiz-adv-x="409" 
d="M19 168q2 5 6.5 3t2.5 -7q-17 -34 -17 -69.5t21 -66.5q24 -35 66.5 -44.5t86.5 11.5q45 22 64.5 66.5t24.5 97t0.5 105.5t-7.5 92q-28 -17 -55.5 -34.5t-51 -38.5t-39.5 -48t-22 -63q-1 -5 -6 -4.5t-5 5.5q6 38 23.5 66.5t42 50.5t53.5 40.5t59 36.5q-1 21 -1.5 50.5
t2.5 60t10.5 58t23.5 44.5q14 15 31.5 21.5t34 4.5t30 -13t20.5 -33q8 -29 0 -56t-26 -51t-41.5 -44t-46.5 -35q1 -31 4.5 -70.5t4 -82t-4.5 -84t-19.5 -76t-41.5 -59t-71 -32.5q-43 -8 -85 5t-65 47q-23 32 -23 70.5t17 75.5zM329 565q-18 -30 -23.5 -78.5t-3.5 -100.5
q21 13 43 31.5t38 40.5t23.5 47t-0.5 51q-5 17 -13.5 27t-19.5 11.5t-22.5 -5.5t-21.5 -24zM397 722q0 -2 -6 -12t-13.5 -22t-14 -23.5t-7.5 -14.5q-2 -4 -5.5 -3t-3.5 4q-4 16 -9 42.5t-8 42.5q-1 5 3.5 6.5t6.5 -3.5l18 -50l31 40q2 4 6 1t2 -8z" />
    <glyph glyph-name="scaron" unicode="&#x161;" horiz-adv-x="183" 
d="M90 243q2 -5 -1.5 -8t-6.5 2q-14 13 -26 4.5t-19 -22.5q-9 -17 -8.5 -35.5t5.5 -36.5t12 -35.5t11 -33.5q32 21 66 49t60 69q3 5 7 2t1 -7q-26 -42 -61.5 -71.5t-70.5 -52.5q4 -16 3 -34t-7 -34.5t-17 -30.5t-28 -22t-30.5 -6.5t-21 10.5t-8 22.5t9.5 29.5q13 19 33 34
t35 25q-4 21 -13 43t-15 44t-5 44t16 43q7 10 18 16t22 7.5t21.5 -2.5t17.5 -13zM29 50q-14 -9 -33.5 -24.5t-29.5 -33.5q-6 -11 -5.5 -21t6.5 -15t15.5 -4t20.5 12q17 16 22.5 40t3.5 46zM124 421q0 -2 -6 -12t-13.5 -22t-14 -23.5t-7.5 -14.5q-2 -4 -5.5 -3t-3.5 4
q-4 16 -9 42.5t-8 42.5q-1 5 3.5 6.5t6.5 -3.5l18 -50l31 40q2 4 6 1t2 -8z" />
    <glyph glyph-name="Ydieresis" unicode="&#x178;" horiz-adv-x="518" 
d="M21 384q-1 -34 14 -61.5t49 -38.5q5 -2 3 -6.5t-7 -2.5q-36 11 -53.5 42t-15.5 67q1 30 13 58t31.5 51.5t44.5 41t53 25.5q30 8 59.5 7.5t52.5 -13.5q41 -23 52.5 -63.5t4 -90.5t-27.5 -105t-42 -107.5t-40.5 -98t-22.5 -76.5q-2 -14 4 -22t26 1q10 4 28 23.5t40 47
t46.5 59.5t47 63t41 57.5t30.5 41.5q4 6 10.5 8.5t12 2.5t8.5 -3t1 -9q-2 -9 -9 -33t-15.5 -50.5t-15.5 -50t-10 -33.5q-12 -39 -27.5 -89.5t-35.5 -100t-46.5 -92.5t-59.5 -69q-23 -18 -43.5 -22.5t-41.5 1.5q-25 7 -44 27.5t-29 50.5q-2 5 3 6t6 -4q8 -26 26 -45.5
t41 -22.5q27 -3 52 16q33 26 59 69t45.5 92t34 98.5t26.5 88.5q2 5 8.5 25t13.5 42.5t13 42.5t7 26q-11 -14 -28.5 -38.5t-38 -53t-43 -58.5t-43 -56t-38 -44.5t-28.5 -23.5q-25 -11 -39.5 -8t-21 15.5t-5.5 32.5t7 43q8 27 24.5 65t34.5 81t34.5 88.5t24 87.5t2.5 78.5
t-29 62.5q-22 23 -49 25.5t-54 -5.5t-50 -24t-41 -38t-28.5 -48t-11.5 -54zM425 696q7 0 12 -5q2 -3 4 -5.5t2 -7.5q0 -7 -6 -11q-5 -5 -12 -5q-6 0 -11 5q-6 3 -6 11q0 7 6 13q5 5 11 5zM489 696q7 0 12 -5q2 -3 4 -5.5t2 -7.5q0 -7 -6 -11q-5 -5 -12 -5q-6 0 -11 5
q-6 3 -6 11q0 7 6 13q5 5 11 5z" />
    <glyph glyph-name="Zcaron" unicode="&#x17d;" horiz-adv-x="560" 
d="M245 220q39 49 78.5 99.5t75.5 95.5t65.5 81t49.5 57q-57 -11 -99.5 -9.5t-77.5 4.5q-22 2 -47 3t-48 -3t-42.5 -15.5t-31.5 -33.5q-10 -21 -7.5 -45t23.5 -38q12 -9 31.5 -8.5t44.5 14.5q4 2 6.5 -2t-1.5 -6q-28 -16 -50 -15.5t-37 10.5q-23 15 -26.5 42.5t8.5 51.5
q13 24 33.5 36.5t44.5 17.5t50 4t49 -3q21 -2 45 -4t52 -1t61 5.5t73 15.5q7 2 6.5 -2t-1.5 -6q-14 -10 -45.5 -46t-72.5 -87t-89 -111.5t-94 -119.5q-28 -36 -54.5 -70t-49.5 -62q-1 -2 -2.5 -3.5t-2.5 -3.5q13 -5 26.5 -10.5t27.5 -10.5q34 -14 70 -26.5t71 -14t69 12.5
t65 53q2 4 5.5 1.5t1.5 -5.5q-32 -41 -67 -56.5t-72 -14t-74 14t-72 27.5q-15 5 -29 10.5t-28 10.5q-20 -25 -44 -45t-58 -27q-20 -2 -34 6.5t-10 31.5q3 18 16 30t30 18t36 6.5t35 -3.5q26 32 55.5 69.5t61.5 78.5zM122 64q-14 3 -30.5 2t-31.5 -6.5t-26 -15.5t-14 -26
q-3 -19 9 -23.5t29 4.5q20 12 35 30t29 35zM434 745q0 -2 -6 -12t-13.5 -22t-14 -23.5t-7.5 -14.5q-2 -4 -5.5 -3t-3.5 4q-4 16 -9 42.5t-8 42.5q-1 5 3.5 6.5t6.5 -3.5l18 -50l31 40q2 4 6 1t2 -8z" />
    <glyph glyph-name="zcaron" unicode="&#x17e;" horiz-adv-x="230" 
d="M46 -35q-11 29 -26.5 52.5t-35.5 36.5q-4 2 -2.5 6t4.5 7q9 7 28.5 23.5t41 36t39.5 39t23 33.5q8 20 -12 14q-14 -3 -32.5 -11t-31.5 -12q-8 -3 -19.5 -4t-21.5 1.5t-16.5 9.5t-4.5 20q2 8 7 19.5t13 22.5q11 14 22.5 18t17.5 -1.5t5.5 -20t-13.5 -35.5q-5 -6 -9 -12.5
t-9 -11.5q12 -1 26 3q14 3 32.5 11.5t34.5 12.5q32 7 41 -10t-7 -43q-13 -19 -32.5 -37t-40.5 -33t-40 -26t-29 -16q45 -20 72 -67q48 49 86 98.5t72 106.5q3 5 7 2.5t2 -7.5q-35 -60 -74.5 -109.5t-87.5 -98.5q16 -32 19.5 -71.5t-6 -78t-32.5 -70t-60 -46.5
q-17 -7 -32.5 -7.5t-26 5.5t-15.5 19t-2 33q4 24 19 52.5t33.5 56t38.5 51t34 38.5zM50 -46q-15 -15 -34 -38t-37 -50t-31.5 -54.5t-16.5 -50.5q-2 -17 3 -25.5t14 -10.5t20.5 2t23.5 12q25 19 40.5 45t22 54.5t5 58.5t-9.5 57zM138 419q0 -2 -6 -12t-13.5 -22t-14 -23.5
t-7.5 -14.5q-2 -4 -5.5 -3t-3.5 4q-4 16 -9 42.5t-8 42.5q-1 5 3.5 6.5t6.5 -3.5l18 -50l31 40q2 4 6 1t2 -8zM3 197l20 29q18 30 11 40t-25 -17q-14 -19 -16 -32q-1 -16 10 -20z" />
    <glyph glyph-name="circumflex" unicode="&#x2c6;" horiz-adv-x="109" 
d="M21 473q0 1 6 11.5t13.5 22.5t13.5 23.5t8 14.5q2 4 5.5 3t3.5 -4q4 -16 9 -42.5t8 -42.5q1 -5 -3.5 -6.5t-6.5 3.5l-18 50l-31 -40q-2 -4 -6 -1t-2 8z" />
    <glyph glyph-name="caron" unicode="&#x2c7;" horiz-adv-x="109" 
d="M88 526q0 -2 -6 -12t-13.5 -22t-14 -23.5t-7.5 -14.5q-2 -4 -5.5 -3t-3.5 4q-4 16 -9 42.5t-8 42.5q-1 5 3.5 6.5t6.5 -3.5l18 -50l31 40q2 4 6 1t2 -8z" />
    <glyph glyph-name="breve" unicode="&#x2d8;" horiz-adv-x="101" 
d="M73 596q0 2 3 2.5t5 -2.5q-1 -16 -10.5 -23.5t-21 -7.5t-20.5 8t-9 23q0 2 3 3t5 -3q0 -12 7 -18t15 -6t15.5 6t7.5 18z" />
    <glyph glyph-name="dotaccent" unicode="&#x2d9;" horiz-adv-x="75" 
d="M37 479q7 0 12 -5q2 -3 4 -5.5t2 -7.5q0 -7 -6 -11q-5 -5 -12 -5q-6 0 -11 5q-6 3 -6 11q0 7 6 13q5 5 11 5z" />
    <glyph glyph-name="ring" unicode="&#x2da;" horiz-adv-x="103" 
d="M51 627q15 0 23.5 -9t8.5 -23q0 -16 -10 -24t-21.5 -8t-21.5 8t-10 24q0 14 9 23t22 9zM51 618q-10 0 -16.5 -6.5t-6.5 -17.5t7 -16.5t16 -5.5t16 5.5t7 16.5t-6 17.5t-17 6.5z" />
    <glyph glyph-name="ogonek" unicode="&#x2db;" horiz-adv-x="124" 
d="M69 -4q0 5 2.5 7.5t6.5 2t7 -2.5t3 -6q0 -17 -0.5 -26.5t-7.5 -10.5q-5 -1 -11.5 -0.5t-11.5 -2.5q-15 -9 -18 -16.5t3.5 -13t20 -7.5t31.5 -1q10 1 9.5 -6t-7.5 -8q-37 -6 -54 1.5t-20 20t6 26.5t25 20q5 2 8 1.5t8 1.5q2 1 1 9t-1 11z" />
    <glyph glyph-name="tilde" unicode="&#x2dc;" horiz-adv-x="182" 
d="M27 496q-2 -2 -5 0t0 4q17 20 36.5 19.5t40.5 -6.5q17 -5 32 -8t26 7q2 2 4 0t0 -5q-17 -17 -36.5 -17t-40.5 5q-17 5 -32 8.5t-25 -7.5z" />
    <glyph glyph-name="hungarumlaut" unicode="&#x2dd;" horiz-adv-x="204" 
d="M63 557q4 4 9 1q2 -2 4.5 -4t4.5 -5q2 -4 -1 -7l-51 -46q-4 -4 -7 -0.5t-1 6.5zM135 557q4 4 9 1q2 -2 4.5 -4t4.5 -5q2 -4 -1 -7l-51 -46q-4 -4 -7 -0.5t-1 6.5z" />
    <glyph glyph-name="endash" unicode="&#x2013;" horiz-adv-x="267" 
d="M28 280q-8 0 -8 6q0 8 8 8h211q8 0 8 -8q0 -6 -8 -6h-84q-63 -1 -127 0z" />
    <glyph glyph-name="emdash" unicode="&#x2014;" horiz-adv-x="349" 
d="M28 280q-8 0 -8 6q0 8 8 8h293q8 0 8 -8q0 -6 -8 -6q-78 0 -127.5 -0.5t-81 -0.5t-50 0.5t-34.5 0.5z" />
    <glyph glyph-name="quoteleft" unicode="&#x2018;" horiz-adv-x="79" 
d="M26 481q-8 8 -5 16.5t8 15.5q14 13 20.5 17t8.5 2q1 0 -1 -3t-5 -6.5t-5.5 -7.5t-2.5 -6q8 -4 10.5 -12.5t-4.5 -15.5q-4 -6 -12 -5.5t-12 5.5z" />
    <glyph glyph-name="quoteright" unicode="&#x2019;" horiz-adv-x="79" 
d="M53 559q8 -8 5 -16.5t-8 -15.5q-14 -13 -20.5 -17t-8.5 -2q-1 0 1 3t5 6.5t5.5 7.5t2.5 6q-8 4 -10.5 12.5t4.5 15.5q4 6 12 5.5t12 -5.5z" />
    <glyph glyph-name="quotesinglbase" unicode="&#x201a;" horiz-adv-x="79" 
d="M53 27q8 -8 5 -16.5t-8 -15.5q-14 -13 -20.5 -17t-8.5 -2q-1 0 1 3t5 6.5t5.5 7.5t2.5 6q-8 4 -10.5 12.5t4.5 15.5q4 6 12 5.5t12 -5.5z" />
    <glyph glyph-name="quotedblleft" unicode="&#x201c;" horiz-adv-x="121" 
d="M26 484q-8 8 -5 16.5t8 15.5q14 13 20.5 17t8.5 2q1 0 -1 -3t-5 -6.5t-5.5 -7.5t-2.5 -6q8 -4 10.5 -12.5t-4.5 -15.5q-4 -6 -12 -5.5t-12 5.5zM68 484q-8 8 -5 16.5t8 15.5q14 13 20.5 17t8.5 2q1 0 -1 -3t-5 -6.5t-5.5 -7.5t-2.5 -6q8 -4 10.5 -12.5t-4.5 -15.5
q-4 -6 -12 -5.5t-12 5.5z" />
    <glyph glyph-name="quotedblright" unicode="&#x201d;" horiz-adv-x="121" 
d="M95 545q8 -8 5 -16.5t-8 -15.5q-14 -13 -20.5 -17t-8.5 -2q-1 0 1 3t5 6.5t5.5 7.5t2.5 6q-8 4 -10.5 12.5t4.5 15.5q4 6 12 5.5t12 -5.5zM53 545q8 -8 5 -16.5t-8 -15.5q-14 -13 -20.5 -17t-8.5 -2q-1 0 1 3t5 6.5t5.5 7.5t2.5 6q-8 4 -10.5 12.5t4.5 15.5q4 6 12 5.5
t12 -5.5z" />
    <glyph glyph-name="quotedblbase" unicode="&#x201e;" horiz-adv-x="166" 
d="M53 34q8 -8 5 -16.5t-8 -15.5q-14 -13 -20.5 -17t-8.5 -2q-1 0 1 3t5 6.5t5.5 7.5t2.5 6q-8 4 -10.5 12.5t4.5 15.5q4 6 12 5.5t12 -5.5zM98 34q8 -8 5 -16.5t-8 -15.5q-14 -13 -20.5 -17t-8.5 -2q-1 0 1 3t5 6.5t5.5 7.5t2.5 6q-8 4 -10.5 12.5t4.5 15.5q4 6 12 5.5
t12 -5.5z" />
    <glyph glyph-name="dagger" unicode="&#x2020;" horiz-adv-x="196" 
d="M104 261l-7 -223q0 -10 -10 -10q-10 3 -10 12l7 221l6 182h-64q-6 0 -5.5 5t5.5 5h64l3 105q0 10 10 9t10 -10l-3 -103h61q5 0 5 -5t-5 -5h-61z" />
    <glyph glyph-name="daggerdbl" unicode="&#x2021;" horiz-adv-x="196" 
d="M26 262q-6 0 -6 5t6 5l62 -1l2 62l-64 1q-6 0 -6 5t6 5l65 -1l6 215q0 9 10 9t10 -10l-6 -214h60q3 0 5 -6q0 -4 -5 -4h-61l-2 -62l63 -1q3 0 5 -5q0 -5 -5 -5l-63 1l-7 -223q0 -10 -10 -10q-10 3 -10 12l7 221z" />
    <glyph glyph-name="bullet" unicode="&#x2022;" horiz-adv-x="112" 
d="M53 253q15 0 25.5 -10.5t10.5 -24.5t-12 -25.5t-24 -11.5q-14 0 -25 11t-11 23q0 15 11 26.5t25 11.5z" />
    <glyph glyph-name="guilsinglleft" unicode="&#x2039;" horiz-adv-x="234" 
d="M75 244l103 -148q2 -2 0.5 -5t-3.5 -1l-153 151q-4 4 1 7l186 121q3 2 4 -1t-1 -5z" />
    <glyph glyph-name="guilsinglright" unicode="&#x203a;" horiz-adv-x="254" 
d="M169 215l-103 148q-2 2 -0.5 5t3.5 1l153 -151q4 -4 -1 -7l-186 -121q-3 -2 -4 1t1 5z" />
    <glyph glyph-name="fraction" unicode="&#x2044;" horiz-adv-x="266" 
d="M241 565q4 0 4 -3q0 -1 -8 -23.5t-21 -59.5t-30.5 -84t-36 -97.5t-36.5 -100t-33.5 -90.5t-26 -70.5t-14.5 -39.5q-3 -3 -6 -3h-7q-7 0 -5 7l207 562q3 3 4 3z" />
    <glyph glyph-name="Euro" unicode="&#x20ac;" horiz-adv-x="340" 
d="M167 28q-17 -14 -36 -22.5t-37 -8.5t-34.5 9.5t-29.5 30.5q-20 38 -19 99q2 23 5.5 48t11.5 52h-45q-6 0 -6 7.5t6 7.5q12 -1 23.5 -1h24.5q6 21 14 42t17 42h-38q-6 0 -6 7.5t6 7.5q10 -1 22 -1h23q25 51 60 90t80 54q29 9 55.5 0.5t43.5 -36.5q0 -1 0.5 -1t0.5 -1
l-8 -7l-2 4q-20 32 -46.5 31t-55.5 -21q-28 -20 -50.5 -49t-40.5 -64q20 0 45 0.5t60 0.5q6 -1 6 -8t-6 -7h-112q-9 -20 -17 -41.5t-14 -42.5h102q6 -1 5.5 -7.5t-5.5 -6.5h-106q-7 -27 -11 -52t-5 -48q-1 -55 15 -88q19 -37 45 -37t53 25z" />
    <glyph glyph-name="minus" unicode="&#x2212;" horiz-adv-x="241" 
d="M21 122q-8 0 -7.5 7t7.5 7h185q8 0 8 -7t-8 -7q-38 0 -65.5 -0.5t-48.5 -0.5t-38 0.5t-33 0.5z" />
    <glyph glyph-name="y.003" unicode="&#xe000;" horiz-adv-x="228" 
d="M-54 -281q-25 -17 -46 -18t-35 9.5t-19 30.5t3 46q10 33 35 66.5t56.5 63t65.5 53.5t63 39q9 32 16.5 58.5t14 50.5t12 47t11.5 48q-19 -42 -41.5 -86t-54.5 -78q-5 -6 -13.5 -13t-18 -11t-18 -3t-13.5 11q-8 15 -5 38.5t10.5 50t17 51t15.5 40.5q3 6 9.5 9t12.5 2.5
t9.5 -4.5t0.5 -12q-5 -13 -13.5 -34.5t-16 -44.5t-12 -44t-2.5 -33q2 -8 6 -10t8.5 0t9.5 6.5t10 9.5q34 39 57.5 88.5t45.5 95.5q3 7 9.5 8.5t12.5 0t10.5 -5.5t3.5 -8q-11 -58 -26 -112t-31 -105q47 14 94 4.5t82 -38.5q36 -29 53.5 -74t6.5 -95q-1 -5 -5.5 -4t-3.5 6
q9 51 -7 91t-49 69q-35 29 -81.5 37.5t-92.5 -6.5q-15 -46 -32.5 -91t-37 -84t-41.5 -69.5t-46 -46.5zM65 -3q-27 -13 -60 -37t-63.5 -53.5t-54.5 -63t-31 -64.5q-5 -23 0.5 -38t18 -20.5t30 -0.5t35.5 24q19 20 37 51.5t34.5 67.5t30.5 71.5t23 62.5z" />
    <glyph glyph-name="a.001" unicode="&#xe09c;" horiz-adv-x="239" 
d="M-262 315q5 -2 2.5 -6.5t-7.5 -2.5q-20 13 -44 14.5t-47 -9.5q-22 -10 -35.5 -28t-19 -39t-2 -41t16 -34.5t35.5 -19.5t56 4q-5 27 13 51q12 18 26 21.5t23 -2.5t9.5 -19t-14.5 -28q-20 -20 -48 -30q2 -6 4 -11t6 -10q11 -17 27.5 -21.5t36.5 -1t41 13t41 21t37.5 23.5
t30.5 20q36 24 70 44t62 28q8 4 20 8t24.5 5t23.5 -2t17 -12q2 -5 -2 -8t-7 2q-4 6 -11.5 7.5t-16 0t-17 -5t-13.5 -6.5q-14 -9 -26.5 -22.5t-23 -29t-18.5 -32t-13 -30.5q-8 -24 -8 -36q0 -8 2 -11t5.5 -2.5t8.5 3.5t10 7q31 24 53.5 53.5t51.5 52.5q16 11 28 5.5t7 -21.5
q-6 -20 -16 -43t-20.5 -48.5t-18.5 -51.5t-10 -50q-1 -22 4.5 -23.5t13 6t15.5 20t13 19.5q29 45 58 94.5t47 95.5q2 5 7 2t2 -8q-8 -19 -21 -43.5t-28 -51t-30.5 -52.5t-29.5 -48q-5 -8 -14 -20.5t-19 -21t-20.5 -8t-17.5 18.5q-7 21 -2.5 49t14 57.5t20.5 58t18 51.5
q-6 -5 -18.5 -18t-26.5 -29t-29 -31t-25 -23q-5 -4 -12.5 -8.5t-16 -7t-16.5 -1.5t-13 8q-6 10 -5 26q4 32 23.5 69.5t48.5 63.5q-23 -11 -47 -26t-50 -31q-21 -14 -52 -34t-63.5 -33.5t-62.5 -13.5t-48 28q-8 9 -11 23q-37 -10 -61.5 -3t-38.5 23.5t-17.5 39.5t3 46
t22.5 43t41 30q49 18 95 -7zM-299 155q13 5 23 12t19 16q12 11 12 20t-6.5 12.5t-16.5 0.5t-19 -16q-13 -23 -12 -45z" />
    <glyph glyph-name="b.001" unicode="&#xe09d;" horiz-adv-x="243" 
d="M2 56q-2 -4 -8 -5t-12.5 -0.5t-11.5 3.5t-4 8q6 33 17 79.5t26.5 98t35.5 104.5t43 99t50 82t56 53q18 10 32.5 9.5t23 -9.5t9.5 -24.5t-6 -34.5q-11 -27 -34 -60.5t-51 -65.5t-57 -60t-52 -46q-6 -18 -13 -44t-14.5 -54.5t-14 -57t-10.5 -50.5q11 16 18.5 28t15.5 23
q18 25 41 53t47 48q25 19 43.5 16t14.5 -37q-2 -25 -15 -52.5t-28 -49.5q28 10 51.5 29.5t47.5 56.5q3 5 7 2.5t2 -7.5q-29 -44 -57 -64.5t-61 -29.5q-15 -21 -36 -38.5t-45 -25.5q-19 -5 -30.5 -2t-15 11t1.5 18.5t20 19.5q17 9 38 13.5t37 8.5q18 23 32 51t19 56
q1 7 1 12.5t-2 8.5t-7 2t-13 -7q-23 -19 -45.5 -47t-39.5 -51q-14 -20 -24.5 -37.5t-22.5 -33.5zM93 88q-14 -2 -31 -6t-30 -12q-10 -6 -13.5 -13t-1.5 -11.5t9.5 -4t21.5 8.5q14 9 27 21t18 17zM65 304q21 16 47.5 42.5t52.5 57t47 62t31 56.5q7 17 6.5 29t-6.5 17t-16 3.5
t-23 -11.5q-23 -18 -44 -50.5t-39 -69t-32.5 -73t-23.5 -63.5zM28 265q-35 -25 -66 -46t-64 -41q-23 -14 -48 -25t-49 -15.5t-45 1t-34 25.5q-8 9 -11 23q-37 -10 -61.5 -3t-38.5 23.5t-17.5 39.5t3 46t22.5 43t41 30q49 18 95 -7q5 -2 2.5 -6.5t-7.5 -2.5q-20 13 -44 14.5
t-47 -9.5q-22 -10 -35.5 -28t-19 -39t-2 -41t16 -34.5t35.5 -19.5t56 4q-5 27 13 51q12 18 26 21.5t23 -2.5t9.5 -19t-14.5 -28q-20 -20 -48 -30q2 -6 4 -11t6 -10q13 -19 33.5 -23t44.5 2t49.5 18.5t47.5 25.5q32 20 61.5 40.5t59.5 41.5zM-282 199q13 5 23 12t19 16
q12 11 12 20t-6.5 12.5t-16.5 0.5t-19 -16q-13 -23 -12 -45z" />
    <glyph glyph-name="c.001" unicode="&#xe09e;" horiz-adv-x="176" 
d="M-270 309q5 -2 2.5 -6.5t-7.5 -2.5q-20 13 -44 14.5t-47 -9.5q-22 -10 -35.5 -28t-19 -39t-2 -41t16 -34.5t35.5 -19.5t56 4q-5 27 13 51q12 18 26 21.5t23 -2.5t9.5 -19t-14.5 -28q-20 -20 -48 -30q2 -6 4 -11t6 -10q11 -17 27.5 -21.5t36.5 -1t41 13t41 21t38 23.5
l30 20q36 24 70 44t62 28h1q19 6 39 1t30 -23q2 -5 -2.5 -7.5t-6.5 2.5q-8 14 -20.5 16.5t-25.5 -4.5q-17 -9 -30.5 -26.5t-23.5 -39t-14.5 -44t-2.5 -40.5q1 -18 8 -26.5t17 -10t22 2.5t24 13q35 23 63 61.5t48 75.5q2 5 7 3t2 -7q-20 -38 -49 -77.5t-65 -64.5
q-12 -9 -27.5 -14t-30 -5.5t-27 5t-19.5 18.5q-9 15 -8 37t9 46t21 46.5t28 38.5q-22 -11 -45.5 -26t-48.5 -30q-21 -14 -52 -34t-63.5 -33.5t-62.5 -13.5t-48 28q-8 9 -11 23q-37 -10 -61.5 -3t-38.5 23.5t-17.5 39.5t3 46t22.5 43t41 30q49 18 95 -7zM-307 149q13 5 23 12
t19 16q12 11 12 20t-6.5 12.5t-16.5 0.5t-19 -16q-13 -23 -12 -45z" />
    <glyph glyph-name="d.001" unicode="&#xe09f;" horiz-adv-x="240" 
d="M-260 317q5 -2 2.5 -6.5t-7.5 -2.5q-20 13 -44 14.5t-47 -9.5q-22 -10 -35.5 -28t-19 -39t-2 -41t16 -34.5t35.5 -19.5t56 4q-5 27 13 51q12 18 26 21.5t23 -2.5t9.5 -19t-14.5 -28q-20 -20 -48 -30q2 -6 4 -11t6 -10q11 -17 27.5 -21.5t36.5 -1t41 13t41 21t38 23.5
l30 20q36 24 70 44t62 28h1q23 13 44.5 14t38.5 -13q15 41 32 84t34 85q29 67 58.5 103.5t52.5 47.5q21 10 33.5 5t17.5 -17t4.5 -28.5t-4.5 -30.5q-8 -29 -30.5 -63t-51.5 -67t-58.5 -62.5t-50.5 -49.5q-11 -28 -27 -72t-32 -90.5t-27 -90t-11 -69.5q0 -14 5 -16.5t18 18.5
q13 19 31 52.5t37 70t36.5 72.5t28.5 60q2 5 6.5 2t1.5 -8q-10 -22 -27 -57.5t-36.5 -73.5t-38.5 -72.5t-33 -53.5q-10 -15 -19 -20t-16 -2.5t-11.5 11t-5.5 20.5q-2 18 2 42.5t10.5 51.5t14.5 54t16 51q4 11 7.5 21t5.5 18q-6 -7 -18 -20.5t-27 -28.5t-31 -29t-28 -23
t-23.5 -13.5t-20.5 -3t-14.5 9.5t-3.5 24t9 34t17 36t23 34.5t28 29.5q-22 -11 -46 -25.5t-49 -30.5q-21 -14 -52 -34t-63.5 -33.5t-62.5 -13.5t-48 28q-8 9 -11 23q-37 -10 -61.5 -3t-38.5 23.5t-17.5 39.5t3 46t22.5 43t41 30q49 18 95 -7zM188 283q21 21 49.5 49t55 59.5
t47 64t25.5 62.5q3 12 2.5 23.5t-5 18.5t-13 7t-21.5 -11q-14 -12 -27 -28.5t-23.5 -34.5t-19.5 -36.5t-16 -34.5q-14 -32 -27.5 -68t-26.5 -71zM78 241q-14 -9 -27 -22.5t-24 -29t-20 -32t-14 -30.5q-4 -10 -7.5 -21.5t-2.5 -18.5t7 -8t21 10q32 25 59 53.5t53 54.5
q4 11 8 22.5t9 23.5q-6 7 -14 9.5t-16.5 1t-16.5 -5t-15 -7.5zM-297 157q13 5 23 12t19 16q12 11 12 20t-6.5 12.5t-16.5 0.5t-19 -16q-13 -23 -12 -45z" />
    <glyph glyph-name="e.001" unicode="&#xe0a0;" horiz-adv-x="176" 
d="M-263 322q5 -2 2.5 -6.5t-7.5 -2.5q-20 13 -44 14.5t-47 -9.5q-22 -10 -35.5 -28t-19 -39t-2 -41t16 -34.5t35.5 -19.5t56 4q-5 27 13 51q12 18 26 21.5t23 -2.5t9.5 -19t-14.5 -28q-20 -20 -48 -30q2 -6 4 -11t6 -10q11 -17 27.5 -21.5t36.5 -1t41 13t41 21t38 23.5
l30 20q36 24 70 44t62 28q26 10 37 -4t2 -37q-6 -15 -16 -29t-22.5 -27t-26.5 -24.5t-27 -19.5q-3 -17 -4 -37t9 -35q6 -10 14.5 -11.5t17.5 2.5t18 11t17 15q16 15 31 34t28 38t23.5 35t17.5 27q2 5 6.5 3t2.5 -7q-6 -11 -17 -28t-24.5 -36t-28.5 -38t-31 -35
q-10 -11 -23 -20.5t-26.5 -14.5t-26 -4.5t-21.5 11.5q-10 11 -14 26t-4.5 31t2 32t5.5 29q6 22 18 46.5t30 43.5q-22 -11 -45.5 -26t-48.5 -30q-21 -14 -52 -34t-63.5 -33.5t-62.5 -13.5t-48 28q-8 9 -11 23q-37 -10 -61.5 -3t-38.5 23.5t-17.5 39.5t3 46t22.5 43t41 30
q49 18 95 -7zM7 133q22 14 45.5 39t34.5 51q5 14 1 22.5t-21 -2.5q-13 -8 -22.5 -21t-17 -28t-12.5 -31t-8 -30zM-300 162q13 5 23 12t19 16q12 11 12 20t-6.5 12.5t-16.5 0.5t-19 -16q-13 -23 -12 -45z" />
    <glyph glyph-name="f.001" unicode="&#xe0a1;" horiz-adv-x="169" 
d="M-285 256q5 -2 2.5 -6.5t-7.5 -2.5q-20 13 -44 14.5t-47 -9.5q-22 -10 -35.5 -28t-19 -39t-2 -41t16 -34.5t35.5 -19.5t56 4q-5 27 13 51q12 18 26 21.5t23 -2.5t9.5 -19t-14.5 -28q-20 -20 -48 -30q2 -6 4 -11t6 -10q11 -17 27.5 -21.5t36.5 -1t41 13t41 21t38 23.5
l30 20q21 14 41 26.5t39 22.5q13 30 29 60t34 57t38 48.5t41 34.5q13 8 23 8.5t16 -4.5t7 -14t-3 -21q-6 -18 -17 -38.5t-25.5 -40t-31.5 -36.5t-36 -29q-10 -6 -20.5 -11.5t-20.5 -9.5q-10 -22 -17 -42t-15 -41q34 2 83 24t102 82q4 5 7.5 2t0.5 -8q-29 -32 -56.5 -52.5
t-52.5 -33t-47.5 -18.5t-40.5 -7q-3 -6 -4.5 -12t-3.5 -11q15 -17 21.5 -53t5.5 -77.5t-11 -81t-28 -62.5q-16 -20 -32 -23t-26 23q-9 22 -7 60.5t9.5 80t17.5 80.5t18 62q-5 5 -9.5 8t-9.5 7q-6 5 -3 9t10 3l21 -3l27 66q-17 -9 -34 -20t-35 -22q-21 -14 -52 -34
t-63.5 -33.5t-62.5 -13.5t-48 28q-8 9 -11 23q-37 -10 -61.5 -3t-38.5 23.5t-17.5 39.5t3 46t22.5 43t41 30q49 18 95 -7zM-31 44q-7 -20 -17 -55t-18 -72.5t-12.5 -72t-0.5 -53.5q3 -11 7 -15t9 -2.5t10.5 6.5t10.5 13q15 23 22.5 58.5t9 72.5t-3.5 69.5t-17 50.5zM157 339
q5 15 2.5 22.5t-21.5 -6.5q-38 -35 -66 -78.5t-49 -89.5q8 3 15 7t13 8q18 11 34.5 27t30.5 34.5t24.5 38t16.5 37.5zM-322 96q13 5 23 12t19 16q12 11 12 20t-6.5 12.5t-16.5 0.5t-19 -16q-13 -23 -12 -45zM-54 80q-1 0 -5 1t-6 1l10 -4z" />
    <glyph glyph-name="g.001" unicode="&#xe0a2;" horiz-adv-x="244" 
d="M-262 315q5 -2 2.5 -6.5t-7.5 -2.5q-20 13 -44 14.5t-47 -9.5q-22 -10 -35.5 -28t-19 -39t-2 -41t16 -34.5t35.5 -19.5t56 4q-5 27 13 51q12 18 26 21.5t23 -2.5t9.5 -19t-14.5 -28q-20 -20 -48 -30q2 -6 4 -11t6 -10q11 -17 27.5 -21.5t36.5 -1t41 13t41 21t37.5 23.5
t30.5 20q36 23 69.5 43t61.5 28q13 9 30 12q18 4 35.5 2t24.5 -15q3 -5 -2 -8t-8 2q-3 6 -10.5 8t-16.5 0.5t-18 -4.5t-15 -7q-14 -9 -27.5 -22.5t-25 -29.5t-21 -32.5t-15.5 -30.5q-3 -8 -6.5 -19.5t-3.5 -19.5t5.5 -9.5t20.5 9.5q32 24 54.5 50.5t50.5 47.5q2 4 7.5 6
t11.5 1.5t10 -3t3 -7.5q-3 -19 -11 -58t-24 -90q16 14 35 34t38 42t36 44.5t29 41.5q3 5 7.5 2.5t0.5 -7.5q-13 -21 -31 -45t-38 -47t-41.5 -44t-41.5 -37q-8 -28 -19 -57q-9 -26 -25.5 -65t-38.5 -77.5t-47.5 -70.5t-53.5 -43q-18 -7 -30 -4t-18 12.5t-6 24t7 31.5
q10 28 33 61.5t51 65.5t57 60t52 46q16 47 27.5 94.5t16.5 75.5q-26 -25 -49 -49t-49 -44q-19 -13 -32.5 -14.5t-20.5 5t-7.5 19.5t5.5 30q11 29 30 58.5t43 51.5q-22 -11 -46 -25.5t-49 -30.5q-21 -14 -52 -34t-63.5 -33.5t-62.5 -13.5t-48 28q-8 9 -11 23
q-37 -10 -61.5 -3t-38.5 23.5t-17.5 39.5t3 46t22.5 43t41 30q49 18 95 -7zM49 -36q2 5 4 10.5t4 10.5q-21 -16 -47.5 -42.5t-52.5 -57t-47.5 -62t-31.5 -56.5q-15 -41 3 -49.5t49 23.5q18 19 36 48t33.5 60.5t28.5 62t21 52.5zM-299 155q13 5 23 12t19 16q12 11 12 20
t-6.5 12.5t-16.5 0.5t-19 -16q-13 -23 -12 -45z" />
    <glyph glyph-name="h.001" unicode="&#xe0a3;" horiz-adv-x="257" 
d="M-3 51q-4 -1 -10 -1t-11 1.5t-8 4t-2 6.5q6 35 18 86.5t29 108.5q-35 -28 -78 -61t-86.5 -55t-83.5 -23t-68 35q-35 -15 -60.5 -11.5t-41.5 18t-22.5 37t-3.5 46.5t16.5 46t36.5 35q47 25 95 5q5 -1 3 -5.5t-7 -3.5q-22 10 -46 8t-44 -15t-31.5 -33t-14.5 -41.5t3 -41
t20.5 -32t37.5 -15t55 11.5q-5 12 -5 26t6 26q10 19 24.5 24.5t25 1t14 -17t-9.5 -29.5q-18 -23 -43 -35q19 -24 44.5 -29t54 3t58.5 25.5t58.5 38t53.5 41t44 35.5q15 48 34 96.5t41 89.5t47 73t52 47q19 11 33.5 10t23 -10t9.5 -24.5t-6 -34.5q-11 -28 -34 -61t-51 -65.5
t-57.5 -60t-51.5 -45.5q-6 -19 -13.5 -46.5t-15 -56.5t-14 -57.5t-10.5 -50.5q27 39 54.5 81.5t64.5 73.5q10 9 22 12t21 0.5t14.5 -10.5t4.5 -22q-3 -33 -18.5 -67.5t-33.5 -69.5t-34.5 -70t-22.5 -68q-2 -14 4.5 -15t22.5 19q21 25 42 57.5t40.5 67t37.5 69t33 63.5
q3 5 7.5 3t2.5 -7q-15 -29 -33.5 -64t-39 -70.5t-42 -69t-42.5 -58.5q-13 -15 -25 -20t-20 -1.5t-12 15.5t0 31q6 31 22 66.5t33 70t30 65t15 51.5q0 12 -5 18.5t-19 -4.5q-13 -10 -30 -30.5t-34.5 -44.5t-33 -47.5t-26.5 -39.5q-4 -9 -8 -10zM64 304q22 17 48.5 43.5
t52 56.5t46.5 61t32 57q14 34 0 46t-41 -8q-23 -18 -44 -50.5t-39 -69t-32 -73t-23 -63.5zM-299 165q12 7 22.5 15.5t18.5 19.5q10 13 7 21.5t-11 10.5t-19 -3t-17 -18q-10 -21 -1 -46z" />
    <glyph glyph-name="i.001" unicode="&#xe0a4;" horiz-adv-x="110" 
d="M-306 295q5 -2 2.5 -6.5t-7.5 -2.5q-20 13 -44 14.5t-47 -9.5q-22 -10 -35.5 -28t-19 -39t-2 -41t16 -34.5t35.5 -19.5t56 4q-5 27 13 51q12 18 26 21.5t23 -2.5t9.5 -19t-14.5 -28q-20 -20 -48 -30q2 -6 4 -11t6 -10q11 -17 27.5 -21.5t36.5 -1t41 13t41 21t38 23.5
l30 20q36 23 69.5 43t61.5 28q2 2 8 3t11.5 -0.5t9 -4.5t1.5 -9q-8 -21 -19.5 -46.5t-22 -51.5t-18.5 -51.5t-10 -46.5q-1 -12 1.5 -15t7 -0.5t9.5 7.5t9 10q13 16 27.5 38t29.5 46t28.5 46.5t24.5 40.5q2 5 6.5 2.5t1.5 -7.5q-11 -18 -25 -41t-28.5 -46t-29.5 -45t-28 -40
q-12 -16 -24 -21.5t-21 -2.5t-13.5 14.5t-1.5 29.5q2 17 9.5 42.5t16.5 52t18 50t15 35.5q-26 -10 -56.5 -28.5t-62.5 -38.5q-21 -14 -52 -34t-63.5 -33.5t-62.5 -13.5t-48 28q-8 9 -11 23q-37 -10 -61.5 -3t-38.5 23.5t-17.5 39.5t3 46t22.5 43t41 30q49 18 95 -7z
M-343 135q13 5 23 12t19 16q12 11 12 20t-6.5 12.5t-16.5 0.5t-19 -16q-13 -23 -12 -45zM45 278q17 0 15 -16q-2 -6 -7 -10.5t-13 -4.5q-7 0 -11 4.5t-3 10.5q1 7 7 11.5t12 4.5z" />
    <glyph glyph-name="j.001" unicode="&#xe0a5;" horiz-adv-x="125" 
d="M-312 288q5 -2 2.5 -6.5t-7.5 -2.5q-20 13 -44 14.5t-47 -9.5q-22 -10 -35.5 -28t-19 -39t-2 -41t16 -34.5t35.5 -19.5t56 4q-5 27 13 51q12 18 26 21.5t23 -2.5t9.5 -19t-14.5 -28q-20 -20 -48 -30q2 -6 4 -11t6 -10q11 -17 27.5 -21.5t36.5 -1t41 13t41 21t38 23.5
l30 20q36 24 70 44t62 28h1q8 4 18 2t9 -8q-4 -18 -9.5 -42t-12 -49t-13.5 -49.5t-13 -44.5q16 14 35 34t37.5 42.5t35.5 45t29 41.5q2 5 6.5 2.5t1.5 -7.5q-14 -21 -31.5 -45t-37 -47.5t-40.5 -44.5t-41 -37q-3 -14 -8 -28.5t-10 -28.5q-9 -26 -25.5 -65t-37.5 -77.5
t-46 -70.5t-52 -43q-18 -7 -30 -4t-18.5 12.5t-7 24t5.5 31.5q10 28 33 61.5t50.5 65.5t56 60t51.5 46q7 22 15 49.5t15.5 55.5t14.5 55.5t12 50.5q-26 -10 -57.5 -28.5t-63.5 -38.5q-21 -14 -52 -34t-63.5 -33.5t-62.5 -13.5t-48 28q-8 9 -11 23q-37 -10 -61.5 -3
t-38.5 23.5t-17.5 39.5t3 46t22.5 43t41 30q49 18 95 -7zM-67 -36l7 21q-20 -16 -46.5 -42.5t-52 -57t-47 -62t-30.5 -56.5q-7 -20 -5.5 -33t9.5 -16.5t21 2t28 21.5q17 19 34.5 48t33 60.5t28 62t20.5 52.5zM-349 128q13 5 23 12t19 16q12 11 12 20t-6.5 12.5t-16.5 0.5
t-19 -16q-13 -23 -12 -45zM27 274q7 0 11 -4.5t3 -10.5q-1 -8 -6.5 -12t-12.5 -4t-11.5 4t-3.5 12q2 6 7 10.5t13 4.5z" />
    <glyph glyph-name="k.001" unicode="&#xe0a6;" horiz-adv-x="237" 
d="M0 55q0 -4 -6 -5.5t-13 -0.5t-12.5 4t-4.5 8q6 37 19 89.5t31 111.5q-25 -15 -55 -32.5t-61 -33t-62 -26.5t-59 -12.5t-51 9t-38 37.5q-37 -10 -61.5 -3t-39 23.5t-18 40t3 46.5t23 42.5t41.5 29.5q48 18 94 -7q5 -2 2.5 -6.5t-7.5 -2.5q-20 13 -44 14.5t-46 -9.5
q-22 -10 -36 -28t-19.5 -39t-2.5 -41t15.5 -34.5t35.5 -20t56 3.5q-8 28 8 52q12 17 27 20.5t25 -2.5t11.5 -18.5t-13.5 -27.5q-20 -20 -47 -30q15 -26 39.5 -34t53 -5t60 16t62.5 29t58.5 33.5t48.5 29.5q16 48 35 95t40.5 87.5t46 71.5t51.5 46q19 11 33.5 10.5t22.5 -9.5
t9.5 -24.5t-5.5 -34.5q-11 -28 -34.5 -61t-51.5 -65t-57.5 -60t-51.5 -46q-5 -16 -11 -38t-12 -46t-12 -49t-11 -47q23 40 51.5 80t60.5 68q8 6 17.5 11.5t17.5 6t13 -4.5t4 -19q-5 -31 -29 -57t-50 -43q-13 -8 -19.5 -31t-8 -50t0.5 -52t6 -37q5 -17 12.5 -19.5t18.5 5.5
q19 13 39 43.5t38 65.5t32.5 69t22.5 55q2 5 7 4t3 -6q-9 -23 -24.5 -60t-35 -74.5t-41.5 -69t-45 -42.5q-14 -5 -26 -2t-22 20q-8 13 -12.5 40.5t-3.5 57t9 55.5t25 37q16 10 28 21t23 28q15 16 18 33q5 16 1.5 15t-13.5 -9q-17 -14 -34.5 -34.5t-34 -44.5t-31.5 -49
t-26 -47zM62 303q20 16 46.5 42.5t52.5 57t47.5 62t32.5 56.5q14 34 0 46t-40 -9q-23 -18 -44.5 -50t-39.5 -69t-32 -73t-23 -63zM-307 215q27 11 45 29q12 12 10.5 20.5t-9.5 12t-19.5 0t-19.5 -15.5q-13 -19 -7 -46z" />
    <glyph glyph-name="l.001" unicode="&#xe0a7;" horiz-adv-x="173" 
d="M43 -27q26 38 60 98t70 126q2 5 6.5 3t1.5 -7q-37 -70 -72.5 -132.5t-61.5 -99.5q-26 -36 -44.5 -46t-29.5 -0.5t-15.5 34.5t-1.5 60q5 45 17 100.5t30 115.5q-24 -16 -53 -35t-59.5 -36t-61 -29.5t-59 -15.5t-52 6.5t-40.5 35.5q-36 -11 -61 -5.5t-40 21.5t-19.5 39
t1 46.5t21 44t39.5 31.5q48 19 95 -4q5 -2 2.5 -6t-7.5 -3q-21 12 -44.5 12t-46.5 -11q-32 -17 -45.5 -49t-7.5 -61.5t33 -45.5t77 0q-4 13 -3 27t9 25q11 18 26 21.5t25 -1.5t12 -18t-12 -28q-10 -11 -21 -18.5t-25 -13.5q17 -25 41.5 -32.5t53.5 -2.5t60.5 19.5t61.5 32.5
t57 36.5t47 31.5q17 53 38.5 105t46.5 96t51.5 78t54.5 51q15 10 32 10t25 -16q7 -14 4.5 -36.5t-16.5 -50.5q-13 -26 -36 -55.5t-50.5 -59t-55 -56.5t-49.5 -47q-11 -28 -22.5 -63.5t-21 -72.5t-16.5 -73t-8 -64q-3 -57 11.5 -58.5t47.5 46.5zM206 550q-25 -24 -47.5 -58.5
t-41 -73t-34 -77t-27.5 -68.5q21 19 47 45t51.5 54t46.5 56t33 51q13 26 15 46.5t-3 31.5q-7 13 -19 7t-21 -14zM-317 162q13 6 24.5 13.5t19.5 17.5q11 12 9 21t-10 12t-19.5 -1t-18.5 -17q-13 -20 -5 -46z" />
    <glyph glyph-name="m.001" unicode="&#xe0a8;" horiz-adv-x="316" 
d="M-309 292q5 -2 2.5 -6.5t-7.5 -2.5q-20 13 -44 14.5t-47 -9.5q-22 -10 -35.5 -28t-19 -39t-2 -41t16 -34.5t35.5 -19.5t56 4q-5 27 13 51q12 18 26 21.5t23 -2.5t9.5 -19t-14.5 -28q-20 -20 -48 -30q2 -6 4 -11t6 -10q11 -17 27.5 -21.5t36.5 -1t41 13t41 21t38 23.5
l30 20q36 23 69.5 43t60.5 28q3 3 9 3.5t11 -0.5t8 -3.5t2 -6.5q-14 -42 -29.5 -81.5t-26.5 -75.5q5 7 14.5 22.5t21 32.5t23 34.5t20.5 29.5q10 14 21 21t18.5 6.5t11 -9t-1.5 -24.5l-17 -51q20 28 42.5 57t47.5 49q10 9 22 12t21 0t14.5 -11t3.5 -22q-4 -30 -19 -62.5
t-33 -65.5t-35.5 -66.5t-26.5 -64.5q-3 -10 -3.5 -18t2 -11t8.5 0.5t17 16.5q21 25 43 57.5t43 67t40 68.5t35 63q3 5 7 3.5t1 -6.5q-16 -29 -35 -64t-40.5 -70t-43.5 -68t-44 -58q-13 -15 -25 -20.5t-20.5 -2t-12 15.5t1.5 32q7 31 24 66.5t34.5 69.5t31.5 64.5t16 52.5
q1 11 -3.5 17.5t-19.5 -4.5q-9 -7 -21 -20t-24.5 -29t-25.5 -33.5t-25 -33.5q-3 -4 -9 -6.5t-11 -1.5t-8 6.5t0 16.5q3 8 8 21.5t10 31.5q6 17 1 15t-14 -13q-5 -7 -18.5 -27.5t-27.5 -42.5t-26 -39.5t-14 -18.5q-8 -5 -20.5 -1.5t-12.5 14.5q4 13 10.5 32.5t14.5 41
t15.5 42.5t13.5 38q-26 -10 -57 -28.5t-63 -38.5q-21 -14 -52 -34t-63.5 -33.5t-62.5 -13.5t-48 28q-8 9 -11 23q-37 -10 -61.5 -3t-38.5 23.5t-17.5 39.5t3 46t22.5 43t41 30q49 18 95 -7zM-346 132q13 5 23 12t19 16q12 11 12 20t-6.5 12.5t-16.5 0.5t-19 -16
q-13 -23 -12 -45z" />
    <glyph glyph-name="n.001" unicode="&#xe0a9;" horiz-adv-x="236" 
d="M-307 290q5 -2 2.5 -6.5t-7.5 -2.5q-20 13 -44 14.5t-47 -9.5q-22 -10 -35.5 -28t-19 -39t-2 -41t16 -34.5t35.5 -19.5t56 4q-5 27 13 51q12 18 26 21.5t23 -2.5t9.5 -19t-14.5 -28q-20 -20 -48 -30q2 -6 4 -11t6 -10q11 -17 27.5 -21.5t36.5 -1t41 13t41 21t38 23.5
l30 20q36 23 69.5 43t60.5 28q8 5 20 3t10 -10q-13 -35 -27 -69.5t-26 -69.5q12 18 26.5 39.5t30 43t31 40t28.5 29.5q11 9 22.5 12t21 0.5t15 -11t4.5 -22.5q-5 -32 -21.5 -66t-36 -69t-37 -69.5t-24.5 -67.5q-3 -14 4.5 -16t22.5 17q21 26 43.5 58.5t43.5 67t40 68
t35 62.5q2 5 6.5 3.5t2.5 -6.5q-16 -29 -35.5 -64t-40.5 -70t-43.5 -68t-43.5 -58q-13 -15 -25.5 -20.5t-21 -2t-12 15.5t1.5 32q7 31 24 66.5t34.5 69.5t31.5 64.5t16 52.5q1 11 -3.5 17.5t-19.5 -4.5q-11 -8 -28 -29.5t-36 -47.5t-37.5 -52.5t-30.5 -43.5q-9 -4 -19 -1
t-10 13q4 13 10.5 32t14.5 40t16.5 42t14.5 37q-26 -10 -56 -28t-62 -38q-21 -14 -52 -34t-63.5 -33.5t-62.5 -13.5t-48 28q-8 9 -11 23q-37 -10 -61.5 -3t-38.5 23.5t-17.5 39.5t3 46t22.5 43t41 30q49 18 95 -7zM-344 130q13 5 23 12t19 16q12 11 12 20t-6.5 12.5
t-16.5 0.5t-19 -16q-13 -23 -12 -45z" />
    <glyph glyph-name="o.001" unicode="&#xe0aa;" 
d="M-321 266q5 -2 2.5 -6.5t-7.5 -2.5q-20 13 -44 14.5t-47 -9.5q-22 -10 -35.5 -28t-19 -39t-2 -41t16 -34.5t35.5 -19.5t56 4q-5 27 13 51q12 18 26 21.5t23 -2.5t9.5 -19t-14.5 -28q-20 -20 -48 -30q2 -6 4 -11t6 -10q11 -17 27.5 -21.5t36.5 -1t41 13t41 21t37.5 23.5
t30.5 20q36 23 69.5 43t61.5 28v1q3 25 18.5 40.5t34 18t34.5 -10.5t20 -45q2 -17 -1.5 -40.5t-11.5 -47.5q26 8 46 32.5t33 48.5q2 5 6.5 2.5t1.5 -7.5q-7 -14 -16 -28t-20.5 -26t-25.5 -21t-30 -11q-15 -40 -40 -65q-16 -16 -38.5 -21t-39.5 12q-12 13 -14.5 33t1 42
t12 43.5t19.5 36.5q-26 -10 -55 -27.5t-60 -37.5q-21 -14 -52 -34t-63.5 -33.5t-62.5 -13.5t-48 28q-8 9 -11 23q-37 -10 -61.5 -3t-38.5 23.5t-17.5 39.5t3 46t22.5 43t41 30q49 18 95 -7zM11 214q5 3 8.5 5t8.5 4q4 1 8 -1.5t6 -6.5t1 -8.5t-5 -7.5q-11 -7 -15.5 -11
t-11.5 -12q3 -11 9 -22t15 -19.5t20.5 -13.5t24.5 -4q7 19 12 42.5t2 43.5q-3 25 -14 36.5t-24.5 12t-26 -9.5t-18.5 -28zM40 50q11 10 19.5 24.5t16.5 31.5q-26 0 -45 18t-27 41q-6 -11 -11.5 -26t-8 -31t-1.5 -31.5t7 -26.5q10 -18 23.5 -15t26.5 15zM-358 106q13 5 23 12
t19 16q12 11 12 20t-6.5 12.5t-16.5 0.5t-19 -16q-13 -23 -12 -45z" />
    <glyph glyph-name="p.001" unicode="&#xe0ab;" horiz-adv-x="237" 
d="M-296 319q5 -2 2.5 -6.5t-7.5 -2.5q-20 13 -44 14.5t-47 -9.5q-22 -10 -35.5 -28t-19 -39t-2 -41t16 -34.5t35.5 -19.5t56 4q-5 27 13 51q12 18 26 21.5t23 -2.5t9.5 -19t-14.5 -28q-20 -20 -48 -30q2 -6 4 -11t6 -10q11 -17 27.5 -21.5t36.5 -1t41 13t41 21t38 23.5
l30 20q35 23 68.5 42.5t60.5 28.5q3 2 9 1.5t11 -3t8.5 -6t1.5 -6.5q-5 -8 -14 -27t-17 -37q21 23 41.5 43t45.5 31q20 9 34.5 4.5t19.5 -17.5t2.5 -30t-9 -34.5t-16 -34t-17.5 -29.5q34 9 64.5 33.5t50.5 53.5q3 5 7 3t2 -7q-23 -34 -57.5 -60.5t-74.5 -34.5
q-14 -20 -36 -39t-46 -21q-22 0 -32.5 9.5t-10.5 21.5t10.5 23t30.5 14q14 2 25.5 1t25.5 -1q9 12 18 27.5t16.5 31.5t12 32t4.5 30q-1 8 -5 14.5t-16 1.5t-25 -15.5t-26 -23t-25.5 -26t-22.5 -25.5q-2 -3 -6.5 -13t-10 -24t-11.5 -31t-12 -33q-8 -20 -13.5 -36.5
t-7.5 -23.5q9 -25 19 -57t16 -66.5t5 -68.5t-14 -64q-12 -30 -34 -35t-42 19q-15 18 -19 45.5t-1.5 60t10.5 68.5t18 69.5t20.5 64t18.5 51.5q7 18 15.5 40t17.5 44.5t18 43.5t17 36q-26 -10 -56 -28t-62 -38q-21 -14 -52 -34t-63.5 -33.5t-62.5 -13.5t-48 28q-8 9 -11 23
q-37 -10 -61.5 -3t-38.5 23.5t-17.5 39.5t3 46t22.5 43t41 30q49 18 95 -7zM-55 -24q-8 -25 -18 -57.5t-16.5 -66.5t-6.5 -66.5t12 -56.5q10 -20 25 -17t25 26q12 29 14 60t-2.5 61.5t-13.5 60.5t-19 56zM73 96q-22 3 -44 0q-14 -2 -21.5 -10.5t-7.5 -16.5t6.5 -13.5
t20.5 -0.5q13 5 25.5 17.5t20.5 23.5zM-333 159q13 5 23 12t19 16q12 11 12 20t-6.5 12.5t-16.5 0.5t-19 -16q-13 -23 -12 -45z" />
    <glyph glyph-name="q.001" unicode="&#xe0ac;" horiz-adv-x="233" 
d="M-266 306q5 -2 2.5 -6.5t-7.5 -2.5q-20 13 -44 14.5t-47 -9.5q-22 -10 -35.5 -28t-19 -39t-2 -41t16 -34.5t35.5 -19.5t56 4q-5 27 13 51q12 18 26 21.5t23 -2.5t9.5 -19t-14.5 -28q-20 -20 -48 -30q2 -6 4 -11t6 -10q11 -17 27.5 -21.5t36.5 -1t41 13t41 21t38 23.5
l30 20q36 24 70 44t62 28h1q9 4 21.5 7.5t24.5 4t22 -3.5t15 -13q2 -3 -1.5 -5.5t-5.5 2.5q-4 6 -11.5 7t-16.5 -0.5t-18 -5t-15 -6.5q-15 -8 -29 -22t-26.5 -29.5t-23 -32t-17.5 -30.5q-4 -8 -9 -18.5t-6 -19t4 -10.5t21 8q35 25 64.5 56.5t62.5 52.5q11 7 21.5 1.5
t6.5 -13.5q-21 -38 -39 -81t-32 -85q16 16 38 40.5t45 50.5q27 30 49.5 57t33.5 42q4 5 7 3t1 -7q-11 -16 -34 -43t-50 -58q-24 -27 -48 -53t-40 -43q10 -23 18.5 -56t12 -69t0.5 -71.5t-16 -63.5q-15 -32 -37 -37.5t-39 19.5q-14 20 -15 57.5t4.5 80t16 85t21.5 72.5
q14 41 30.5 79.5t36.5 77.5q-29 -25 -55.5 -51.5t-57.5 -49.5q-21 -15 -34.5 -17t-20 5t-6 22t8.5 35q12 27 33.5 55t45.5 49q-20 -11 -43.5 -25t-46.5 -29q-21 -14 -52 -34t-63.5 -33.5t-62.5 -13.5t-48 28q-8 9 -11 23q-37 -10 -61.5 -3t-38.5 23.5t-17.5 39.5t3 46
t22.5 43t41 30q49 18 95 -7zM61 -12q-8 -26 -18 -61t-17 -71.5t-8.5 -70t7.5 -56.5q10 -25 24.5 -19.5t24.5 28.5q13 30 17 62.5t1 65t-11 64t-19 59.5zM-303 146q13 5 23 12t19 16q12 11 12 20t-6.5 12.5t-16.5 0.5t-19 -16q-13 -23 -12 -45z" />
    <glyph glyph-name="r.001" unicode="&#xe0ad;" horiz-adv-x="199" 
d="M3 213q3 4 5 8t4 9q3 8 8 24t6 29q0 11 -3 11.5t-7 -4.5t-8 -12t-5 -10q-8 -19 -7 -32.5t7 -22.5zM20 225q-3 -8 -10 -19q14 -13 35 -17t38 -5q5 0 5 -5q-1 -3 -11 -28q-5 -14 -15 -38.5t-18.5 -52t-14 -53.5t-1.5 -43q4 -18 17 -14t24 15q12 12 28.5 35t34 53t35 66.5
t33.5 77.5q2 4 6.5 2t2.5 -5q-16 -41 -34 -78t-35.5 -68t-34.5 -54t-30 -36q-18 -17 -37 -19.5t-29 23.5q-8 21 -5 50.5t11.5 59.5t19.5 58t19 47q-33 1 -59 18q-21 14 -22.5 35t7.5 41q5 10 14.5 19.5t18.5 13.5t15.5 -1t5.5 -23q-1 -14 -5 -30t-9 -25zM-262 315
q5 -2 2.5 -6.5t-7.5 -2.5q-20 13 -44 14.5t-47 -9.5q-22 -10 -35.5 -28t-19 -39t-2 -41t16 -34.5t35.5 -19.5t56 4q-5 27 13 51q12 18 26 21.5t23 -2.5t9.5 -19t-14.5 -28q-20 -20 -48 -30q2 -6 4 -11t6 -10q11 -17 27.5 -21.5t36.5 -1t41 13t41 21t37.5 23.5t30.5 20
q36 24 70 44t62 28q5 2 6.5 -2.5t-2.5 -5.5q-28 -8 -62 -28t-69 -43q-21 -14 -52 -34t-63.5 -33.5t-62.5 -13.5t-48 28q-8 9 -11 23q-37 -10 -61.5 -3t-38.5 23.5t-17.5 39.5t3 46t22.5 43t41 30q49 18 95 -7zM-299 155q13 5 23 12t19 16q12 11 12 20t-6.5 12.5t-16.5 0.5
t-19 -16q-13 -23 -12 -45z" />
    <glyph glyph-name="s.001" unicode="&#xe0ae;" horiz-adv-x="183" 
d="M-289 315q5 -2 2.5 -6.5t-7.5 -2.5q-20 13 -44 14.5t-47 -9.5q-22 -10 -35.5 -28t-19 -39t-2 -41t16 -34.5t35.5 -19.5t56 4q-5 27 13 51q12 18 26 21.5t23 -2.5t9.5 -19t-14.5 -28q-20 -20 -48 -30q2 -6 4 -11t6 -10q11 -17 27.5 -21.5t36.5 -1t41 13t41 21t38 23.5
l30 20q36 23 69.5 43t60.5 28q16 9 33 7.5t28 -15.5q2 -5 -1.5 -8t-6.5 2q-14 13 -26 4.5t-19 -22.5q-9 -17 -8.5 -35.5t5.5 -36.5t12 -35.5t11 -33.5q32 21 66 49t60 69q3 5 7 2t1 -7q-26 -42 -61.5 -71.5t-70.5 -52.5q4 -16 3 -34t-7 -34.5t-17 -30.5t-28 -22t-30.5 -6.5
t-21 10.5t-8 22.5t9.5 29.5q13 19 33 34t35 25q-4 21 -13 43t-15 44t-5 44t16 43q-24 -11 -51 -27.5t-56 -34.5q-21 -14 -52 -34t-63.5 -33.5t-62.5 -13.5t-48 28q-8 9 -11 23q-37 -10 -61.5 -3t-38.5 23.5t-17.5 39.5t3 46t22.5 43t41 30q49 18 95 -7zM29 50
q-14 -9 -33.5 -24.5t-29.5 -33.5q-6 -11 -5.5 -21t6.5 -15t15.5 -4t20.5 12q17 16 22.5 40t3.5 46zM-326 155q13 5 23 12t19 16q12 11 12 20t-6.5 12.5t-16.5 0.5t-19 -16q-13 -23 -12 -45z" />
    <glyph glyph-name="t.001" unicode="&#xe0af;" 
d="M-296 327q5 -2 2.5 -6.5t-7.5 -2.5q-20 13 -44 14.5t-47 -9.5q-22 -10 -35.5 -28t-19 -39t-2 -41t16 -34.5t35.5 -19.5t56 4q-5 27 13 51q12 18 26 21.5t23 -2.5t9.5 -19t-14.5 -28q-20 -20 -48 -30q2 -6 4 -11t6 -10q11 -17 27.5 -21.5t36.5 -1t41 13t41 21t38 23.5
l30 20q35 23 67.5 42t59.5 28l6 17l32 87q-35 3 -70.5 5.5t-70.5 0.5q-25 -2 -46.5 -10t-37.5 -25q-2 -2 -5 1t-1 6q17 20 41.5 27t48.5 10q31 2 68.5 -1t76.5 -6q4 10 7.5 19.5t8.5 19.5q2 6 7.5 7.5t11 0t9.5 -5.5t2 -9l-12 -34q24 -2 47.5 -1.5t45.5 2.5q58 6 73 30
q3 2 6.5 -0.5t1.5 -6.5q-12 -14 -32.5 -21.5t-46.5 -10.5q-25 -3 -49.5 -3t-49.5 2q-8 -21 -15.5 -41t-15.5 -41q-15 -39 -33.5 -90t-35.5 -102t-29 -95t-14 -70q-1 -18 3.5 -23t12 -3t16.5 9.5t15 14.5q23 26 48.5 62t49.5 74t44 74.5t34 64.5q2 5 7 3.5t2 -6.5
q-14 -28 -34.5 -64.5t-44.5 -75t-49.5 -74.5t-48.5 -63q-16 -18 -30.5 -26t-25.5 -5t-17 16.5t-4 38.5t11 62.5t22 79.5t27.5 86t28.5 82q-26 -10 -56 -28t-62 -38q-21 -14 -52 -34t-63.5 -33.5t-62.5 -13.5t-48 28q-8 9 -11 23q-37 -10 -61.5 -3t-38.5 23.5t-17.5 39.5
t3 46t22.5 43t41 30q49 18 95 -7zM-333 167q13 5 23 12t19 16q12 11 12 20t-6.5 12.5t-16.5 0.5t-19 -16q-13 -23 -12 -45z" />
    <glyph glyph-name="u.001" unicode="&#xe0b0;" horiz-adv-x="248" 
d="M-305 291q5 -2 2.5 -6.5t-7.5 -2.5q-20 13 -44 14.5t-47 -9.5q-22 -10 -35.5 -28t-19 -39t-2 -41t16 -34.5t35.5 -19.5t56 4q-5 27 13 51q12 18 26 21.5t23 -2.5t9.5 -19t-14.5 -28q-20 -20 -48 -30q2 -6 4 -11t6 -10q11 -17 27.5 -21.5t36.5 -1t41 13t41 21t37.5 23.5
t30.5 20q36 23 69.5 43t60.5 28q9 5 18.5 0t4.5 -15q-5 -15 -12.5 -34.5t-14 -40t-11.5 -40.5t-6 -35q-1 -9 0 -15.5t5 -8t11 3.5t19 20q29 35 52.5 76t45.5 81q9 17 16 29.5t12 17.5q3 3 9.5 5t11.5 1.5t8 -5t-1 -14.5q-11 -28 -26 -71t-28 -89.5t-22 -90t-9 -72.5
q0 -7 1 -12t4 -6t8.5 3.5t13.5 15.5q11 16 24.5 42t27.5 55.5t27 59.5t23.5 54t16.5 39.5l6 15.5q2 5 6.5 2.5t1.5 -7.5q-1 -2 -7 -17t-15.5 -38.5t-22.5 -52.5t-27 -58t-28 -55.5t-27 -45.5q-21 -29 -35.5 -26.5t-18.5 29.5q-4 22 2 61.5t16 82.5t21.5 82t20.5 61
q-22 -39 -46.5 -81t-53.5 -78q-9 -12 -21.5 -21t-24 -11.5t-19.5 3t-9 23.5q-2 13 2.5 35t11.5 46t15 46.5t14 37.5q-26 -11 -55.5 -28.5t-60.5 -37.5q-21 -14 -52 -34t-63.5 -33.5t-62.5 -13.5t-48 28q-8 9 -11 23q-37 -10 -61.5 -3t-38.5 23.5t-17.5 39.5t3 46t22.5 43
t41 30q49 18 95 -7zM-342 131q13 5 23 12t19 16q12 11 12 20t-6.5 12.5t-16.5 0.5t-19 -16q-13 -23 -12 -45z" />
    <glyph glyph-name="v.001" unicode="&#xe0b1;" horiz-adv-x="228" 
d="M-300 303q5 -2 2.5 -6.5t-7.5 -2.5q-20 13 -44 14.5t-47 -9.5q-22 -10 -35.5 -28t-19 -39t-2 -41t16 -34.5t35.5 -19.5t56 4q-5 27 13 51q12 18 26 21.5t23 -2.5t9.5 -19t-14.5 -28q-20 -20 -48 -30q2 -6 4 -11t6 -10q11 -17 27.5 -21.5t36.5 -1t41 13t41 21t38 23.5
l30 20q36 23 69.5 43t60.5 28q10 5 18.5 1.5t5.5 -11.5q-6 -17 -15.5 -43t-18.5 -54.5t-16.5 -55t-9.5 -44.5q-2 -8 -1.5 -15t3 -10.5t8 -2t14.5 11.5q18 19 35 43t32.5 49.5t30.5 51t30 48.5q5 7 10 13.5t7 10.5q5 5 7.5 4.5t2.5 -3.5q1 -9 2.5 -18.5t6.5 -20.5
q9 -17 27.5 -14t30.5 17q4 4 7.5 1.5t-0.5 -7.5q-17 -19 -40.5 -21.5t-34.5 19.5q-4 6 -6 13t-3 13q-15 -22 -31.5 -49.5t-34 -55.5t-36 -54.5t-37.5 -45.5q-22 -23 -40 -20t-20 30q-1 17 5.5 46t16 60t19.5 58.5t15 41.5q-26 -10 -55 -27.5t-60 -37.5q-21 -14 -52 -34
t-63.5 -33.5t-62.5 -13.5t-48 28q-8 9 -11 23q-37 -10 -61.5 -3t-38.5 23.5t-17.5 39.5t3 46t22.5 43t41 30q49 18 95 -7zM-337 143q13 5 23 12t19 16q12 11 12 20t-6.5 12.5t-16.5 0.5t-19 -16q-13 -23 -12 -45z" />
    <glyph glyph-name="w.001" unicode="&#xe0b2;" horiz-adv-x="331" 
d="M-294 313q5 -2 2.5 -6.5t-7.5 -2.5q-20 13 -44 14.5t-47 -9.5q-22 -10 -35.5 -28t-19 -39t-2 -41t16 -34.5t35.5 -19.5t56 4q-5 27 13 51q12 18 26 21.5t23 -2.5t9.5 -19t-14.5 -28q-20 -20 -48 -30q2 -6 4 -11t6 -10q11 -17 27.5 -21.5t36.5 -1t41 13t41 21t37.5 23.5
t30.5 20q36 23 69.5 43t61.5 28q9 5 18.5 2.5t5.5 -10.5q-17 -35 -35.5 -78t-22.5 -81q-1 -10 0 -18.5t4.5 -12t11 0t19.5 17.5t25.5 33t25.5 38.5t21.5 37t12.5 28.5q3 4 9 5.5t12 1.5t10 -2t4 -5q-5 -18 -12 -40.5t-14 -47t-12 -48t-5 -42.5q0 -23 5 -28t13.5 0t18 17.5
t17.5 25.5q26 43 47 93.5t40 96.5l7 16q2 4 6 4t4 -5q0 -3 2 -17.5t9 -28.5q10 -20 26 -22.5t34 17.5q4 4 7.5 1t-0.5 -8q-22 -24 -43.5 -21.5t-33.5 28.5q-4 8 -5.5 16.5t-3.5 16.5q-18 -45 -39.5 -95.5t-47.5 -94.5q-12 -20 -27 -35.5t-29 -21t-24.5 3t-12.5 38.5
q-1 19 2.5 40.5t8.5 38.5q3 14 7 28l8 28q-5 -8 -12.5 -20.5t-16.5 -26t-19 -27t-19 -23.5q-14 -18 -27 -24t-22.5 -2.5t-15 15t-5.5 29.5q1 15 6.5 35.5t13.5 42t16.5 42t14.5 35.5q-25 -10 -54 -27.5t-60 -37.5q-21 -14 -52 -34t-63.5 -33.5t-62.5 -13.5t-48 28
q-8 9 -11 23q-37 -10 -61.5 -3t-38.5 23.5t-17.5 39.5t3 46t22.5 43t41 30q49 18 95 -7zM-331 153q13 5 23 12t19 16q12 11 12 20t-6.5 12.5t-16.5 0.5t-19 -16q-13 -23 -12 -45z" />
    <glyph glyph-name="x.001" unicode="&#xe0b3;" horiz-adv-x="200" 
d="M-318 300q5 -2 2.5 -6.5t-7.5 -2.5q-20 13 -44 14.5t-47 -9.5q-22 -10 -35.5 -28t-19 -39t-2 -41t16 -34.5t35.5 -19.5t56 4q-5 27 13 51q12 18 26 21.5t23 -2.5t9.5 -19t-14.5 -28q-20 -20 -48 -30q2 -6 4 -11t6 -10q11 -17 27.5 -21.5t36.5 -1t41 13t41 21t38 23.5
l30 20q36 24 70 44t62 28h1q8 4 16 1.5t10 -11.5q1 -16 2.5 -43t3.5 -54q20 26 39 53t30 53q2 5 7 3t3 -7q-14 -31 -35 -60.5t-43 -55.5q2 -19 5 -44t12 -41q5 -10 13 -9.5t16 6.5t16 15t13 15q15 18 29 38.5t26 40t21 36t14 24.5q3 5 7 3t2 -7q-5 -9 -14 -25.5t-21 -36
t-26 -40.5t-29 -39q-13 -15 -26 -26t-25.5 -16.5t-23.5 -4.5t-19 11q-10 13 -14 31.5t-6 34.5q-25 -28 -43.5 -46.5t-28.5 -25.5q-5 -2 -7.5 2t2.5 7q10 6 30 26.5t46 50.5q-3 32 -5 64.5t-4 64.5q-26 -10 -57.5 -28.5t-63.5 -38.5q-21 -14 -52 -34t-63.5 -33.5t-62.5 -13.5
t-48 28q-8 9 -11 23q-37 -10 -61.5 -3t-38.5 23.5t-17.5 39.5t3 46t22.5 43t41 30q49 18 95 -7zM-355 140q13 5 23 12t19 16q12 11 12 20t-6.5 12.5t-16.5 0.5t-19 -16q-13 -23 -12 -45z" />
    <glyph glyph-name="y.001" unicode="&#xe0b4;" horiz-adv-x="245" 
d="M-310 285q5 -2 2.5 -6.5t-7.5 -2.5q-20 13 -44 14.5t-47 -9.5q-22 -10 -35.5 -28t-19 -39t-2 -41t16 -34.5t35.5 -19.5t56 4q-5 27 13 51q12 18 26 21.5t23 -2.5t9.5 -19t-14.5 -28q-20 -20 -48 -30q2 -6 4 -11t6 -10q11 -17 27.5 -21.5t36.5 -1t41 13t41 21t37.5 23.5
t30.5 20q36 24 70 44t62 28h1q9 5 18.5 1t4.5 -15q-5 -13 -13.5 -34.5t-16 -44.5t-12 -44t-2.5 -33q2 -8 6 -10t8.5 0t9.5 6.5t10 9.5q34 39 57.5 88.5t45.5 95.5q3 7 9 9t12 1t10 -5t3 -8q-2 -12 -8 -39.5t-14.5 -58.5t-16.5 -60.5t-13 -46.5q16 14 35 34t37.5 42t35 44.5
t28.5 41.5q3 5 7 2.5t2 -7.5q-14 -21 -31.5 -45t-37 -47t-40.5 -44t-41 -37q-4 -14 -8.5 -28.5t-9.5 -28.5q-9 -26 -25.5 -65t-37.5 -77.5t-46 -70.5t-53 -43q-18 -7 -30 -4t-18 12.5t-6 24t6 31.5q10 28 33 61.5t50.5 65.5t56 60t51.5 46q16 51 29.5 104t26.5 107
q-19 -42 -41.5 -86t-54.5 -78q-5 -6 -13.5 -13t-18 -11t-18 -3t-13.5 11q-7 14 -4.5 37t9 48.5t16 49.5t15.5 41q-26 -10 -55.5 -28t-61.5 -38q-21 -14 -52 -34t-63.5 -33.5t-62.5 -13.5t-48 28q-8 9 -11 23q-37 -10 -61.5 -3t-38.5 23.5t-17.5 39.5t3 46t22.5 43t41 30
q49 18 95 -7zM54 -36q2 5 3.5 10.5t3.5 10.5q-20 -16 -46.5 -42.5t-52 -57t-46.5 -62t-30 -56.5q-7 -20 -5.5 -33t9.5 -16.5t20.5 2t27.5 21.5q18 19 35 48t32.5 60.5t28 62t20.5 52.5zM-347 125q13 5 23 12t19 16q12 11 12 20t-6.5 12.5t-16.5 0.5t-19 -16q-13 -23 -12 -45
z" />
    <glyph glyph-name="z.001" unicode="&#xe0b5;" horiz-adv-x="230" 
d="M3 197l10 14t10 15q18 30 11 40t-25 -17q-14 -19 -16 -32q-1 -16 10 -20zM46 -35q-11 29 -26.5 52.5t-35.5 36.5q-4 2 -2.5 6t4.5 7q9 7 28.5 23.5t41 36t39.5 39t23 33.5q8 20 -12 14q-14 -3 -32.5 -11t-31.5 -12q-8 -3 -19.5 -4t-21.5 1.5t-16.5 9.5t-4.5 20
q2 8 7 19.5t13 22.5q11 14 22.5 18t17.5 -1.5t5.5 -20t-13.5 -35.5q-5 -6 -9 -12.5t-9 -11.5q12 -1 26 3q14 3 32.5 11.5t34.5 12.5q32 7 41 -10t-7 -43q-13 -19 -32.5 -37t-40.5 -33t-40 -26t-29 -16q45 -20 72 -67q48 49 86 98.5t72 106.5q3 5 7 2.5t2 -7.5
q-35 -60 -74.5 -109.5t-87.5 -98.5q16 -32 19.5 -71.5t-6 -78t-32.5 -70t-60 -46.5q-17 -7 -32.5 -7.5t-26 5.5t-15.5 19t-2 33q4 24 19 52.5t33.5 56t38.5 51t34 38.5zM50 -46q-15 -15 -34 -38t-37 -50t-31.5 -54.5t-16.5 -50.5q-2 -17 3 -25.5t14 -10.5t20.5 2t23.5 12
q25 19 40.5 45t22 54.5t5 58.5t-9.5 57zM-262 315q5 -2 2.5 -6.5t-7.5 -2.5q-20 13 -44 14.5t-47 -9.5q-22 -10 -35.5 -28t-19 -39t-2 -41t16 -34.5t35.5 -19.5t56 4q-5 27 13 51q12 18 26 21.5t23 -2.5t9.5 -19t-14.5 -28q-20 -20 -48 -30q2 -6 4 -11t6 -10
q11 -17 27.5 -21.5t36.5 -1t41 13t41 21t37.5 23.5t30.5 20q36 24 70 44t62 28q5 2 6.5 -2.5t-2.5 -5.5q-28 -8 -62 -28t-69 -43q-21 -14 -52 -34t-63.5 -33.5t-62.5 -13.5t-48 28q-8 9 -11 23q-37 -10 -61.5 -3t-38.5 23.5t-17.5 39.5t3 46t22.5 43t41 30q49 18 95 -7z
M-299 155q13 5 23 12t19 16q12 11 12 20t-6.5 12.5t-16.5 0.5t-19 -16q-13 -23 -12 -45z" />
    <glyph glyph-name="a.002" unicode="&#xe0b6;" horiz-adv-x="239" 
d="M219 108q26 28 54 52t56 37.5t55.5 13t53.5 -22.5q32 21 58.5 23t45 -8.5t29.5 -31t12 -45t-8 -49t-30 -42.5q-20 -17 -44 -23t-48 -1q-5 1 -4.5 5.5t5.5 5.5q24 -6 47 0.5t41 23.5q26 25 30 60t-10.5 61.5t-45 34t-73.5 -21.5q8 -11 11 -24.5t-1 -26.5q-6 -20 -19 -28.5
t-24.5 -6t-17 14t3.5 30.5q12 25 35 43q-24 21 -51 20t-54.5 -16t-55 -39.5t-51.5 -51.5q-32 -35 -55.5 -68t-49.5 -62q-13 -14 -25.5 -17.5t-20.5 17.5q-7 21 -2.5 49t14 57.5t20.5 58t18 51.5q-6 -5 -18.5 -18t-26.5 -29t-29 -31t-25 -23q-5 -4 -12.5 -8.5t-16 -7
t-16.5 -1.5t-13 8q-6 10 -5 26q2 20 11 43t22.5 44.5t31 39t37.5 28.5q8 4 20 8t24.5 5t23.5 -2t17 -12q2 -5 -2 -8t-7 2q-4 6 -11.5 7.5t-16 0t-17 -5t-13.5 -6.5q-14 -9 -26.5 -22.5t-23 -29t-18.5 -32t-13 -30.5q-8 -24 -8 -36q0 -8 2 -11t5.5 -2.5t8.5 3.5t10 7
q31 24 53.5 53.5t51.5 52.5q16 11 28 5.5t7 -21.5q-6 -20 -16 -43t-20.5 -48.5t-18.5 -51.5t-10 -50q-2 -23 6.5 -22t19.5 15q26 32 51 65.5t54 64.5zM437 176q-23 -18 -34 -42q-7 -15 -2.5 -23t13 -8.5t18 6t13.5 21.5q6 23 -8 46z" />
    <glyph glyph-name="b.002" unicode="&#xe0b7;" horiz-adv-x="243" 
d="M455 35q-5 2 -2.5 6.5t7.5 2.5q20 -13 44 -14.5t47 9.5q32 15 47 47t10 61.5t-31 47t-76 3.5q2 -14 -2 -27.5t-12 -24.5q-12 -17 -26 -20.5t-23 2.5t-9.5 18.5t14.5 27.5q11 11 22.5 18t25.5 12q-10 27 -30 37.5t-47 5.5q-20 -4 -40.5 -13.5t-40 -21t-37 -23t-29.5 -19.5
q-36 -24 -70 -44t-62 -28q-20 -25 -42.5 -42.5t-39.5 -22.5q-19 -5 -30.5 -2t-15 11t1.5 18.5t20 19.5q17 9 38 13.5t37 8.5q18 23 32 51t19 56q1 7 1 12.5t-2 8.5t-7 2t-13 -7q-23 -19 -45.5 -47t-39.5 -51q-14 -20 -24.5 -37.5t-22.5 -33.5q-2 -4 -8 -5t-12.5 -0.5
t-11.5 3.5t-4 8q6 33 17 79.5t26.5 98t35.5 104.5t43 99t50 82t56 53q18 10 32.5 9.5t23 -9.5t9.5 -24.5t-6 -34.5q-11 -27 -34 -60.5t-51 -65.5t-57 -60t-52 -46q-6 -18 -13 -44t-14.5 -54.5t-14 -57t-10.5 -50.5q11 16 18.5 28t15.5 23q18 25 41 53t47 48q25 19 43.5 16
t14.5 -37q-2 -25 -15 -52.5t-28 -49.5q26 11 56 29t62 38q13 9 30.5 20.5t37.5 23.5t41 21.5t41 13.5q32 6 55.5 -8t31.5 -41q36 10 61 3t39 -23.5t17.5 -39.5t-3 -46t-22.5 -43t-41 -30q-49 -18 -95 7zM65 304q21 16 47.5 42.5t52.5 57t47 62t31 56.5q7 17 6.5 29t-6.5 17
t-16 3.5t-23 -11.5q-23 -18 -44 -50.5t-39 -69t-32.5 -73t-23.5 -63.5zM492 195q-13 -5 -23 -12t-19 -16q-12 -11 -12 -20t6.5 -12.5t16.5 -0.5t19 16q13 23 12 45zM94 90q-14 -2 -32 -7t-31 -13q-10 -6 -13.5 -13t-1.5 -11.5t10 -4t22 8.5q14 9 27.5 22t18.5 18z" />
    <glyph glyph-name="c.002" unicode="&#xe0b8;" horiz-adv-x="176" 
d="M71 51q-12 -8 -27.5 -13.5t-30 -5.5t-27 5t-19.5 18q-11 19 -7 49t17.5 59t33 52.5t39.5 30.5q19 7 39.5 2t30.5 -24q2 -5 -2.5 -7.5t-6.5 2.5q-8 14 -20.5 16.5t-25.5 -4.5q-17 -9 -30.5 -26.5t-23.5 -39t-14.5 -44t-2.5 -40.5q1 -18 8 -26.5t17.5 -10t23 3t25.5 12.5
q38 24 70.5 57.5t62.5 65.5q13 15 31.5 36t40.5 40.5t45 33.5t45 15q19 2 35 -9t24 -26q33 19 59 19t43.5 -12.5t27 -34t9 -45.5t-11 -47.5t-32.5 -39.5q-43 -31 -93 -18q-5 2 -4 6.5t6 3.5q23 -7 46.5 -2.5t42.5 20.5q18 15 27 36.5t9 42.5t-8.5 40t-24.5 29.5t-39 9.5
t-53 -18q5 -12 5 -25.5t-5 -26.5q-8 -20 -20.5 -27t-22.5 -3.5t-13.5 16t7.5 30.5q8 13 17 22.5t21 18.5q-9 14 -22 23.5t-30 7.5q-21 -1 -43.5 -15t-43.5 -33t-39 -39.5t-30 -33.5q-32 -37 -66 -70t-70 -57zM419 259q-11 -8 -19 -17t-15 -20q-8 -14 -5.5 -22.5t9.5 -10.5
t16 3.5t14 20.5q8 23 0 46z" />
    <glyph glyph-name="d.002" unicode="&#xe0b9;" horiz-adv-x="240" 
d="M107 -58q15 21 35 48.5t43.5 55.5t49.5 54.5t53.5 47.5t56 33t55.5 12q33 0 59 -26q51 28 84.5 17t47 -41.5t5.5 -69t-40 -65.5q-43 -31 -93 -18q-5 1 -4 5.5t6 4.5q23 -7 46.5 -2t42.5 21q18 15 27 36.5t8.5 43t-8.5 40.5t-24.5 29t-39.5 9.5t-53 -18.5q7 -11 9 -25
t-3 -27q-7 -20 -20.5 -27t-25 -4t-16.5 15t6 30q14 24 38 41q-23 21 -52 23q-26 1 -54 -12t-55 -34.5t-53 -49t-49.5 -55.5t-42.5 -54.5t-33 -45.5q-10 -15 -19 -20t-16 -2.5t-11.5 11t-5.5 20.5q-2 18 2 42.5t10.5 51.5t14.5 54t16 51q4 11 7.5 21t5.5 18q-6 -7 -18 -20.5
t-27 -28.5t-31 -29t-28 -23t-23.5 -13.5t-20.5 -3t-14.5 9.5t-3.5 24q3 20 12.5 43t24.5 45t33.5 40t38.5 29q24 13 45.5 14t38.5 -13q15 41 32 84t34 85q29 67 58.5 103.5t52.5 47.5q21 10 33.5 5t17.5 -17t4.5 -28.5t-4.5 -30.5q-8 -29 -30.5 -63t-51.5 -67t-58.5 -62.5
t-50.5 -49.5q-11 -28 -27 -72t-32 -90.5t-27 -90t-11 -69.5q0 -14 4.5 -16.5t18.5 18.5zM188 283q21 21 49.5 49t55 59.5t47 64t25.5 62.5q3 12 2.5 23.5t-5 18.5t-13 7t-21.5 -11q-14 -12 -27 -28.5t-23.5 -34.5t-19.5 -36.5t-16 -34.5q-14 -32 -27.5 -68t-26.5 -71z
M78 241q-14 -9 -27 -22.5t-24 -29t-20 -32t-14 -30.5q-4 -10 -7.5 -21.5t-2.5 -18.5t7 -8t21 10q32 25 59 53.5t53 54.5q4 11 8 22.5t9 23.5q-6 7 -14 9.5t-16.5 1t-16.5 -5t-15 -7.5zM457 155q-24 -18 -36 -40q-8 -14 -4 -22t12.5 -9.5t18 5t14.5 20.5q8 23 -5 46z" />
    <glyph glyph-name="e.002" unicode="&#xe0ba;" horiz-adv-x="176" 
d="M84 56q-10 -11 -23 -20.5t-26.5 -14.5t-26 -4.5t-21.5 11.5q-10 11 -14 26t-4.5 31t2 32t5.5 29q4 15 11.5 32.5t17.5 33t23 28.5t29 19q26 10 37 -4t2 -37q-6 -15 -16 -29t-22.5 -27t-26.5 -24.5t-27 -19.5q-3 -17 -4 -37t9 -35q6 -10 14.5 -11t17.5 2.5t18.5 11
t18.5 15.5q26 27 54.5 57t57.5 57t58.5 48.5t57.5 32t53.5 7t48.5 -25.5q33 19 59 19.5t44 -12t28 -34t9.5 -45.5t-11 -47.5t-32.5 -39.5q-43 -31 -93 -18q-5 1 -4.5 5.5t5.5 4.5q23 -7 47.5 -2t43.5 21q18 15 26.5 36.5t8.5 43t-8.5 40.5t-24.5 29t-39.5 9.5t-53.5 -18.5
q7 -11 9 -25t-3 -27q-7 -20 -20.5 -27t-25 -4t-16.5 15t6 30q14 24 38 41q-22 21 -48.5 22.5t-54.5 -11t-57 -35.5t-56.5 -50t-53 -55t-47.5 -50zM7 133q22 14 45.5 39t34.5 51q5 14 1 22.5t-21 -2.5q-13 -8 -22.5 -21t-17 -28t-12.5 -31t-8 -30zM406 228q-24 -18 -36 -40
q-8 -14 -4 -22t12.5 -9.5t18 5t14.5 20.5q8 23 -5 46z" />
    <glyph glyph-name="f.002" unicode="&#xe0bb;" horiz-adv-x="169" 
d="M184 179q21 13 51 33t62.5 33.5t62.5 13.5t50 -27q7 -9 11 -23q36 10 61 3t39 -23.5t17.5 -39.5t-3 -46t-22.5 -43t-41 -30q-49 -18 -95 7q-5 2 -2.5 6.5t7.5 2.5q20 -13 44 -14.5t47 9.5q21 10 35 28t19.5 39t2 41t-16 34.5t-35 19.5t-55.5 -4q3 -28 -14 -51
q-12 -17 -26 -20.5t-23 2.5t-9.5 18.5t14.5 27.5q11 11 22.5 18t25.5 12q-2 6 -4 11t-6 10q-18 24 -46.5 23t-59.5 -14.5t-60 -32.5t-48 -31q-49 -32 -100 -59.5t-108 -32.5l-4 -12t-4 -11q15 -17 21.5 -53t5.5 -77.5t-11 -81t-28 -62.5q-16 -20 -32 -23t-26 23
q-9 22 -7 60.5t9.5 80t17.5 80.5t18 62q-5 5 -9.5 8t-9.5 7q-6 5 -3 9t10 3l21 -3q12 33 30 74.5t40.5 81.5t49 73.5t55.5 50.5q13 8 23 8.5t16 -4.5t7 -14t-3 -21q-7 -21 -20 -44t-30.5 -44.5t-38 -39.5t-42.5 -27q-5 -2 -6 2.5t4 6.5q20 9 39.5 25.5t35.5 37t28.5 42
t18.5 41.5q5 15 2.5 22.5t-21.5 -6.5q-57 -54 -93 -124.5t-60 -139.5q28 2 54.5 11t51.5 21.5t48 27t45 28.5zM-31 44q-7 -20 -17 -55t-18 -72.5t-12.5 -72t-0.5 -53.5q3 -11 7 -15t9 -2.5t10.5 6.5t10.5 13q15 23 22.5 58.5t9 72.5t-3.5 69.5t-17 50.5zM415 197
q-14 -5 -24 -12t-19 -16q-12 -11 -11.5 -20t7 -13t16.5 -0.5t18 16.5q13 20 13 45zM-54 80q-1 0 -5 1t-6 1l10 -4z" />
    <glyph glyph-name="g.002" unicode="&#xe0bc;" horiz-adv-x="244" 
d="M81 -39q-10 -26 -26.5 -65t-38 -77.5t-47 -70.5t-53.5 -43q-18 -7 -30 -4t-18 12.5t-6 24t7 31.5q10 28 33 61.5t51 65.5t57 60t52 46q16 47 27.5 94.5t16.5 75.5q-26 -25 -49 -49t-49 -44q-19 -13 -32.5 -14.5t-20.5 5t-7.5 19.5t5.5 30q8 22 21.5 45.5t31 44t38 35
t43.5 19.5q18 4 35.5 2t24.5 -15q3 -5 -2 -8t-8 2q-3 6 -10.5 8t-16.5 0.5t-18 -4.5t-15 -7q-14 -9 -27.5 -22.5t-25 -29.5t-21 -32.5t-15.5 -30.5q-3 -8 -6.5 -19.5t-3.5 -19.5t5.5 -9.5t20.5 9.5q32 24 54.5 50.5t50.5 47.5q2 4 7.5 6t11.5 1.5t10 -3t3 -7.5
q-4 -27 -14.5 -69t-22.5 -81q23 18 50.5 38.5t56.5 39t58.5 32t56.5 18t51 -3.5t42 -32q36 13 62.5 9t42 -19t21.5 -37.5t1.5 -46t-18.5 -45t-38 -34.5q-48 -23 -95 -3q-5 2 -3.5 6.5t6.5 3.5q22 -11 46 -9.5t45 14.5q20 12 32 32t15.5 41t-2 41t-19.5 32.5t-37.5 15.5
t-55.5 -10q5 -12 5 -26t-7 -26q-10 -19 -24.5 -24t-25 -0.5t-13.5 17t10 29.5q10 12 20 20t24 15q-18 24 -43 29.5t-53 -1t-58 -22.5t-58.5 -35.5t-54 -39.5t-45.5 -35zM49 -36q2 5 4 10.5t4 10.5q-21 -16 -47.5 -42.5t-52.5 -57t-47.5 -62t-31.5 -56.5q-15 -41 3 -49.5
t49 23.5q18 19 36 48t33.5 60.5t28.5 62t21 52.5zM415 112q-27 -13 -42 -34q-10 -13 -7.5 -21.5t10.5 -11t19 2t18 18.5q10 20 2 46z" />
    <glyph glyph-name="h.002" unicode="&#xe0bd;" horiz-adv-x="257" 
d="M110 -69q-13 -15 -25 -20t-20 -1.5t-12 15.5t0 31q6 31 22 66.5t33 70t30 65t15 51.5q0 12 -5 18.5t-19 -4.5q-13 -10 -30 -30.5t-34.5 -44.5t-33 -47.5t-26.5 -39.5q-4 -9 -8 -10t-10 -1t-11 1.5t-8 4t-2 6.5q5 33 16 79.5t26 98t35 104.5t43 99.5t50 82t56 52.5
q19 11 33.5 10t23 -10t9.5 -24.5t-6 -34.5q-11 -28 -34 -61t-51 -65.5t-57.5 -60t-51.5 -45.5q-6 -19 -13.5 -46.5t-15 -56.5t-14 -57.5t-10.5 -50.5q27 39 54.5 81.5t64.5 73.5q10 9 22 12t21 0.5t14.5 -10.5t4.5 -22q-3 -33 -18.5 -67.5t-33.5 -69.5t-34.5 -70t-22.5 -68
q-2 -14 7 -12.5t25 21.5q32 42 56 81t52 81q22 33 47.5 63t52.5 49t55.5 22.5t57.5 -15.5q30 25 56 30t46.5 -3.5t33 -27.5t17 -42.5t-1.5 -48.5t-24 -45q-36 -38 -88 -36q-5 0 -5 4.5t5 6.5q24 -2 46 7t38 29q15 19 19 41.5t0 43.5t-16 37.5t-30 23.5t-40.5 1.5
t-48.5 -28.5q9 -10 13.5 -23t2.5 -27q-3 -21 -15 -30.5t-24 -8.5t-19 11.5t0 30.5q5 14 12 25.5t18 22.5q-28 18 -55 12.5t-53 -25t-50 -49t-45 -60.5q-29 -44 -54.5 -87t-57.5 -80zM64 304q22 17 48.5 43.5t52 56.5t46.5 61t32 57q14 34 0 46t-41 -8q-23 -18 -44 -50.5
t-39 -69t-32 -73t-23 -63.5zM431 214q-21 -22 -28 -46q-5 -16 0.5 -23t14 -6.5t17 8.5t10.5 23q3 24 -14 44z" />
    <glyph glyph-name="i.002" unicode="&#xe0be;" horiz-adv-x="110" 
d="M125 190q23 26 48 48t50.5 34t51 11.5t49.5 -19.5q30 22 55.5 25.5t45 -7t31.5 -30.5t14.5 -43.5t-5 -48t-26.5 -43.5q-40 -35 -91 -29q-5 1 -4.5 5.5t5.5 5.5q24 -5 47 3t40 26q16 17 22 39.5t3.5 43.5t-13 39t-27.5 26.5t-40.5 4.5t-50.5 -25q8 -10 11.5 -23.5
t0.5 -26.5q-5 -21 -17.5 -29.5t-24 -7t-17.5 12.5t2 31q6 14 13.5 24t19.5 21q-24 18 -50 17t-51.5 -15t-50 -37.5t-46.5 -50.5q-33 -39 -59 -77.5t-54 -74.5q-12 -16 -24 -21.5t-21 -2.5t-13.5 14.5t-1.5 29.5q3 20 12.5 52.5t20.5 63t20.5 52.5t11.5 22q1 3 6.5 4t12 0
t10.5 -4.5t2 -9.5q-8 -21 -19.5 -46.5t-22 -51.5t-18.5 -51.5t-10 -46.5q-1 -12 2 -14.5t7.5 -0.5t10 7.5t9.5 10.5q32 41 60 83t63 80zM323 252q-21 -21 -31 -44q-6 -15 -1.5 -22.5t13.5 -8t18 7t12 22.5q5 23 -11 45zM45 278q17 0 15 -16q-2 -6 -7 -10.5t-13 -4.5
q-7 0 -11 4.5t-3 10.5q1 7 7 11.5t12 4.5z" />
    <glyph glyph-name="j.002" unicode="&#xe0bf;" horiz-adv-x="125" 
d="M-33 -39q-9 -26 -25.5 -65t-38 -77.5t-47 -70.5t-52.5 -43q-18 -7 -30 -4t-18.5 12.5t-7 24t5.5 31.5q10 28 33 61.5t50.5 65.5t56 60t51.5 46q7 23 15.5 51t16 57.5t14.5 57.5t12 51q0 4 6 5.5t12.5 1t11.5 -3.5t4 -7l-49 -186q35 26 79 57.5t88 51t83.5 18.5t66.5 -38
q35 13 61 9t42 -18.5t22 -37t2 -46t-18.5 -45.5t-39.5 -35q-23 -11 -47.5 -12t-47.5 10q-5 2 -3 6t7 3q22 -11 46 -10t45 14q31 18 42.5 51t4 62t-35.5 44t-76 -4q5 -12 4.5 -26t-7.5 -26q-11 -18 -25.5 -23t-25 0t-13.5 17.5t11 28.5q10 11 20.5 19t24.5 15
q-18 24 -43 30.5t-53.5 0t-58.5 -22t-59 -34.5t-54.5 -38.5t-45.5 -34.5q-5 -18 -9 -30.5t-8 -23.5zM-59 -12q-20 -16 -47 -43t-52.5 -58t-47 -63t-30.5 -57q-7 -20 -5.5 -33t9.5 -16.5t21 2t28 21.5q17 19 34.5 48t33.5 60.5t28.5 62t19.5 52.5zM301 106q-12 -6 -23 -14.5
t-19 -18.5q-10 -13 -8 -21.5t10.5 -11t19 2t17.5 17.5q12 21 3 46zM27 274q7 0 11 -4.5t3 -10.5q-1 -8 -6.5 -12t-12.5 -4t-11.5 4t-3.5 12q2 6 7 10.5t13 4.5z" />
    <glyph glyph-name="k.002" unicode="&#xe0c0;" horiz-adv-x="237" 
d="M169 48q15 25 34 54.5t41 58t46 53.5t49.5 39t52 15t52.5 -17q30 25 56 30t46 -4t33 -28.5t16.5 -43.5t-3 -49t-24.5 -44q-36 -37 -88 -34q-5 0 -5 4.5t5 5.5q24 -2 46 6.5t38 28.5q23 28 23 63t-17.5 59.5t-48.5 28.5t-70 -30q8 -10 12.5 -23t2.5 -27q-3 -21 -15 -30
t-24 -8.5t-19 11.5t0 31q5 14 12 25t18 22q-26 17 -51.5 13.5t-50.5 -19.5t-49 -42t-44.5 -54.5t-38 -56t-29.5 -47.5q-18 -29 -36.5 -55t-37.5 -35q-14 -5 -26 -2t-22 20q-8 13 -12.5 40.5t-3.5 57t9 55.5t25 37q16 10 28 21t23 28q15 16 18 33q5 16 1.5 15t-13.5 -9
q-17 -14 -34.5 -34.5t-34 -44.5t-31.5 -49t-26 -47l-2 -15q0 -4 -6 -5.5t-13 -0.5t-12.5 4t-4.5 8q5 33 16 79.5t26.5 98t35.5 104t43 99t50 82t56 52.5q19 11 33.5 10.5t22.5 -9.5t9.5 -24.5t-5.5 -34.5q-11 -28 -34.5 -61t-51.5 -65t-57.5 -60t-51.5 -46q-5 -16 -11 -38
t-12 -46t-12 -49t-11 -47q23 40 51.5 80t60.5 68q8 6 17.5 11.5t17.5 6t13 -4.5t4 -19q-5 -31 -29 -57t-50 -43q-13 -8 -19.5 -31t-8 -50t0.5 -52t6 -37q5 -17 12.5 -19.5t18.5 5.5q16 11 31.5 34t32.5 50zM62 303q20 16 46.5 42.5t52.5 57t47.5 62t32.5 56.5q14 34 0 46
t-40 -9q-23 -18 -44.5 -50t-39.5 -69t-32 -73t-23 -63zM445 239q-20 -20 -29 -46q-5 -15 0 -22.5t14 -7t17.5 8.5t10.5 23q3 23 -13 44z" />
    <glyph glyph-name="l.002" unicode="&#xe0c1;" horiz-adv-x="173" 
d="M84 39q15 24 34.5 53.5t41 58.5t45.5 54t49 39.5t51.5 16t52.5 -16.5q28 24 54 29t46 -3.5t33.5 -27.5t18 -42.5t-1.5 -49t-25 -45.5q-37 -38 -89 -35q-5 0 -4.5 4.5t5.5 5.5q24 -2 46.5 7t38.5 28q15 19 19.5 41.5t0.5 43.5t-16 38t-29.5 24.5t-40.5 2.5t-49 -28
q8 -11 12.5 -24t2.5 -26q-3 -21 -15 -30.5t-24 -9t-19 11.5t0 31q5 14 12 25t18 22q-26 17 -51 14.5t-49.5 -18t-47 -40t-42.5 -52t-36.5 -55t-29.5 -47.5q-14 -23 -26 -43t-23 -35q-26 -36 -44.5 -46t-29.5 -0.5t-15.5 34.5t-1.5 60q4 43 15.5 96t28.5 109.5t39.5 112
t48 103.5t53.5 84.5t57 54.5q15 10 32 10t25 -16q7 -14 4.5 -36.5t-16.5 -50.5q-13 -26 -36 -55.5t-50.5 -59t-55 -56.5t-49.5 -47q-11 -28 -22.5 -63.5t-21 -72.5t-16.5 -73t-8 -64q-3 -57 11.5 -58.5t47.5 46.5q9 14 19 30.5t22 35.5zM206 550q-25 -24 -47 -58t-41 -71.5
t-34 -75.5t-27 -68q20 19 45.5 44.5t51 52.5t47 54.5t33.5 50.5q13 26 15 46.5t-3 31.5q-7 13 -19 7t-21 -14zM358 231q-9 -10 -16.5 -21.5t-11.5 -24.5q-5 -15 0.5 -22.5t14 -6.5t17 8.5t10.5 22.5q3 24 -14 44z" />
    <glyph glyph-name="m.002" unicode="&#xe0c2;" horiz-adv-x="316" 
d="M286 112q26 31 55 60t59 46t59.5 18.5t57.5 -21.5q31 22 56.5 24t44.5 -8.5t30 -31t13 -44.5t-6 -48t-28 -42q-40 -34 -91 -26q-5 1 -4.5 5.5t5.5 4.5q24 -5 47 2.5t40 24.5t23.5 39t5 43.5t-12 39.5t-27 27t-40 6t-51.5 -23q8 -11 11 -24.5t0 -27.5q-6 -20 -19 -28.5
t-24.5 -6.5t-17 13.5t3.5 30.5q11 25 34 45q-27 21 -56 17.5t-58.5 -22.5t-57.5 -48.5t-52 -59.5q-34 -42 -63.5 -84t-61.5 -80q-13 -15 -25 -20.5t-20.5 -2t-12 15.5t1.5 32q7 31 24 66.5t34.5 69.5t31.5 64.5t16 52.5q1 11 -3.5 17.5t-19.5 -4.5q-9 -7 -21 -20t-24.5 -29
t-25.5 -33.5t-25 -33.5q-3 -4 -9 -6.5t-11 -1.5t-8 6.5t0 16.5q3 8 8 21.5t10 31.5q6 17 1 15t-14 -13q-5 -7 -18.5 -27.5t-27.5 -42.5t-26 -39.5t-14 -18.5q-8 -5 -20.5 -1.5t-12.5 14.5q4 13 11 34t15.5 44t16.5 45.5t14 38.5q2 4 8 6t12 1t10 -4t2 -7
q-14 -42 -29.5 -81.5t-26.5 -75.5q5 7 14.5 22.5t21 32.5t23 34.5t20.5 29.5q10 14 21 21t18.5 6.5t11 -9t-1.5 -24.5l-17 -51q20 28 42.5 57t47.5 49q10 9 22 12t21 0t14.5 -11t3.5 -22q-4 -30 -19 -62.5t-33 -65.5t-35.5 -66.5t-26.5 -64.5q-3 -10 -3.5 -18t2 -11t8.5 0.5
t17 16.5q33 38 64.5 84t66.5 88zM516 203q-23 -19 -33 -43q-6 -15 -1.5 -22.5t13 -8t18 6.5t12.5 22q5 24 -9 45z" />
    <glyph glyph-name="n.002" unicode="&#xe0c3;" horiz-adv-x="236" 
d="M240 154q22 23 44.5 41.5t46 27.5t46.5 7.5t46 -19.5q30 23 56 26.5t45.5 -6t32 -29.5t15 -44t-5.5 -48.5t-28 -44.5q-38 -35 -90 -29q-5 0 -4.5 4.5t5.5 5.5q24 -4 46.5 4t39.5 25q24 27 26 62t-14 60.5t-46.5 31.5t-71.5 -25q8 -11 11.5 -24.5t0.5 -26.5
q-5 -21 -17.5 -29.5t-24 -7t-17.5 12.5t2 31q11 26 32 45q-23 17 -46.5 16.5t-47 -12.5t-46.5 -33t-44 -45q-44 -51 -79 -103.5t-70 -94.5q-13 -15 -25.5 -20.5t-21 -2t-12 15.5t1.5 32q7 31 24 66.5t34.5 69.5t31.5 64.5t16 52.5q1 11 -3.5 17.5t-19.5 -4.5
q-11 -8 -28 -29.5t-36 -47.5t-37.5 -52.5t-30.5 -43.5q-9 -4 -19 -1t-10 13q4 13 11 33.5t15.5 43t17.5 44t15 37.5q2 5 8 7t12.5 1.5t10.5 -3.5t3 -7q-13 -35 -27 -69.5t-26 -69.5q12 18 26.5 39.5t30 43t31 40t28.5 29.5q11 9 22.5 12t21 0.5t15 -11t4.5 -22.5
q-5 -32 -21.5 -66t-36 -69t-37 -69.5t-24.5 -67.5q-3 -14 6 -14.5t24 18.5q44 55 80 108.5t82 102.5zM422 199q-10 -10 -18 -21t-13 -23q-6 -15 -1.5 -22.5t13.5 -7.5t18 7t12 22q5 23 -11 45z" />
    <glyph glyph-name="o.002" unicode="&#xe0c4;" 
d="M407 44q-5 2 -2.5 6.5t7.5 2.5q20 -13 44 -14.5t47 9.5q21 10 35 28t19.5 39t2 41t-16 34.5t-35.5 19.5t-56 -4q5 -27 -13 -51q-12 -18 -26 -21.5t-23 2.5t-9.5 19t14.5 28q11 11 22.5 18t25.5 12q-2 6 -4 11t-6 10q-17 25 -45 24t-59.5 -14.5t-61 -33t-48.5 -31.5
q-36 -24 -70 -44t-62 -28q-16 -40 -40 -64q-16 -16 -38.5 -21t-39.5 12q-13 15 -15 38.5t3.5 48t16.5 47t24 35.5q3 25 18.5 40.5t34 18t34.5 -10.5t20 -45q2 -43 -14 -88q27 9 58.5 28t64.5 40q21 13 52 33.5t63.5 34t62.5 13.5t48 -28q7 -9 11 -23q36 10 61 3t39 -23.5
t17.5 -39.5t-3 -46t-22.5 -43t-41 -30q-49 -18 -95 7zM11 214q5 3 8.5 5t8.5 4q4 1 8 -1.5t6 -6.5t1 -8.5t-5 -7.5q-11 -7 -15.5 -11t-11.5 -12q3 -11 9 -22t15 -19.5t20.5 -13.5t24.5 -4q7 19 12 42.5t2 43.5q-3 25 -14 36.5t-24.5 12t-26 -9.5t-18.5 -28zM40 50
q11 10 19.5 24.5t16.5 31.5q-26 0 -45 18t-27 41q-6 -11 -11.5 -26t-8 -31t-1.5 -31.5t7 -26.5q10 -18 23.5 -15t26.5 15zM444 204q-13 -5 -23 -12t-19 -16q-12 -11 -12 -20t6.5 -12.5t16.5 -0.5t19 16q13 23 12 45z" />
    <glyph glyph-name="p.002" unicode="&#xe0c5;" horiz-adv-x="237" 
d="M424 3q-5 3 -2 7t8 2q19 -15 43 -18.5t47 4.5q33 12 51 42t15.5 60t-27 49.5t-75.5 10.5q2 -28 -18 -49q-13 -17 -27.5 -19t-23 5t-8 19.5t17.5 26.5q22 18 51 25q-2 6 -3.5 11.5t-4.5 10.5q-14 26 -42.5 28t-61 -8.5t-64 -27.5t-51.5 -27q-38 -20 -73.5 -36.5
t-64.5 -22.5q-19 -24 -39 -40t-41 -18q-22 0 -32.5 9.5t-10.5 21.5t10.5 23t30.5 14q14 2 25.5 1t25.5 -1q9 12 18 27.5t16.5 31.5t12 32t4.5 30q-1 8 -5 14.5t-16 1.5t-25 -15.5t-26 -23t-25.5 -26t-22.5 -25.5q-2 -3 -6.5 -13t-10 -24t-11.5 -31t-12 -33
q-8 -20 -13.5 -36.5t-7.5 -23.5q9 -25 19 -57t16 -66.5t5 -68.5t-14 -64q-12 -30 -34 -35t-42 19q-15 18 -19 45.5t-1.5 60t10.5 68.5t18 69.5t20.5 64t18.5 51.5q7 19 16.5 43.5t19.5 49t19.5 46t17.5 35.5q2 4 8 4t12 -2.5t9.5 -6t1.5 -7.5q-5 -8 -14 -27t-17 -37
q21 23 41.5 43t45.5 31q20 9 34.5 4.5t19.5 -17.5t2.5 -30t-9.5 -35t-16.5 -35t-18.5 -31q27 8 60 23t66 33q22 11 54.5 28.5t66.5 28t63.5 7.5t45.5 -33q4 -5 6 -11.5t3 -12.5q37 6 61.5 -3t36.5 -26.5t13.5 -41t-7.5 -46t-26.5 -40.5t-43.5 -26q-25 -7 -49.5 -2.5
t-44.5 18.5zM-55 -24q-8 -25 -18 -57.5t-16.5 -66.5t-6.5 -66.5t12 -56.5q10 -20 25 -17t25 26q12 29 14 60t-2.5 61.5t-13.5 60.5t-19 56zM74 97q-23 3 -45 0q-14 -2 -21.5 -10.5t-7.5 -17t6.5 -14t20.5 -0.5q13 5 26 18t21 24zM476 159q-14 -3 -24.5 -9.5t-20.5 -14.5
q-12 -10 -13 -19t5 -13t16.5 -2t20.5 14q7 11 11 21.5t5 22.5z" />
    <glyph glyph-name="q.002" unicode="&#xe0c6;" horiz-adv-x="233" 
d="M390 -66q-5 2 -2.5 6.5t7.5 2.5q20 -13 44 -14.5t47 9.5q21 10 35 28t19.5 39t2 41t-16 34.5t-35.5 19.5t-56 -4q5 -27 -13 -51q-12 -18 -26 -21.5t-23 2.5t-9.5 19t14.5 28q11 11 22.5 18t25.5 12q-2 6 -4 11t-6 10q-17 25 -45 24t-59.5 -14.5t-61 -33t-48.5 -31.5
q-36 -24 -70 -44t-62 -28q10 -23 18.5 -56.5t12 -69.5t0.5 -71.5t-16 -63.5q-15 -32 -37 -37.5t-39 19.5q-14 20 -15 57.5t4.5 80t16 85t21.5 72.5q14 41 30.5 79.5t36.5 77.5q-29 -25 -55.5 -51.5t-57.5 -49.5q-21 -15 -34.5 -17t-20 5t-6 22t8.5 35q8 18 21 37.5t28 37
t32.5 31.5t34.5 23q9 4 21.5 7.5t25 4t22.5 -3t15 -13.5q2 -3 -1.5 -5.5t-5.5 2.5q-4 6 -11.5 7t-16.5 -0.5t-18 -5t-15 -6.5q-15 -8 -29 -22t-26.5 -29.5t-23 -32t-17.5 -30.5q-4 -8 -9 -18.5t-6 -19t4 -10.5t21 8q35 25 64.5 56.5t62.5 52.5q11 7 21.5 1.5t6.5 -13.5
q-21 -38 -39.5 -82t-32.5 -86q28 8 61.5 28t68.5 43q21 13 52 33.5t63.5 34t62.5 13.5t48 -28q7 -9 11 -23q36 10 61 3t39 -23.5t17.5 -39.5t-3 -46t-22.5 -43t-41 -30q-49 -18 -95 7zM61 -10q-8 -26 -18 -61.5t-17 -72t-8.5 -70.5t7.5 -57q10 -25 24.5 -19.5t24.5 28.5
q13 30 16.5 63t0.5 65.5t-11 64t-19 59.5zM427 94q-13 -5 -23 -12t-19 -16q-12 -11 -12 -20t6.5 -12.5t16.5 -0.5t19 16q13 23 12 45z" />
    <glyph glyph-name="r.002" unicode="&#xe0c7;" horiz-adv-x="199" 
d="M101 0q22 28 40 49.5t34 38t30.5 30t28.5 25.5q25 21 50 37t50 22.5t48 2t43 -24.5q32 19 58 19t44 -12t27.5 -33.5t9.5 -45.5t-10.5 -47.5t-31.5 -39.5q-43 -31 -93 -18q-5 1 -4 5.5t6 4.5q23 -7 46.5 -2t42.5 21q18 15 27 36.5t8.5 43t-8.5 40.5t-24.5 29t-39.5 9.5
t-53 -18.5q7 -11 9 -25t-3 -27q-7 -20 -20.5 -27t-25 -4t-16.5 15t6 30q14 24 38 41q-20 19 -43.5 22t-48 -6t-49.5 -26.5t-49 -38.5q-33 -29 -59 -59t-48 -57q-8 -10 -23 -28t-31.5 -31t-32 -13.5t-25.5 24.5q-8 21 -5 50.5t11.5 59.5t19.5 58t19 47q-33 1 -59 18
q-21 14 -22.5 35t7.5 41q5 10 14.5 19.5t18.5 13.5t15.5 -1t5.5 -23q-1 -14 -5 -30t-9 -25q-3 -8 -10 -19q14 -13 35 -17t38 -5q5 0 5 -5l-11 -28q-5 -14 -15 -38.5t-18.5 -52t-14 -53.5t-1.5 -43q3 -16 14 -13.5t23 12.5t22.5 22t13.5 15zM423 168q-24 -18 -36 -40
q-8 -14 -4 -22t12.5 -9.5t18 5t14.5 20.5q8 23 -5 46zM3 213q3 4 5 8t4 9q3 8 8 24t6 29q0 11 -3 11.5t-7 -4.5t-8 -12t-5 -10q-8 -19 -7 -32.5t7 -22.5z" />
    <glyph glyph-name="s.002" unicode="&#xe0c8;" horiz-adv-x="183" 
d="M10 -54q-17 -8 -30.5 -6.5t-21 10.5t-8 22.5t9.5 29.5q13 19 33 34t35 25q-4 21 -13 43t-15 44t-5 44t16 43q7 10 18 16t22 7.5t21.5 -2.5t17.5 -13q2 -5 -1.5 -8t-6.5 2q-14 13 -26 4.5t-19 -22.5q-9 -17 -8.5 -35.5t5.5 -36.5t12 -35.5t11 -33.5l45.5 26t50 28.5
t52 26.5t52.5 19q42 12 78 5.5t57 -44.5q36 9 61 2.5t39 -23t17.5 -40t-3 -46.5t-23 -42.5t-41.5 -29.5q-48 -17 -94 8q-5 2 -2.5 6t7.5 3q20 -13 44 -14.5t47 8.5q21 10 35.5 28t20 39t2.5 41.5t-15.5 35t-35.5 20t-56 -3.5q8 -27 -8 -53q-12 -17 -27.5 -20t-25.5 3
t-11.5 18.5t13.5 27.5q11 11 22.5 18t25.5 12q-20 34 -54 38.5t-75 -7.5q-26 -8 -54 -21t-54.5 -27.5t-49.5 -28.5t-39 -24q3 -17 2.5 -34.5t-6 -34t-16.5 -30.5t-28 -22zM29 50q-14 -9 -33.5 -24.5t-29.5 -33.5q-6 -11 -5.5 -21t6.5 -15t15.5 -4t20.5 12q17 16 22.5 40
t3.5 46zM387 128q-26 -9 -45 -28q-12 -12 -10.5 -21t9 -12t19 0.5t19.5 15.5q14 20 8 45z" />
    <glyph glyph-name="t.002" unicode="&#xe0c9;" 
d="M-174 344q17 20 41.5 27t48.5 10q31 2 68.5 -1t76.5 -6q4 10 7.5 19.5t8.5 19.5q2 6 7.5 7.5t11 0t9.5 -5.5t2 -9l-12 -34q24 -2 47.5 -1.5t45.5 2.5q58 6 73 30q3 2 6.5 -0.5t1.5 -6.5q-12 -14 -32.5 -21.5t-46.5 -10.5q-25 -3 -49.5 -3t-49.5 2q-8 -21 -15.5 -41
t-15.5 -41q-15 -39 -33.5 -90t-35.5 -102t-29 -95t-14 -70q-1 -18 3.5 -23t12 -3t16.5 9.5t15 14.5q20 23 47 56t58 67t65 64t68.5 47.5t67 18t60.5 -24.5q32 19 58 19t44 -12t27.5 -33.5t9.5 -45.5t-10 -47.5t-32 -39.5q-43 -31 -93 -18q-5 1 -4 5.5t6 4.5q23 -7 46.5 -2
t42.5 21q18 15 27 36.5t8.5 43t-8.5 40.5t-24.5 29t-39.5 9.5t-53 -18.5q7 -11 9 -25t-3 -27q-7 -20 -20.5 -27t-25 -4t-16.5 15t6 30q14 24 38 41q-28 23 -59.5 20.5t-64.5 -21t-66 -48.5t-63 -63t-55 -64t-43 -52q-16 -18 -30.5 -26t-25.5 -5t-17 16.5t-4 38.5
q2 28 12.5 70t25 88.5t31 93.5t30.5 86l32 87q-35 3 -70.5 5.5t-70.5 0.5q-25 -2 -46.5 -10t-37.5 -25q-2 -2 -5 1t-1 6zM359 138q-24 -18 -36 -40q-8 -14 -4 -22t12.5 -9.5t18 5t14.5 20.5q8 23 -5 46z" />
    <glyph glyph-name="u.002" unicode="&#xe0ca;" horiz-adv-x="248" 
d="M159 -25q-8 -14 -15.5 -26.5t-14.5 -23.5q-21 -29 -35.5 -26.5t-18.5 29.5q-4 22 2 61.5t16 82.5t21.5 82t20.5 61q-22 -39 -46.5 -81t-53.5 -78q-9 -12 -21.5 -21t-24 -11.5t-19.5 3t-9 23.5q-2 14 3 36.5t12 46.5t15 46.5t14 37.5q3 8 9.5 11t12.5 1.5t9 -6.5t0 -11
q-5 -15 -12.5 -34.5t-14 -40t-11.5 -40.5t-6 -35q-1 -9 0 -15.5t5 -8t11 3.5t19 20q29 35 52.5 76t45.5 81q9 17 16 29.5t12 17.5q3 3 9.5 5t11.5 1.5t8 -5t-1 -14.5q-11 -28 -26 -71t-28 -89.5t-22 -90t-9 -72.5q0 -7 1 -12t4 -6t8.5 3.5t13.5 15.5q6 9 16.5 27.5
t18.5 32.5q21 38 49 85t60.5 84t70 53t78.5 -8q27 26 52 32.5t45.5 -1t34.5 -26t20 -42t1.5 -48.5t-21.5 -46q-34 -41 -86 -39q-5 -1 -5 3.5t4 6.5q25 -2 46.5 8.5t35.5 30.5q14 19 17.5 42t-2 44t-18 37t-30.5 22.5t-40.5 0t-47.5 -30.5q10 -10 15.5 -22.5t3.5 -26.5
q-2 -21 -13.5 -31t-23.5 -10t-19.5 10.5t-1.5 30.5q5 14 10.5 25.5t16.5 23.5q-27 15 -52.5 10t-49.5 -22.5t-46 -45.5t-41 -57.5t-35 -58.5t-27 -50zM417 193q-9 -11 -16 -23t-10 -24q-4 -16 1.5 -23t14 -6t17 9.5t9.5 23.5q1 24 -16 43z" />
    <glyph glyph-name="v.002" unicode="&#xe0cb;" horiz-adv-x="228" 
d="M529 110q-5 2 -2.5 6.5t7.5 2.5q20 -13 44 -14.5t47 9.5q21 10 35 28t19.5 39t2 41t-16 34.5t-35.5 19.5t-56 -4q5 -27 -13 -51q-12 -18 -26 -21.5t-23 2.5t-9.5 19t14.5 28q11 11 22.5 18t25.5 12q-2 6 -4 11t-6 10q-11 16 -27.5 21t-36.5 1.5t-41 -13t-41.5 -21
t-38 -23.5t-29.5 -20q-17 -11 -45 -30.5t-57.5 -31.5t-54 -8t-33.5 40q-15 -22 -31.5 -49.5t-34 -55.5t-36 -54.5t-37.5 -45.5q-22 -23 -40 -20t-20 30q-1 17 5.5 46.5t16 60t19.5 58.5l15 42q4 9 10.5 12.5t12.5 3t9.5 -4.5t1.5 -9q-6 -17 -15.5 -43t-18.5 -54.5t-16.5 -55
t-9.5 -44.5q-2 -8 -1.5 -15t3 -10.5t8 -2t14.5 11.5q21 22 39.5 49.5t36 56.5t34.5 57.5t35 52.5q5 5 7.5 4.5t2.5 -3.5q2 -28 13 -39t27.5 -11t36 8.5t38.5 20t35 23t25 17.5q21 13 52 33.5t63.5 34t62.5 13.5t48 -28q7 -9 11 -23q36 10 61 3t39 -23.5t17.5 -39.5t-3 -46
t-22.5 -43t-41 -30q-49 -18 -95 7zM566 270q-13 -5 -23 -12t-19 -16q-12 -11 -12 -20t6.5 -12.5t16.5 -0.5t19 16q13 23 12 45z" />
    <glyph glyph-name="w.002" unicode="&#xe0cc;" horiz-adv-x="331" 
d="M435 249q21 13 52 33.5t63.5 34t62.5 13.5t48 -28q7 -9 11 -23q36 10 61 3t39 -23.5t17.5 -39.5t-3 -46t-22.5 -43t-41 -30q-49 -18 -95 7q-5 2 -2.5 6.5t7.5 2.5q20 -13 44 -14.5t47 9.5q21 10 35 28t19.5 39t2 41t-16 34.5t-35.5 19.5t-56 -4q5 -27 -13 -51
q-12 -18 -26 -21.5t-23 2.5t-9.5 19t14.5 28q11 11 22.5 18t25.5 12q-2 6 -4 11t-6 10q-17 25 -45 24t-59.5 -14.5t-61 -33t-48.5 -31.5q-10 -6 -24.5 -16.5t-31.5 -21.5t-35 -20t-34.5 -11.5t-30.5 2.5t-22 22q-4 8 -5.5 16.5t-3.5 16.5q-18 -45 -39.5 -95.5t-47.5 -94.5
q-12 -20 -27 -35.5t-29 -21t-24.5 3t-12.5 38.5q-1 19 2.5 40.5t8.5 38.5q3 14 7 28l8 28q-5 -8 -12.5 -20.5t-16.5 -26t-19 -27t-19 -23.5q-14 -18 -27 -24t-22.5 -2.5t-15 15t-5.5 29.5q1 16 6.5 37t14 43t17 42.5t15.5 35.5q3 7 10 10.5t13 3.5t10 -3.5t1 -8.5
q-17 -35 -35.5 -78t-22.5 -81q-1 -10 0 -18.5t4.5 -12t11 0t19.5 17.5t25.5 33t25.5 38.5t21.5 37t12.5 28.5q3 4 9 5.5t12 1.5t10 -2t4 -5q-5 -18 -12 -40.5t-14 -47t-12 -48t-5 -42.5q0 -23 5 -28t13.5 0t18 17.5t17.5 25.5q26 43 47 93.5t40 96.5l7 16q2 4 6 4t4 -5
q0 -3 1 -18t8 -29q7 -15 20 -18.5t29 0t33.5 13t33.5 20t29 20t20 13.5zM665 267q-13 -5 -23 -12t-19 -16q-12 -11 -12 -20t6.5 -12.5t16.5 -0.5t19 16q13 23 12 45z" />
    <glyph glyph-name="x.002" unicode="&#xe0cd;" horiz-adv-x="200" 
d="M438 41q-5 2 -3.5 6.5t6.5 3.5q23 -9 46.5 -5.5t43.5 17.5q29 21 38 54.5t-1.5 61.5t-40 40t-75.5 -10q10 -25 -3 -53q-8 -20 -21.5 -25.5t-23.5 -1.5t-12.5 16.5t9.5 30.5q16 23 41 38q-3 5 -5.5 10t-7.5 9q-21 21 -49 15t-56 -25t-54 -43.5t-42 -39.5
q-16 -16 -35.5 -34t-39.5 -35.5t-39 -32t-32 -22.5q-17 -11 -31 -12t-25 12q-10 13 -14 31.5t-6 34.5q-25 -28 -43.5 -46.5t-28.5 -25.5q-5 -2 -7.5 2t2.5 7q10 6 30 26.5t46 50.5q-3 32 -5 65t-4 65q0 6 4.5 9.5t10.5 4t11.5 -2.5t6.5 -10q1 -16 2.5 -43t3.5 -54
q20 26 39 53t30 53q2 5 7 3t3 -7q-14 -31 -35 -60.5t-43 -55.5q2 -19 5.5 -43t11.5 -40q5 -11 15 -10t19 8q36 26 69.5 55.5t65.5 59.5l45 42.5t56.5 45t59 24.5t52.5 -19q5 -4 8.5 -9.5t6.5 -11.5q34 16 59.5 14t42.5 -15.5t24.5 -35.5t5 -46t-14.5 -46.5t-35 -36.5
q-22 -14 -46.5 -16.5t-47.5 5.5zM445 205q-12 -7 -20.5 -15.5t-15.5 -19.5q-9 -13 -8 -22t8 -11t16.5 3t15.5 19q10 24 4 46z" />
    <glyph glyph-name="y.002" unicode="&#xe0ce;" horiz-adv-x="245" 
d="M108 31q34 28 79 58t90.5 47.5t86.5 16t69 -37.5q35 15 60.5 12t42 -17t23.5 -36.5t4 -46.5t-16 -46t-36 -35q-47 -26 -95 -7q-5 2 -3.5 6t6.5 4q23 -10 47 -8t44 16q20 13 31 33.5t13.5 41.5t-3.5 41t-21 32t-38 14t-55 -12q5 -12 5.5 -26.5t-5.5 -26.5
q-9 -19 -23.5 -24.5t-25.5 -1t-14.5 17t9.5 29.5q17 22 43 36q-19 23 -45 29t-55.5 0.5t-60.5 -20t-60.5 -32.5t-56 -38t-45.5 -35l-17 -54q-9 -26 -25.5 -65t-37.5 -77.5t-46 -70.5t-53 -43q-18 -7 -30 -4t-18 12.5t-6 24t6 31.5q10 28 33 61.5t50.5 65.5t56 60t51.5 46
q16 51 29.5 104t26.5 107q-19 -42 -41.5 -86t-54.5 -78q-5 -6 -13.5 -13t-18 -11t-18 -3t-13.5 11q-8 15 -5 38.5t10.5 50t17 51t15.5 40.5q3 6 9.5 9t12.5 2.5t9.5 -4.5t0.5 -12q-5 -13 -13.5 -34.5t-16 -44.5t-12 -44t-2.5 -33q2 -8 6 -10t8.5 0t9.5 6.5t10 9.5
q34 39 57.5 88.5t45.5 95.5q3 7 9 9t12 1t10 -5t3 -8q-2 -13 -8.5 -40.5t-14.5 -59t-16.5 -61.5t-13.5 -47zM54 -36q2 5 3.5 10.5t3.5 10.5q-20 -16 -46.5 -42.5t-52 -57t-46.5 -62t-30 -56.5q-7 -20 -5.5 -33t9.5 -16.5t20.5 2t27.5 21.5q18 19 35 48t32.5 60.5t28 62
t20.5 52.5zM430 104q-12 -8 -22.5 -16.5t-18.5 -19.5q-9 -13 -6.5 -21.5t11 -10.5t19 2.5t16.5 18.5q10 22 1 47z" />
    </font>
</defs>
</svg>
